<svg width="300" height="100" viewBox="0 0 300 100" fill="none" xmlns="http://www.w3.org/2000/svg">
<rect width="300" height="100" rx="16" fill="#9BF3B4" fill-opacity="0.48"/>
<path d="M106.48 58L112.24 44H113.84L119.56 58H117.08L112.6 46.66H113.44L108.92 58H106.48ZM109.32 55.3V53.3H116.74V55.3H109.32ZM127.843 58V52.46C127.843 51.82 127.636 51.2933 127.223 50.88C126.823 50.4667 126.303 50.26 125.663 50.26C125.236 50.26 124.856 50.3533 124.523 50.54C124.19 50.7267 123.93 50.9867 123.743 51.32C123.556 51.6533 123.463 52.0333 123.463 52.46L122.603 51.98C122.603 51.2467 122.763 50.6 123.083 50.04C123.403 49.4667 123.843 49.02 124.403 48.7C124.976 48.3667 125.616 48.2 126.323 48.2C127.043 48.2 127.683 48.3867 128.243 48.76C128.803 49.12 129.243 49.5933 129.563 50.18C129.883 50.7533 130.043 51.3533 130.043 51.98V58H127.843ZM121.263 58V48.4H123.463V58H121.263ZM132.299 58V48.4H134.499V58H132.299ZM133.399 46.64C133.025 46.64 132.712 46.5133 132.459 46.26C132.219 46.0067 132.099 45.6933 132.099 45.32C132.099 44.9467 132.219 44.6333 132.459 44.38C132.712 44.1267 133.025 44 133.399 44C133.785 44 134.099 44.1267 134.339 44.38C134.579 44.6333 134.699 44.9467 134.699 45.32C134.699 45.6933 134.579 46.0067 134.339 46.26C134.099 46.5133 133.785 46.64 133.399 46.64ZM136.966 58V48.4H139.166V58H136.966ZM143.346 58V52.28C143.346 51.64 143.146 51.1467 142.746 50.8C142.346 50.44 141.853 50.26 141.266 50.26C140.866 50.26 140.506 50.34 140.186 50.5C139.879 50.66 139.633 50.8933 139.446 51.2C139.259 51.4933 139.166 51.8533 139.166 52.28L138.306 51.8C138.306 51.0667 138.466 50.4333 138.786 49.9C139.106 49.3667 139.539 48.9533 140.086 48.66C140.633 48.3533 141.246 48.2 141.926 48.2C142.606 48.2 143.219 48.3467 143.766 48.64C144.313 48.9333 144.746 49.3467 145.066 49.88C145.386 50.4133 145.546 51.0533 145.546 51.8V58H143.346ZM149.726 58V52.28C149.726 51.64 149.526 51.1467 149.126 50.8C148.726 50.44 148.233 50.26 147.646 50.26C147.259 50.26 146.906 50.34 146.586 50.5C146.266 50.66 146.013 50.8933 145.826 51.2C145.639 51.4933 145.546 51.8533 145.546 52.28L144.306 51.8C144.373 51.0667 144.586 50.4333 144.946 49.9C145.306 49.3667 145.766 48.9533 146.326 48.66C146.899 48.3533 147.526 48.2 148.206 48.2C148.899 48.2 149.526 48.3467 150.086 48.64C150.646 48.9333 151.093 49.3467 151.426 49.88C151.759 50.4133 151.926 51.0533 151.926 51.8V58H149.726ZM158.213 58.2C157.346 58.2 156.559 57.98 155.853 57.54C155.159 57.1 154.606 56.5067 154.193 55.76C153.793 55 153.593 54.1533 153.593 53.22C153.593 52.2733 153.793 51.4267 154.193 50.68C154.606 49.92 155.159 49.32 155.853 48.88C156.559 48.4267 157.346 48.2 158.213 48.2C158.946 48.2 159.593 48.36 160.153 48.68C160.726 48.9867 161.179 49.4133 161.513 49.96C161.846 50.5067 162.013 51.1267 162.013 51.82V54.58C162.013 55.2733 161.846 55.8933 161.513 56.44C161.193 56.9867 160.746 57.42 160.173 57.74C159.599 58.0467 158.946 58.2 158.213 58.2ZM158.573 56.12C159.386 56.12 160.039 55.8467 160.533 55.3C161.039 54.7533 161.293 54.0533 161.293 53.2C161.293 52.6267 161.179 52.12 160.953 51.68C160.726 51.24 160.406 50.9 159.993 50.66C159.593 50.4067 159.119 50.28 158.573 50.28C158.039 50.28 157.566 50.4067 157.153 50.66C156.753 50.9 156.433 51.24 156.193 51.68C155.966 52.12 155.853 52.6267 155.853 53.2C155.853 53.7733 155.966 54.28 156.193 54.72C156.433 55.16 156.753 55.5067 157.153 55.76C157.566 56 158.039 56.12 158.573 56.12ZM161.153 58V55.42L161.533 53.08L161.153 50.76V48.4H163.353V58H161.153ZM167.254 58V44.4H169.454V58H167.254ZM164.954 50.4V48.4H171.754V50.4H164.954ZM177.539 58.2C176.579 58.2 175.713 57.9867 174.939 57.56C174.179 57.12 173.573 56.52 173.119 55.76C172.679 55 172.459 54.1467 172.459 53.2C172.459 52.2533 172.679 51.4067 173.119 50.66C173.559 49.9 174.153 49.3 174.899 48.86C175.659 48.42 176.499 48.2 177.419 48.2C178.313 48.2 179.099 48.4067 179.779 48.82C180.473 49.2333 181.013 49.8 181.399 50.52C181.799 51.24 181.999 52.06 181.999 52.98C181.999 53.14 181.986 53.3067 181.959 53.48C181.946 53.64 181.919 53.82 181.879 54.02H173.999V52.22H180.739L179.919 52.94C179.893 52.3533 179.779 51.86 179.579 51.46C179.379 51.06 179.093 50.7533 178.719 50.54C178.359 50.3267 177.913 50.22 177.379 50.22C176.819 50.22 176.333 50.34 175.919 50.58C175.506 50.82 175.186 51.16 174.959 51.6C174.733 52.0267 174.619 52.54 174.619 53.14C174.619 53.74 174.739 54.2667 174.979 54.72C175.219 55.1733 175.559 55.5267 175.999 55.78C176.439 56.02 176.946 56.14 177.519 56.14C178.013 56.14 178.466 56.0533 178.879 55.88C179.306 55.7067 179.666 55.4533 179.959 55.12L181.359 56.54C180.893 57.0867 180.326 57.5 179.659 57.78C178.993 58.06 178.286 58.2 177.539 58.2ZM187.783 58.2C186.916 58.2 186.13 57.98 185.423 57.54C184.73 57.1 184.176 56.5067 183.763 55.76C183.363 55 183.163 54.1533 183.163 53.22C183.163 52.2733 183.363 51.4267 183.763 50.68C184.176 49.92 184.73 49.32 185.423 48.88C186.13 48.4267 186.916 48.2 187.783 48.2C188.516 48.2 189.163 48.36 189.723 48.68C190.296 48.9867 190.75 49.4133 191.083 49.96C191.416 50.5067 191.583 51.1267 191.583 51.82V54.58C191.583 55.2733 191.416 55.8933 191.083 56.44C190.763 56.9867 190.316 57.42 189.743 57.74C189.17 58.0467 188.516 58.2 187.783 58.2ZM188.143 56.12C188.69 56.12 189.163 56 189.563 55.76C189.976 55.5067 190.296 55.16 190.523 54.72C190.75 54.28 190.863 53.7733 190.863 53.2C190.863 52.6267 190.75 52.12 190.523 51.68C190.296 51.24 189.976 50.9 189.563 50.66C189.163 50.4067 188.69 50.28 188.143 50.28C187.61 50.28 187.136 50.4067 186.723 50.66C186.323 50.9 186.003 51.24 185.763 51.68C185.536 52.12 185.423 52.6267 185.423 53.2C185.423 53.7733 185.536 54.28 185.763 54.72C186.003 55.16 186.323 55.5067 186.723 55.76C187.136 56 187.61 56.12 188.143 56.12ZM192.923 58H190.723V55.42L191.103 53.08L190.723 50.76V43.6H192.923V58ZM204.288 58L198.628 44H201.128L205.548 55.34H204.668L209.128 44H211.588L205.888 58H204.288ZM213.314 58V48.4H215.514V58H213.314ZM214.414 46.64C214.041 46.64 213.728 46.5133 213.474 46.26C213.234 46.0067 213.114 45.6933 213.114 45.32C213.114 44.9467 213.234 44.6333 213.474 44.38C213.728 44.1267 214.041 44 214.414 44C214.801 44 215.114 44.1267 215.354 44.38C215.594 44.6333 215.714 44.9467 215.714 45.32C215.714 45.6933 215.594 46.0067 215.354 46.26C215.114 46.5133 214.801 46.64 214.414 46.64ZM222.002 58.2C221.135 58.2 220.348 57.98 219.642 57.54C218.948 57.1 218.395 56.5067 217.982 55.76C217.582 55 217.382 54.1533 217.382 53.22C217.382 52.2733 217.582 51.4267 217.982 50.68C218.395 49.92 218.948 49.32 219.642 48.88C220.348 48.4267 221.135 48.2 222.002 48.2C222.735 48.2 223.382 48.36 223.942 48.68C224.515 48.9867 224.968 49.4133 225.302 49.96C225.635 50.5067 225.802 51.1267 225.802 51.82V54.58C225.802 55.2733 225.635 55.8933 225.302 56.44C224.982 56.9867 224.535 57.42 223.962 57.74C223.388 58.0467 222.735 58.2 222.002 58.2ZM222.362 56.12C222.908 56.12 223.382 56 223.782 55.76C224.195 55.5067 224.515 55.16 224.742 54.72C224.968 54.28 225.082 53.7733 225.082 53.2C225.082 52.6267 224.968 52.12 224.742 51.68C224.515 51.24 224.195 50.9 223.782 50.66C223.382 50.4067 222.908 50.28 222.362 50.28C221.828 50.28 221.355 50.4067 220.942 50.66C220.542 50.9 220.222 51.24 219.982 51.68C219.755 52.12 219.642 52.6267 219.642 53.2C219.642 53.7733 219.755 54.28 219.982 54.72C220.222 55.16 220.542 55.5067 220.942 55.76C221.355 56 221.828 56.12 222.362 56.12ZM227.142 58H224.942V55.42L225.322 53.08L224.942 50.76V43.6H227.142V58ZM234.043 58.2C233.083 58.2 232.217 57.9867 231.443 57.56C230.683 57.12 230.077 56.52 229.623 55.76C229.183 55 228.963 54.1467 228.963 53.2C228.963 52.2533 229.183 51.4067 229.623 50.66C230.063 49.9 230.657 49.3 231.403 48.86C232.163 48.42 233.003 48.2 233.923 48.2C234.817 48.2 235.603 48.4067 236.283 48.82C236.977 49.2333 237.517 49.8 237.903 50.52C238.303 51.24 238.503 52.06 238.503 52.98C238.503 53.14 238.49 53.3067 238.463 53.48C238.45 53.64 238.423 53.82 238.383 54.02H230.503V52.22H237.243L236.423 52.94C236.397 52.3533 236.283 51.86 236.083 51.46C235.883 51.06 235.597 50.7533 235.223 50.54C234.863 50.3267 234.417 50.22 233.883 50.22C233.323 50.22 232.837 50.34 232.423 50.58C232.01 50.82 231.69 51.16 231.463 51.6C231.237 52.0267 231.123 52.54 231.123 53.14C231.123 53.74 231.243 54.2667 231.483 54.72C231.723 55.1733 232.063 55.5267 232.503 55.78C232.943 56.02 233.45 56.14 234.023 56.14C234.517 56.14 234.97 56.0533 235.383 55.88C235.81 55.7067 236.17 55.4533 236.463 55.12L237.863 56.54C237.397 57.0867 236.83 57.5 236.163 57.78C235.497 58.06 234.79 58.2 234.043 58.2ZM244.667 58.2C243.734 58.2 242.887 57.98 242.127 57.54C241.367 57.0867 240.76 56.48 240.307 55.72C239.867 54.96 239.647 54.1133 239.647 53.18C239.647 52.2467 239.867 51.4067 240.307 50.66C240.76 49.9133 241.367 49.32 242.127 48.88C242.887 48.4267 243.734 48.2 244.667 48.2C245.614 48.2 246.467 48.42 247.227 48.86C247.987 49.3 248.587 49.9 249.027 50.66C249.48 51.4067 249.707 52.2467 249.707 53.18C249.707 54.1133 249.48 54.96 249.027 55.72C248.587 56.48 247.987 57.0867 247.227 57.54C246.467 57.98 245.614 58.2 244.667 58.2ZM244.667 56.08C245.214 56.08 245.694 55.96 246.107 55.72C246.534 55.4667 246.86 55.12 247.087 54.68C247.327 54.24 247.447 53.74 247.447 53.18C247.447 52.62 247.327 52.1267 247.087 51.7C246.847 51.2733 246.52 50.94 246.107 50.7C245.694 50.4467 245.214 50.32 244.667 50.32C244.134 50.32 243.654 50.4467 243.227 50.7C242.814 50.94 242.487 51.2733 242.247 51.7C242.02 52.1267 241.907 52.62 241.907 53.18C241.907 53.74 242.02 54.24 242.247 54.68C242.487 55.12 242.814 55.4667 243.227 55.72C243.654 55.96 244.134 56.08 244.667 56.08ZM254.676 58.2C254.143 58.2 253.63 58.1333 253.136 58C252.643 57.8533 252.19 57.6533 251.776 57.4C251.363 57.1333 251.003 56.8133 250.696 56.44L252.096 55.04C252.43 55.4267 252.81 55.72 253.236 55.92C253.676 56.1067 254.17 56.2 254.716 56.2C255.21 56.2 255.583 56.1267 255.836 55.98C256.09 55.8333 256.216 55.62 256.216 55.34C256.216 55.0467 256.096 54.82 255.856 54.66C255.616 54.5 255.303 54.3667 254.916 54.26C254.543 54.14 254.143 54.02 253.716 53.9C253.303 53.78 252.903 53.62 252.516 53.42C252.143 53.2067 251.836 52.92 251.596 52.56C251.356 52.2 251.236 51.7333 251.236 51.16C251.236 50.5467 251.376 50.02 251.656 49.58C251.95 49.14 252.356 48.8 252.876 48.56C253.41 48.32 254.043 48.2 254.776 48.2C255.55 48.2 256.23 48.34 256.816 48.62C257.416 48.8867 257.916 49.2933 258.316 49.84L256.916 51.24C256.636 50.8933 256.316 50.6333 255.956 50.46C255.596 50.2867 255.183 50.2 254.716 50.2C254.276 50.2 253.936 50.2667 253.696 50.4C253.456 50.5333 253.336 50.7267 253.336 50.98C253.336 51.2467 253.456 51.4533 253.696 51.6C253.936 51.7467 254.243 51.8733 254.616 51.98C255.003 52.0867 255.403 52.2067 255.816 52.34C256.243 52.46 256.643 52.6333 257.016 52.86C257.403 53.0733 257.716 53.3667 257.956 53.74C258.196 54.1 258.316 54.5733 258.316 55.16C258.316 56.0933 257.99 56.8333 257.336 57.38C256.683 57.9267 255.796 58.2 254.676 58.2Z" fill="black" fill-opacity="0.7"/>
<path d="M48.3334 41.666H44.1667V66.666C44.1667 67.7711 44.6057 68.8309 45.3871 69.6123C46.1685 70.3937 47.2283 70.8327 48.3334 70.8327H73.3334V66.666H48.3334V41.666Z" fill="#3DF070"/>
<path d="M81.6667 29.166H56.6667C55.5616 29.166 54.5018 29.605 53.7204 30.3864C52.939 31.1678 52.5 32.2276 52.5 33.3327V58.3327C52.5 59.4377 52.939 60.4976 53.7204 61.279C54.5018 62.0604 55.5616 62.4993 56.6667 62.4993H81.6667C82.7717 62.4993 83.8315 62.0604 84.6129 61.279C85.3943 60.4976 85.8333 59.4377 85.8333 58.3327V33.3327C85.8333 32.2276 85.3943 31.1678 84.6129 30.3864C83.8315 29.605 82.7717 29.166 81.6667 29.166ZM62.9167 54.166V37.4993L77.5 45.8327L62.9167 54.166Z" fill="#3DF070"/>
</svg>
