<svg height="512" viewBox="0 0 48 48" width="512" xmlns="http://www.w3.org/2000/svg"><g id="Digital_Marketing" data-name="Digital Marketing"><path d="m46.07 37a.93.93 0 0 1 -.66-1.59.9.9 0 0 0 .28-.65c0-.51-.18-.56-1.79-2.17a.91.91 0 0 0 -1.31 0 .93.93 0 0 1 -1.59-.66.93.93 0 0 0 -.93-.93h-2.14a.93.93 0 0 0 -.93.93.93.93 0 0 1 -1.59.66.91.91 0 0 0 -.65-.28c-.51 0-.56.18-2.17 1.79a.91.91 0 0 0 0 1.31.93.93 0 0 1 -.66 1.59.93.93 0 0 0 -.93.93v2.14a.93.93 0 0 0 .93.93.93.93 0 0 1 .66 1.59.9.9 0 0 0 0 1.31l1.51 1.51a.91.91 0 0 0 1.31 0 .93.93 0 0 1 1.59.66.93.93 0 0 0 .93.93h2.14a.93.93 0 0 0 .93-.93.93.93 0 0 1 .94-.93c.67 0 .65.55 1.3.55s.56-.18 2.17-1.79a.92.92 0 0 0 0-1.31.93.93 0 0 1 .66-1.59.93.93 0 0 0 .93-.93v-2.14a.93.93 0 0 0 -.93-.93zm-8.63-.56a3 3 0 1 1 1.56 5.56 3 3 0 0 1 -1.56-5.56z" fill="#374f68"/><path d="m46.07 37a.93.93 0 0 1 -.66-1.59.9.9 0 0 0 .28-.65c0-.51-.18-.56-1.79-2.17a.91.91 0 0 0 -1.31 0 .93.93 0 0 1 -1.59-.66.93.93 0 0 0 -.93-.93h-2.14a.93.93 0 0 0 -.93.93.93.93 0 0 1 -1.59.66.81.81 0 0 0 -.51-.26c-3.61 6.84 3.91 14.39 10.77 10.77-.06-.54-.53-.53-.53-1.16a.93.93 0 0 1 .93-.94.93.93 0 0 0 .93-.93v-2.14a.93.93 0 0 0 -.93-.93zm-4.51 3.56a3 3 0 1 1 -2.56-4.56 3 3 0 0 1 2.56 4.56z" fill="#425b72"/><rect fill="#db5669" height="12" rx="2" width="16" x="31" y="1"/><path d="m47 3v8h-11a2 2 0 0 1 -2-2v-8h11a2 2 0 0 1 2 2z" fill="#f26674"/><path d="m17 11a2 2 0 0 1 -2 2h-12a2 2 0 0 1 -2-2c0-8.49-.23-8.71.68-9.49l7.32 5.49 7.32-5.49c.91.78.68.87.68 9.49z" fill="#fc6"/><path d="m17 11h-11a2 2 0 0 1 -2-2v-5.75l5 3.75 7.32-5.49c.91.78.68.87.68 9.49z" fill="#ffde76"/><path d="m41.21 7.89-2.76 1.39a1 1 0 0 1 -1.45-.9v-2.76a1 1 0 0 1 1-1c.33 0 .21 0 3.18 1.5a1 1 0 0 1 .03 1.77z" fill="#dad7e5"/><path d="m16.32 1.51-7.32 5.49-7.32-5.49a1.94 1.94 0 0 1 1.32-.51c12.81 0 12.55-.19 13.32.51z" fill="#ffba55"/><path d="m15.19 37.93-4.19 4.24a3 3 0 0 1 -4.24 0l-2.88-2.83a3 3 0 0 1 -.47-3.62c.26-.47.22-.37 4.71-4.86z" fill="#db5669"/><path d="m13.69 36.43-2.69 2.74a3 3 0 0 1 -4.24 0c-3.07-3.07-3.06-3-3.3-3.45.26-.47.22-.37 4.71-4.86z" fill="#f26674"/><path d="m15.19 46.41-4.19-4.24 2.83-2.83c4.57 4.66 4.34 4.36 4.5 4.66a2 2 0 0 1 -3.14 2.41z" fill="#374f68"/><path d="m18.33 44a2 2 0 0 1 -3.14.41l-3.19-3.24 1.83-1.83c4.57 4.66 4.34 4.36 4.5 4.66z" fill="#425b72"/><path d="m28.63 31.56-13.44 6.37-7.07-7.07c1.43-3 .19-.38 6.37-13.44z" fill="#dad7e5"/><path d="m26.59 29.52-9.49 4.48a3 3 0 0 1 -3.4-.59l-4.61-4.59 5.4-11.4z" fill="#edebf2"/><path d="m25.56 24.5a4 4 0 0 1 -1.18 2.82l-5.65-5.65a4 4 0 0 1 6.83 2.83z" fill="#374f68"/><path d="m25.54 24.13a2 2 0 0 1 -2.54-.22l-3.06-3.06a4 4 0 0 1 5.6 3.28z" fill="#425b72"/><g fill="#f26674"><path d="m27.21 19.84a1 1 0 0 1 -.7-1.71l2.12-2.13a1 1 0 0 1 1.37 1.42c-2.26 2.31-2.24 2.42-2.79 2.42z"/><path d="m22 17v-3a1 1 0 0 1 2 0v3a1 1 0 0 1 -2 0z"/><path d="m32 24h-3a1 1 0 0 1 0-2h3a1 1 0 0 1 0 2z"/></g><path d="m41 8a3 3 0 0 1 -3-3.39c.33 0 .21 0 3.18 1.5.56.26 1.05 1.24-.18 1.89z" fill="#edebf2"/><path d="m16.32 1.51-7.32 5.49-5-3.75v-2.25c11.62 0 11.53-.21 12.32.51z" fill="#fc6"/></g></svg>