<svg width="300" height="100" viewBox="0 0 300 100" fill="none" xmlns="http://www.w3.org/2000/svg">
<rect width="300" height="100" rx="16" fill="#CDD9ED"/>
<path d="M130.52 45V31H132.82V45H130.52ZM132.1 39V36.9H139.22V39H132.1ZM132.1 33.1V31H139.56V33.1H132.1ZM145.197 45.2C144.33 45.2 143.544 44.98 142.837 44.54C142.144 44.1 141.59 43.5067 141.177 42.76C140.777 42 140.577 41.1533 140.577 40.22C140.577 39.2733 140.777 38.4267 141.177 37.68C141.59 36.92 142.144 36.32 142.837 35.88C143.544 35.4267 144.33 35.2 145.197 35.2C145.93 35.2 146.577 35.36 147.137 35.68C147.71 35.9867 148.164 36.4133 148.497 36.96C148.83 37.5067 148.997 38.1267 148.997 38.82V41.58C148.997 42.2733 148.83 42.8933 148.497 43.44C148.177 43.9867 147.73 44.42 147.157 44.74C146.584 45.0467 145.93 45.2 145.197 45.2ZM145.557 43.12C146.37 43.12 147.024 42.8467 147.517 42.3C148.024 41.7533 148.277 41.0533 148.277 40.2C148.277 39.6267 148.164 39.12 147.937 38.68C147.71 38.24 147.39 37.9 146.977 37.66C146.577 37.4067 146.104 37.28 145.557 37.28C145.024 37.28 144.55 37.4067 144.137 37.66C143.737 37.9 143.417 38.24 143.177 38.68C142.95 39.12 142.837 39.6267 142.837 40.2C142.837 40.7733 142.95 41.28 143.177 41.72C143.417 42.16 143.737 42.5067 144.137 42.76C144.55 43 145.024 43.12 145.557 43.12ZM148.137 45V42.42L148.517 40.08L148.137 37.76V35.4H150.337V45H148.137ZM157.199 45.2C156.252 45.2 155.392 44.98 154.619 44.54C153.859 44.1 153.259 43.5 152.819 42.74C152.379 41.98 152.159 41.1333 152.159 40.2C152.159 39.2533 152.379 38.4067 152.819 37.66C153.259 36.9 153.859 36.3 154.619 35.86C155.392 35.42 156.252 35.2 157.199 35.2C157.945 35.2 158.639 35.3467 159.279 35.64C159.932 35.92 160.485 36.3267 160.939 36.86L159.499 38.32C159.219 37.9867 158.879 37.74 158.479 37.58C158.092 37.4067 157.665 37.32 157.199 37.32C156.652 37.32 156.165 37.4467 155.739 37.7C155.325 37.94 154.999 38.2733 154.759 38.7C154.532 39.1267 154.419 39.6267 154.419 40.2C154.419 40.76 154.532 41.26 154.759 41.7C154.999 42.1267 155.325 42.4667 155.739 42.72C156.165 42.96 156.652 43.08 157.199 43.08C157.665 43.08 158.092 43 158.479 42.84C158.879 42.6667 159.219 42.4133 159.499 42.08L160.939 43.54C160.485 44.0733 159.932 44.4867 159.279 44.78C158.639 45.06 157.945 45.2 157.199 45.2ZM166.789 45.2C165.829 45.2 164.963 44.9867 164.189 44.56C163.429 44.12 162.823 43.52 162.369 42.76C161.929 42 161.709 41.1467 161.709 40.2C161.709 39.2533 161.929 38.4067 162.369 37.66C162.809 36.9 163.403 36.3 164.149 35.86C164.909 35.42 165.749 35.2 166.669 35.2C167.563 35.2 168.349 35.4067 169.029 35.82C169.723 36.2333 170.263 36.8 170.649 37.52C171.049 38.24 171.249 39.06 171.249 39.98C171.249 40.14 171.236 40.3067 171.209 40.48C171.196 40.64 171.169 40.82 171.129 41.02H163.249V39.22H169.989L169.169 39.94C169.143 39.3533 169.029 38.86 168.829 38.46C168.629 38.06 168.343 37.7533 167.969 37.54C167.609 37.3267 167.163 37.22 166.629 37.22C166.069 37.22 165.583 37.34 165.169 37.58C164.756 37.82 164.436 38.16 164.209 38.6C163.983 39.0267 163.869 39.54 163.869 40.14C163.869 40.74 163.989 41.2667 164.229 41.72C164.469 42.1733 164.809 42.5267 165.249 42.78C165.689 43.02 166.196 43.14 166.769 43.14C167.263 43.14 167.716 43.0533 168.129 42.88C168.556 42.7067 168.916 42.4533 169.209 42.12L170.609 43.54C170.143 44.0867 169.576 44.5 168.909 44.78C168.243 45.06 167.536 45.2 166.789 45.2ZM178.153 45.2C177.42 45.2 176.766 45.0467 176.193 44.74C175.62 44.42 175.166 43.9867 174.833 43.44C174.513 42.8933 174.353 42.2733 174.353 41.58V38.82C174.353 38.1267 174.52 37.5067 174.853 36.96C175.186 36.4133 175.64 35.9867 176.213 35.68C176.786 35.36 177.433 35.2 178.153 35.2C179.02 35.2 179.8 35.4267 180.493 35.88C181.2 36.32 181.753 36.92 182.153 37.68C182.566 38.4267 182.773 39.2733 182.773 40.22C182.773 41.1533 182.566 42 182.153 42.76C181.753 43.5067 181.2 44.1 180.493 44.54C179.8 44.98 179.02 45.2 178.153 45.2ZM177.793 43.12C178.326 43.12 178.793 43 179.193 42.76C179.606 42.5067 179.926 42.16 180.153 41.72C180.393 41.28 180.513 40.7733 180.513 40.2C180.513 39.6267 180.393 39.12 180.153 38.68C179.926 38.24 179.606 37.9 179.193 37.66C178.793 37.4067 178.326 37.28 177.793 37.28C177.26 37.28 176.786 37.4067 176.373 37.66C175.96 37.9 175.64 38.24 175.413 38.68C175.186 39.12 175.073 39.6267 175.073 40.2C175.073 40.7733 175.186 41.28 175.413 41.72C175.64 42.16 175.96 42.5067 176.373 42.76C176.786 43 177.26 43.12 177.793 43.12ZM173.013 45V30.6H175.213V37.76L174.833 40.08L175.213 42.42V45H173.013ZM189.015 45.2C188.081 45.2 187.235 44.98 186.475 44.54C185.715 44.0867 185.108 43.48 184.655 42.72C184.215 41.96 183.995 41.1133 183.995 40.18C183.995 39.2467 184.215 38.4067 184.655 37.66C185.108 36.9133 185.715 36.32 186.475 35.88C187.235 35.4267 188.081 35.2 189.015 35.2C189.961 35.2 190.815 35.42 191.575 35.86C192.335 36.3 192.935 36.9 193.375 37.66C193.828 38.4067 194.055 39.2467 194.055 40.18C194.055 41.1133 193.828 41.96 193.375 42.72C192.935 43.48 192.335 44.0867 191.575 44.54C190.815 44.98 189.961 45.2 189.015 45.2ZM189.015 43.08C189.561 43.08 190.041 42.96 190.455 42.72C190.881 42.4667 191.208 42.12 191.435 41.68C191.675 41.24 191.795 40.74 191.795 40.18C191.795 39.62 191.675 39.1267 191.435 38.7C191.195 38.2733 190.868 37.94 190.455 37.7C190.041 37.4467 189.561 37.32 189.015 37.32C188.481 37.32 188.001 37.4467 187.575 37.7C187.161 37.94 186.835 38.2733 186.595 38.7C186.368 39.1267 186.255 39.62 186.255 40.18C186.255 40.74 186.368 41.24 186.595 41.68C186.835 42.12 187.161 42.4667 187.575 42.72C188.001 42.96 188.481 43.08 189.015 43.08ZM200.284 45.2C199.351 45.2 198.504 44.98 197.744 44.54C196.984 44.0867 196.377 43.48 195.924 42.72C195.484 41.96 195.264 41.1133 195.264 40.18C195.264 39.2467 195.484 38.4067 195.924 37.66C196.377 36.9133 196.984 36.32 197.744 35.88C198.504 35.4267 199.351 35.2 200.284 35.2C201.231 35.2 202.084 35.42 202.844 35.86C203.604 36.3 204.204 36.9 204.644 37.66C205.097 38.4067 205.324 39.2467 205.324 40.18C205.324 41.1133 205.097 41.96 204.644 42.72C204.204 43.48 203.604 44.0867 202.844 44.54C202.084 44.98 201.231 45.2 200.284 45.2ZM200.284 43.08C200.831 43.08 201.311 42.96 201.724 42.72C202.151 42.4667 202.477 42.12 202.704 41.68C202.944 41.24 203.064 40.74 203.064 40.18C203.064 39.62 202.944 39.1267 202.704 38.7C202.464 38.2733 202.137 37.94 201.724 37.7C201.311 37.4467 200.831 37.32 200.284 37.32C199.751 37.32 199.271 37.4467 198.844 37.7C198.431 37.94 198.104 38.2733 197.864 38.7C197.637 39.1267 197.524 39.62 197.524 40.18C197.524 40.74 197.637 41.24 197.864 41.68C198.104 42.12 198.431 42.4667 198.844 42.72C199.271 42.96 199.751 43.08 200.284 43.08ZM213.254 45L209.194 40.1L213.234 35.4H215.854L211.214 40.68L211.314 39.42L216.054 45H213.254ZM207.154 45V30.6H209.354V45H207.154ZM132.1 64.72V62.72H135.6C136.08 62.72 136.5 62.6267 136.86 62.44C137.233 62.24 137.527 61.9667 137.74 61.62C137.953 61.26 138.06 60.84 138.06 60.36C138.06 59.88 137.953 59.4667 137.74 59.12C137.527 58.76 137.233 58.4867 136.86 58.3C136.5 58.1 136.08 58 135.6 58H132.1V56H135.72C136.6 56 137.387 56.18 138.08 56.54C138.787 56.9 139.34 57.4067 139.74 58.06C140.153 58.7133 140.36 59.48 140.36 60.36C140.36 61.24 140.153 62.0067 139.74 62.66C139.34 63.3133 138.787 63.82 138.08 64.18C137.387 64.54 136.6 64.72 135.72 64.72H132.1ZM130.52 70V56H132.82V70H130.52ZM142.29 70V60.4H144.49V70H142.29ZM144.49 64.66L143.73 64.28C143.73 63.0667 143.997 62.0867 144.53 61.34C145.077 60.58 145.897 60.2 146.99 60.2C147.47 60.2 147.904 60.2867 148.29 60.46C148.677 60.6333 149.037 60.9133 149.37 61.3L147.93 62.78C147.757 62.5933 147.564 62.46 147.35 62.38C147.137 62.3 146.89 62.26 146.61 62.26C145.997 62.26 145.49 62.4533 145.09 62.84C144.69 63.2267 144.49 63.8333 144.49 64.66ZM154.542 70.2C153.609 70.2 152.762 69.98 152.002 69.54C151.242 69.0867 150.635 68.48 150.182 67.72C149.742 66.96 149.522 66.1133 149.522 65.18C149.522 64.2467 149.742 63.4067 150.182 62.66C150.635 61.9133 151.242 61.32 152.002 60.88C152.762 60.4267 153.609 60.2 154.542 60.2C155.489 60.2 156.342 60.42 157.102 60.86C157.862 61.3 158.462 61.9 158.902 62.66C159.355 63.4067 159.582 64.2467 159.582 65.18C159.582 66.1133 159.355 66.96 158.902 67.72C158.462 68.48 157.862 69.0867 157.102 69.54C156.342 69.98 155.489 70.2 154.542 70.2ZM154.542 68.08C155.089 68.08 155.569 67.96 155.982 67.72C156.409 67.4667 156.735 67.12 156.962 66.68C157.202 66.24 157.322 65.74 157.322 65.18C157.322 64.62 157.202 64.1267 156.962 63.7C156.722 63.2733 156.395 62.94 155.982 62.7C155.569 62.4467 155.089 62.32 154.542 62.32C154.009 62.32 153.529 62.4467 153.102 62.7C152.689 62.94 152.362 63.2733 152.122 63.7C151.895 64.1267 151.782 64.62 151.782 65.18C151.782 65.74 151.895 66.24 152.122 66.68C152.362 67.12 152.689 67.4667 153.102 67.72C153.529 67.96 154.009 68.08 154.542 68.08ZM161.411 70V60.4H163.611V70H161.411ZM167.791 70V64.28C167.791 63.64 167.591 63.1467 167.191 62.8C166.791 62.44 166.298 62.26 165.711 62.26C165.311 62.26 164.951 62.34 164.631 62.5C164.325 62.66 164.078 62.8933 163.891 63.2C163.705 63.4933 163.611 63.8533 163.611 64.28L162.751 63.8C162.751 63.0667 162.911 62.4333 163.231 61.9C163.551 61.3667 163.985 60.9533 164.531 60.66C165.078 60.3533 165.691 60.2 166.371 60.2C167.051 60.2 167.665 60.3467 168.211 60.64C168.758 60.9333 169.191 61.3467 169.511 61.88C169.831 62.4133 169.991 63.0533 169.991 63.8V70H167.791ZM174.171 70V64.28C174.171 63.64 173.971 63.1467 173.571 62.8C173.171 62.44 172.678 62.26 172.091 62.26C171.705 62.26 171.351 62.34 171.031 62.5C170.711 62.66 170.458 62.8933 170.271 63.2C170.085 63.4933 169.991 63.8533 169.991 64.28L168.751 63.8C168.818 63.0667 169.031 62.4333 169.391 61.9C169.751 61.3667 170.211 60.9533 170.771 60.66C171.345 60.3533 171.971 60.2 172.651 60.2C173.345 60.2 173.971 60.3467 174.531 60.64C175.091 60.9333 175.538 61.3467 175.871 61.88C176.205 62.4133 176.371 63.0533 176.371 63.8V70H174.171ZM183.038 70.2C182.105 70.2 181.258 69.98 180.498 69.54C179.738 69.0867 179.131 68.48 178.678 67.72C178.238 66.96 178.018 66.1133 178.018 65.18C178.018 64.2467 178.238 63.4067 178.678 62.66C179.131 61.9133 179.738 61.32 180.498 60.88C181.258 60.4267 182.105 60.2 183.038 60.2C183.985 60.2 184.838 60.42 185.598 60.86C186.358 61.3 186.958 61.9 187.398 62.66C187.851 63.4067 188.078 64.2467 188.078 65.18C188.078 66.1133 187.851 66.96 187.398 67.72C186.958 68.48 186.358 69.0867 185.598 69.54C184.838 69.98 183.985 70.2 183.038 70.2ZM183.038 68.08C183.585 68.08 184.065 67.96 184.478 67.72C184.905 67.4667 185.231 67.12 185.458 66.68C185.698 66.24 185.818 65.74 185.818 65.18C185.818 64.62 185.698 64.1267 185.458 63.7C185.218 63.2733 184.891 62.94 184.478 62.7C184.065 62.4467 183.585 62.32 183.038 62.32C182.505 62.32 182.025 62.4467 181.598 62.7C181.185 62.94 180.858 63.2733 180.618 63.7C180.391 64.1267 180.278 64.62 180.278 65.18C180.278 65.74 180.391 66.24 180.618 66.68C180.858 67.12 181.185 67.4667 181.598 67.72C182.025 67.96 182.505 68.08 183.038 68.08ZM191.094 70V56.4H193.294V70H191.094ZM188.794 62.4V60.4H195.594V62.4H188.794ZM197.213 70V60.4H199.413V70H197.213ZM198.313 58.64C197.939 58.64 197.626 58.5133 197.373 58.26C197.133 58.0067 197.013 57.6933 197.013 57.32C197.013 56.9467 197.133 56.6333 197.373 56.38C197.626 56.1267 197.939 56 198.313 56C198.699 56 199.013 56.1267 199.253 56.38C199.493 56.6333 199.613 56.9467 199.613 57.32C199.613 57.6933 199.493 58.0067 199.253 58.26C199.013 58.5133 198.699 58.64 198.313 58.64ZM206.28 70.2C205.347 70.2 204.5 69.98 203.74 69.54C202.98 69.0867 202.373 68.48 201.92 67.72C201.48 66.96 201.26 66.1133 201.26 65.18C201.26 64.2467 201.48 63.4067 201.92 62.66C202.373 61.9133 202.98 61.32 203.74 60.88C204.5 60.4267 205.347 60.2 206.28 60.2C207.227 60.2 208.08 60.42 208.84 60.86C209.6 61.3 210.2 61.9 210.64 62.66C211.093 63.4067 211.32 64.2467 211.32 65.18C211.32 66.1133 211.093 66.96 210.64 67.72C210.2 68.48 209.6 69.0867 208.84 69.54C208.08 69.98 207.227 70.2 206.28 70.2ZM206.28 68.08C206.827 68.08 207.307 67.96 207.72 67.72C208.147 67.4667 208.473 67.12 208.7 66.68C208.94 66.24 209.06 65.74 209.06 65.18C209.06 64.62 208.94 64.1267 208.7 63.7C208.46 63.2733 208.133 62.94 207.72 62.7C207.307 62.4467 206.827 62.32 206.28 62.32C205.747 62.32 205.267 62.4467 204.84 62.7C204.427 62.94 204.1 63.2733 203.86 63.7C203.633 64.1267 203.52 64.62 203.52 65.18C203.52 65.74 203.633 66.24 203.86 66.68C204.1 67.12 204.427 67.4667 204.84 67.72C205.267 67.96 205.747 68.08 206.28 68.08ZM219.73 70V64.46C219.73 63.82 219.523 63.2933 219.11 62.88C218.71 62.4667 218.19 62.26 217.55 62.26C217.123 62.26 216.743 62.3533 216.41 62.54C216.076 62.7267 215.816 62.9867 215.63 63.32C215.443 63.6533 215.35 64.0333 215.35 64.46L214.49 63.98C214.49 63.2467 214.65 62.6 214.97 62.04C215.29 61.4667 215.73 61.02 216.29 60.7C216.863 60.3667 217.503 60.2 218.21 60.2C218.93 60.2 219.57 60.3867 220.13 60.76C220.69 61.12 221.13 61.5933 221.45 62.18C221.77 62.7533 221.93 63.3533 221.93 63.98V70H219.73ZM213.15 70V60.4H215.35V70H213.15ZM227.305 70.2C226.772 70.2 226.259 70.1333 225.765 70C225.272 69.8533 224.819 69.6533 224.405 69.4C223.992 69.1333 223.632 68.8133 223.325 68.44L224.725 67.04C225.059 67.4267 225.439 67.72 225.865 67.92C226.305 68.1067 226.799 68.2 227.345 68.2C227.839 68.2 228.212 68.1267 228.465 67.98C228.719 67.8333 228.845 67.62 228.845 67.34C228.845 67.0467 228.725 66.82 228.485 66.66C228.245 66.5 227.932 66.3667 227.545 66.26C227.172 66.14 226.772 66.02 226.345 65.9C225.932 65.78 225.532 65.62 225.145 65.42C224.772 65.2067 224.465 64.92 224.225 64.56C223.985 64.2 223.865 63.7333 223.865 63.16C223.865 62.5467 224.005 62.02 224.285 61.58C224.579 61.14 224.985 60.8 225.505 60.56C226.039 60.32 226.672 60.2 227.405 60.2C228.179 60.2 228.859 60.34 229.445 60.62C230.045 60.8867 230.545 61.2933 230.945 61.84L229.545 63.24C229.265 62.8933 228.945 62.6333 228.585 62.46C228.225 62.2867 227.812 62.2 227.345 62.2C226.905 62.2 226.565 62.2667 226.325 62.4C226.085 62.5333 225.965 62.7267 225.965 62.98C225.965 63.2467 226.085 63.4533 226.325 63.6C226.565 63.7467 226.872 63.8733 227.245 63.98C227.632 64.0867 228.032 64.2067 228.445 64.34C228.872 64.46 229.272 64.6333 229.645 64.86C230.032 65.0733 230.345 65.3667 230.585 65.74C230.825 66.1 230.945 66.5733 230.945 67.16C230.945 68.0933 230.619 68.8333 229.965 69.38C229.312 69.9267 228.425 70.2 227.305 70.2Z" fill="black" fill-opacity="0.7"/>
<path d="M90.8229 70.833V51.8267H97.2021L98.1583 44.4205H90.825V39.6913C90.825 37.5455 91.4188 36.0851 94.4938 36.0851L98.4167 36.083V29.458C96.5185 29.2571 94.6108 29.1597 92.7021 29.1663C87.0458 29.1663 83.175 32.6184 83.175 38.958V44.4205H76.7792V51.8267H83.175V70.833H90.8229V70.833Z" fill="#1363E8"/>
</svg>
