<svg width="300" height="100" viewBox="0 0 300 100" fill="none" xmlns="http://www.w3.org/2000/svg">
<rect width="300" height="100" rx="16" fill="#EDF1F1"/>
<path d="M114.84 58.2C113.88 58.2 112.973 58.0133 112.12 57.64C111.267 57.2667 110.52 56.7533 109.88 56.1C109.24 55.4333 108.733 54.6667 108.36 53.8C108 52.92 107.82 51.98 107.82 50.98C107.82 49.98 108 49.0467 108.36 48.18C108.733 47.3133 109.24 46.5533 109.88 45.9C110.533 45.2333 111.293 44.72 112.16 44.36C113.04 43.9867 113.987 43.8 115 43.8C116.107 43.8 117.133 44.0133 118.08 44.44C119.027 44.8667 119.82 45.4733 120.46 46.26L118.9 47.82C118.487 47.2333 117.933 46.7867 117.24 46.48C116.547 46.16 115.8 46 115 46C114.04 46 113.193 46.2133 112.46 46.64C111.74 47.0533 111.18 47.6333 110.78 48.38C110.38 49.1267 110.18 49.9933 110.18 50.98C110.18 51.9667 110.38 52.84 110.78 53.6C111.193 54.3467 111.747 54.9333 112.44 55.36C113.133 55.7867 113.92 56 114.8 56C115.733 56 116.533 55.8333 117.2 55.5C117.88 55.1533 118.4 54.6467 118.76 53.98C119.12 53.3 119.3 52.4667 119.3 51.48L120.74 52.52H114.76V50.42H121.68V50.74C121.68 52.4067 121.38 53.7933 120.78 54.9C120.193 56.0067 119.387 56.8333 118.36 57.38C117.333 57.9267 116.16 58.2 114.84 58.2ZM128.069 58.2C127.136 58.2 126.289 57.98 125.529 57.54C124.769 57.0867 124.163 56.48 123.709 55.72C123.269 54.96 123.049 54.1133 123.049 53.18C123.049 52.2467 123.269 51.4067 123.709 50.66C124.163 49.9133 124.769 49.32 125.529 48.88C126.289 48.4267 127.136 48.2 128.069 48.2C129.016 48.2 129.869 48.42 130.629 48.86C131.389 49.3 131.989 49.9 132.429 50.66C132.883 51.4067 133.109 52.2467 133.109 53.18C133.109 54.1133 132.883 54.96 132.429 55.72C131.989 56.48 131.389 57.0867 130.629 57.54C129.869 57.98 129.016 58.2 128.069 58.2ZM128.069 56.08C128.616 56.08 129.096 55.96 129.509 55.72C129.936 55.4667 130.263 55.12 130.489 54.68C130.729 54.24 130.849 53.74 130.849 53.18C130.849 52.62 130.729 52.1267 130.489 51.7C130.249 51.2733 129.923 50.94 129.509 50.7C129.096 50.4467 128.616 50.32 128.069 50.32C127.536 50.32 127.056 50.4467 126.629 50.7C126.216 50.94 125.889 51.2733 125.649 51.7C125.423 52.1267 125.309 52.62 125.309 53.18C125.309 53.74 125.423 54.24 125.649 54.68C125.889 55.12 126.216 55.4667 126.629 55.72C127.056 55.96 127.536 56.08 128.069 56.08ZM139.339 58.2C138.405 58.2 137.559 57.98 136.799 57.54C136.039 57.0867 135.432 56.48 134.979 55.72C134.539 54.96 134.319 54.1133 134.319 53.18C134.319 52.2467 134.539 51.4067 134.979 50.66C135.432 49.9133 136.039 49.32 136.799 48.88C137.559 48.4267 138.405 48.2 139.339 48.2C140.285 48.2 141.139 48.42 141.899 48.86C142.659 49.3 143.259 49.9 143.699 50.66C144.152 51.4067 144.379 52.2467 144.379 53.18C144.379 54.1133 144.152 54.96 143.699 55.72C143.259 56.48 142.659 57.0867 141.899 57.54C141.139 57.98 140.285 58.2 139.339 58.2ZM139.339 56.08C139.885 56.08 140.365 55.96 140.779 55.72C141.205 55.4667 141.532 55.12 141.759 54.68C141.999 54.24 142.119 53.74 142.119 53.18C142.119 52.62 141.999 52.1267 141.759 51.7C141.519 51.2733 141.192 50.94 140.779 50.7C140.365 50.4467 139.885 50.32 139.339 50.32C138.805 50.32 138.325 50.4467 137.899 50.7C137.485 50.94 137.159 51.2733 136.919 51.7C136.692 52.1267 136.579 52.62 136.579 53.18C136.579 53.74 136.692 54.24 136.919 54.68C137.159 55.12 137.485 55.4667 137.899 55.72C138.325 55.96 138.805 56.08 139.339 56.08ZM150.208 62.2C149.195 62.2 148.308 62.0133 147.548 61.64C146.788 61.28 146.175 60.7667 145.708 60.1L147.148 58.66C147.535 59.14 147.975 59.5 148.468 59.74C148.962 59.98 149.555 60.1 150.248 60.1C151.115 60.1 151.802 59.8733 152.308 59.42C152.815 58.98 153.068 58.3733 153.068 57.6V55.24L153.448 53.12L153.068 50.98V48.4H155.268V57.6C155.268 58.52 155.055 59.32 154.628 60C154.202 60.6933 153.608 61.2333 152.848 61.62C152.088 62.0067 151.208 62.2 150.208 62.2ZM150.108 57.8C149.255 57.8 148.482 57.5933 147.788 57.18C147.108 56.7533 146.568 56.1733 146.168 55.44C145.782 54.7067 145.588 53.8867 145.588 52.98C145.588 52.0733 145.782 51.26 146.168 50.54C146.568 49.82 147.108 49.2533 147.788 48.84C148.482 48.4133 149.255 48.2 150.108 48.2C150.868 48.2 151.535 48.3533 152.108 48.66C152.682 48.9667 153.128 49.3933 153.448 49.94C153.768 50.4733 153.928 51.1 153.928 51.82V54.18C153.928 54.8867 153.762 55.5133 153.428 56.06C153.108 56.6067 152.662 57.0333 152.088 57.34C151.515 57.6467 150.855 57.8 150.108 57.8ZM150.548 55.72C151.082 55.72 151.548 55.6067 151.948 55.38C152.348 55.1533 152.655 54.84 152.868 54.44C153.095 54.0267 153.208 53.5467 153.208 53C153.208 52.4533 153.095 51.98 152.868 51.58C152.655 51.1667 152.348 50.8467 151.948 50.62C151.548 50.3933 151.082 50.28 150.548 50.28C150.015 50.28 149.542 50.3933 149.128 50.62C148.728 50.8467 148.415 51.1667 148.188 51.58C147.962 51.98 147.848 52.4533 147.848 53C147.848 53.5333 147.962 54.0067 148.188 54.42C148.415 54.8333 148.728 55.1533 149.128 55.38C149.542 55.6067 150.015 55.72 150.548 55.72ZM157.712 58V43.6H159.912V58H157.712ZM166.821 58.2C165.861 58.2 164.994 57.9867 164.221 57.56C163.461 57.12 162.854 56.52 162.401 55.76C161.961 55 161.741 54.1467 161.741 53.2C161.741 52.2533 161.961 51.4067 162.401 50.66C162.841 49.9 163.434 49.3 164.181 48.86C164.941 48.42 165.781 48.2 166.701 48.2C167.594 48.2 168.381 48.4067 169.061 48.82C169.754 49.2333 170.294 49.8 170.681 50.52C171.081 51.24 171.281 52.06 171.281 52.98C171.281 53.14 171.267 53.3067 171.241 53.48C171.227 53.64 171.201 53.82 171.161 54.02H163.281V52.22H170.021L169.201 52.94C169.174 52.3533 169.061 51.86 168.861 51.46C168.661 51.06 168.374 50.7533 168.001 50.54C167.641 50.3267 167.194 50.22 166.661 50.22C166.101 50.22 165.614 50.34 165.201 50.58C164.787 50.82 164.467 51.16 164.241 51.6C164.014 52.0267 163.901 52.54 163.901 53.14C163.901 53.74 164.021 54.2667 164.261 54.72C164.501 55.1733 164.841 55.5267 165.281 55.78C165.721 56.02 166.227 56.14 166.801 56.14C167.294 56.14 167.747 56.0533 168.161 55.88C168.587 55.7067 168.947 55.4533 169.241 55.12L170.641 56.54C170.174 57.0867 169.607 57.5 168.941 57.78C168.274 58.06 167.567 58.2 166.821 58.2ZM175.742 58L181.502 44H183.102L188.822 58H186.342L181.862 46.66H182.702L178.182 58H175.742ZM178.582 55.3V53.3H186.002V55.3H178.582ZM193.978 58.2C193.112 58.2 192.325 57.98 191.618 57.54C190.925 57.1 190.372 56.5067 189.958 55.76C189.558 55 189.358 54.1533 189.358 53.22C189.358 52.2733 189.558 51.4267 189.958 50.68C190.372 49.92 190.925 49.32 191.618 48.88C192.325 48.4267 193.112 48.2 193.978 48.2C194.712 48.2 195.358 48.36 195.918 48.68C196.492 48.9867 196.945 49.4133 197.278 49.96C197.612 50.5067 197.778 51.1267 197.778 51.82V54.58C197.778 55.2733 197.612 55.8933 197.278 56.44C196.958 56.9867 196.512 57.42 195.938 57.74C195.365 58.0467 194.712 58.2 193.978 58.2ZM194.338 56.12C194.885 56.12 195.358 56 195.758 55.76C196.172 55.5067 196.492 55.16 196.718 54.72C196.945 54.28 197.058 53.7733 197.058 53.2C197.058 52.6267 196.945 52.12 196.718 51.68C196.492 51.24 196.172 50.9 195.758 50.66C195.358 50.4067 194.885 50.28 194.338 50.28C193.805 50.28 193.332 50.4067 192.918 50.66C192.518 50.9 192.198 51.24 191.958 51.68C191.732 52.12 191.618 52.6267 191.618 53.2C191.618 53.7733 191.732 54.28 191.958 54.72C192.198 55.16 192.518 55.5067 192.918 55.76C193.332 56 193.805 56.12 194.338 56.12ZM199.118 58H196.918V55.42L197.298 53.08L196.918 50.76V43.6H199.118V58ZM205.46 58L200.86 44H203.12L206.58 54.78H205.98L209.36 44H210.96L214.34 54.78H213.74L217.2 44H219.46L214.86 58H213.26L209.86 47.24H210.46L207.06 58H205.46ZM224.202 58.2C223.269 58.2 222.422 57.98 221.662 57.54C220.902 57.0867 220.295 56.48 219.842 55.72C219.402 54.96 219.182 54.1133 219.182 53.18C219.182 52.2467 219.402 51.4067 219.842 50.66C220.295 49.9133 220.902 49.32 221.662 48.88C222.422 48.4267 223.269 48.2 224.202 48.2C225.149 48.2 226.002 48.42 226.762 48.86C227.522 49.3 228.122 49.9 228.562 50.66C229.015 51.4067 229.242 52.2467 229.242 53.18C229.242 54.1133 229.015 54.96 228.562 55.72C228.122 56.48 227.522 57.0867 226.762 57.54C226.002 57.98 225.149 58.2 224.202 58.2ZM224.202 56.08C224.749 56.08 225.229 55.96 225.642 55.72C226.069 55.4667 226.395 55.12 226.622 54.68C226.862 54.24 226.982 53.74 226.982 53.18C226.982 52.62 226.862 52.1267 226.622 51.7C226.382 51.2733 226.055 50.94 225.642 50.7C225.229 50.4467 224.749 50.32 224.202 50.32C223.669 50.32 223.189 50.4467 222.762 50.7C222.349 50.94 222.022 51.2733 221.782 51.7C221.555 52.1267 221.442 52.62 221.442 53.18C221.442 53.74 221.555 54.24 221.782 54.68C222.022 55.12 222.349 55.4667 222.762 55.72C223.189 55.96 223.669 56.08 224.202 56.08ZM231.072 58V48.4H233.272V58H231.072ZM233.272 52.66L232.512 52.28C232.512 51.0667 232.778 50.0867 233.312 49.34C233.858 48.58 234.678 48.2 235.772 48.2C236.252 48.2 236.685 48.2867 237.072 48.46C237.458 48.6333 237.818 48.9133 238.152 49.3L236.712 50.78C236.538 50.5933 236.345 50.46 236.132 50.38C235.918 50.3 235.672 50.26 235.392 50.26C234.778 50.26 234.272 50.4533 233.872 50.84C233.472 51.2267 233.272 51.8333 233.272 52.66ZM242.943 58.2C242.076 58.2 241.29 57.98 240.583 57.54C239.89 57.1 239.336 56.5067 238.923 55.76C238.523 55 238.323 54.1533 238.323 53.22C238.323 52.2733 238.523 51.4267 238.923 50.68C239.336 49.92 239.89 49.32 240.583 48.88C241.29 48.4267 242.076 48.2 242.943 48.2C243.676 48.2 244.323 48.36 244.883 48.68C245.456 48.9867 245.91 49.4133 246.243 49.96C246.576 50.5067 246.743 51.1267 246.743 51.82V54.58C246.743 55.2733 246.576 55.8933 246.243 56.44C245.923 56.9867 245.476 57.42 244.903 57.74C244.33 58.0467 243.676 58.2 242.943 58.2ZM243.303 56.12C243.85 56.12 244.323 56 244.723 55.76C245.136 55.5067 245.456 55.16 245.683 54.72C245.91 54.28 246.023 53.7733 246.023 53.2C246.023 52.6267 245.91 52.12 245.683 51.68C245.456 51.24 245.136 50.9 244.723 50.66C244.323 50.4067 243.85 50.28 243.303 50.28C242.77 50.28 242.296 50.4067 241.883 50.66C241.483 50.9 241.163 51.24 240.923 51.68C240.696 52.12 240.583 52.6267 240.583 53.2C240.583 53.7733 240.696 54.28 240.923 54.72C241.163 55.16 241.483 55.5067 241.883 55.76C242.296 56 242.77 56.12 243.303 56.12ZM248.083 58H245.883V55.42L246.263 53.08L245.883 50.76V43.6H248.083V58ZM253.665 58.2C253.131 58.2 252.618 58.1333 252.125 58C251.631 57.8533 251.178 57.6533 250.765 57.4C250.351 57.1333 249.991 56.8133 249.685 56.44L251.085 55.04C251.418 55.4267 251.798 55.72 252.225 55.92C252.665 56.1067 253.158 56.2 253.705 56.2C254.198 56.2 254.571 56.1267 254.825 55.98C255.078 55.8333 255.205 55.62 255.205 55.34C255.205 55.0467 255.085 54.82 254.845 54.66C254.605 54.5 254.291 54.3667 253.905 54.26C253.531 54.14 253.131 54.02 252.705 53.9C252.291 53.78 251.891 53.62 251.505 53.42C251.131 53.2067 250.825 52.92 250.585 52.56C250.345 52.2 250.225 51.7333 250.225 51.16C250.225 50.5467 250.365 50.02 250.645 49.58C250.938 49.14 251.345 48.8 251.865 48.56C252.398 48.32 253.031 48.2 253.765 48.2C254.538 48.2 255.218 48.34 255.805 48.62C256.405 48.8867 256.905 49.2933 257.305 49.84L255.905 51.24C255.625 50.8933 255.305 50.6333 254.945 50.46C254.585 50.2867 254.171 50.2 253.705 50.2C253.265 50.2 252.925 50.2667 252.685 50.4C252.445 50.5333 252.325 50.7267 252.325 50.98C252.325 51.2467 252.445 51.4533 252.685 51.6C252.925 51.7467 253.231 51.8733 253.605 51.98C253.991 52.0867 254.391 52.2067 254.805 52.34C255.231 52.46 255.631 52.6333 256.005 52.86C256.391 53.0733 256.705 53.3667 256.945 53.74C257.185 54.1 257.305 54.5733 257.305 55.16C257.305 56.0933 256.978 56.8333 256.325 57.38C255.671 57.9267 254.785 58.2 253.665 58.2Z" fill="black" fill-opacity="0.7"/>
<path d="M66.5208 28.0615C65.0625 27.9574 63.5416 28.2907 62.1875 29.0824C61.3176 29.5804 60.5546 30.2453 59.9422 31.0389C59.3298 31.8325 58.88 32.7391 58.6187 33.7068C58.3575 34.6746 58.2898 35.6844 58.4195 36.6783C58.5493 37.6723 58.874 38.6308 59.375 39.499L74.6666 65.9574C76.7708 69.624 81.4375 70.8324 85.1041 68.749C88.75 66.6657 89.9583 61.9782 87.875 58.3324L72.625 31.874C71.9951 30.7893 71.1097 29.875 70.0459 29.2105C68.982 28.546 67.7719 28.1516 66.5208 28.0615M55.2083 39.0824L44.125 58.3324C43.4496 59.4899 43.0904 60.8047 43.0833 62.1449C43.0833 63.1489 43.2811 64.1432 43.6653 65.0708C44.0496 65.9984 44.6127 66.8413 45.3227 67.5513C46.0327 68.2613 46.8756 68.8245 47.8032 69.2087C48.7308 69.5929 49.7251 69.7907 50.7291 69.7907C52.0694 69.7866 53.3849 69.4303 54.544 68.7575C55.7031 68.0847 56.665 67.1191 57.3333 65.9574V65.9782L63.9166 54.5615C61.1041 49.7699 58.2291 44.999 55.6458 40.0615C55.4791 39.749 55.3333 39.4157 55.2291 39.0824H55.2083ZM55.2083 39.0824L75.1666 35.4157L55.2083 39.0824Z" fill="#A7AAAA"/>
</svg>
