<svg width="300" height="100" viewBox="0 0 300 100" fill="none" xmlns="http://www.w3.org/2000/svg">
<rect width="300" height="100" rx="16" fill="#A1C0F2"/>
<path d="M114.84 58.2C113.88 58.2 112.973 58.0133 112.12 57.64C111.267 57.2667 110.52 56.7533 109.88 56.1C109.24 55.4333 108.733 54.6667 108.36 53.8C108 52.92 107.82 51.98 107.82 50.98C107.82 49.98 108 49.0467 108.36 48.18C108.733 47.3133 109.24 46.5533 109.88 45.9C110.533 45.2333 111.293 44.72 112.16 44.36C113.04 43.9867 113.987 43.8 115 43.8C116.107 43.8 117.133 44.0133 118.08 44.44C119.027 44.8667 119.82 45.4733 120.46 46.26L118.9 47.82C118.487 47.2333 117.933 46.7867 117.24 46.48C116.547 46.16 115.8 46 115 46C114.04 46 113.193 46.2133 112.46 46.64C111.74 47.0533 111.18 47.6333 110.78 48.38C110.38 49.1267 110.18 49.9933 110.18 50.98C110.18 51.9667 110.38 52.84 110.78 53.6C111.193 54.3467 111.747 54.9333 112.44 55.36C113.133 55.7867 113.92 56 114.8 56C115.733 56 116.533 55.8333 117.2 55.5C117.88 55.1533 118.4 54.6467 118.76 53.98C119.12 53.3 119.3 52.4667 119.3 51.48L120.74 52.52H114.76V50.42H121.68V50.74C121.68 52.4067 121.38 53.7933 120.78 54.9C120.193 56.0067 119.387 56.8333 118.36 57.38C117.333 57.9267 116.16 58.2 114.84 58.2ZM128.069 58.2C127.136 58.2 126.289 57.98 125.529 57.54C124.769 57.0867 124.163 56.48 123.709 55.72C123.269 54.96 123.049 54.1133 123.049 53.18C123.049 52.2467 123.269 51.4067 123.709 50.66C124.163 49.9133 124.769 49.32 125.529 48.88C126.289 48.4267 127.136 48.2 128.069 48.2C129.016 48.2 129.869 48.42 130.629 48.86C131.389 49.3 131.989 49.9 132.429 50.66C132.883 51.4067 133.109 52.2467 133.109 53.18C133.109 54.1133 132.883 54.96 132.429 55.72C131.989 56.48 131.389 57.0867 130.629 57.54C129.869 57.98 129.016 58.2 128.069 58.2ZM128.069 56.08C128.616 56.08 129.096 55.96 129.509 55.72C129.936 55.4667 130.263 55.12 130.489 54.68C130.729 54.24 130.849 53.74 130.849 53.18C130.849 52.62 130.729 52.1267 130.489 51.7C130.249 51.2733 129.923 50.94 129.509 50.7C129.096 50.4467 128.616 50.32 128.069 50.32C127.536 50.32 127.056 50.4467 126.629 50.7C126.216 50.94 125.889 51.2733 125.649 51.7C125.423 52.1267 125.309 52.62 125.309 53.18C125.309 53.74 125.423 54.24 125.649 54.68C125.889 55.12 126.216 55.4667 126.629 55.72C127.056 55.96 127.536 56.08 128.069 56.08ZM139.339 58.2C138.405 58.2 137.559 57.98 136.799 57.54C136.039 57.0867 135.432 56.48 134.979 55.72C134.539 54.96 134.319 54.1133 134.319 53.18C134.319 52.2467 134.539 51.4067 134.979 50.66C135.432 49.9133 136.039 49.32 136.799 48.88C137.559 48.4267 138.405 48.2 139.339 48.2C140.285 48.2 141.139 48.42 141.899 48.86C142.659 49.3 143.259 49.9 143.699 50.66C144.152 51.4067 144.379 52.2467 144.379 53.18C144.379 54.1133 144.152 54.96 143.699 55.72C143.259 56.48 142.659 57.0867 141.899 57.54C141.139 57.98 140.285 58.2 139.339 58.2ZM139.339 56.08C139.885 56.08 140.365 55.96 140.779 55.72C141.205 55.4667 141.532 55.12 141.759 54.68C141.999 54.24 142.119 53.74 142.119 53.18C142.119 52.62 141.999 52.1267 141.759 51.7C141.519 51.2733 141.192 50.94 140.779 50.7C140.365 50.4467 139.885 50.32 139.339 50.32C138.805 50.32 138.325 50.4467 137.899 50.7C137.485 50.94 137.159 51.2733 136.919 51.7C136.692 52.1267 136.579 52.62 136.579 53.18C136.579 53.74 136.692 54.24 136.919 54.68C137.159 55.12 137.485 55.4667 137.899 55.72C138.325 55.96 138.805 56.08 139.339 56.08ZM150.208 62.2C149.195 62.2 148.308 62.0133 147.548 61.64C146.788 61.28 146.175 60.7667 145.708 60.1L147.148 58.66C147.535 59.14 147.975 59.5 148.468 59.74C148.962 59.98 149.555 60.1 150.248 60.1C151.115 60.1 151.802 59.8733 152.308 59.42C152.815 58.98 153.068 58.3733 153.068 57.6V55.24L153.448 53.12L153.068 50.98V48.4H155.268V57.6C155.268 58.52 155.055 59.32 154.628 60C154.202 60.6933 153.608 61.2333 152.848 61.62C152.088 62.0067 151.208 62.2 150.208 62.2ZM150.108 57.8C149.255 57.8 148.482 57.5933 147.788 57.18C147.108 56.7533 146.568 56.1733 146.168 55.44C145.782 54.7067 145.588 53.8867 145.588 52.98C145.588 52.0733 145.782 51.26 146.168 50.54C146.568 49.82 147.108 49.2533 147.788 48.84C148.482 48.4133 149.255 48.2 150.108 48.2C150.868 48.2 151.535 48.3533 152.108 48.66C152.682 48.9667 153.128 49.3933 153.448 49.94C153.768 50.4733 153.928 51.1 153.928 51.82V54.18C153.928 54.8867 153.762 55.5133 153.428 56.06C153.108 56.6067 152.662 57.0333 152.088 57.34C151.515 57.6467 150.855 57.8 150.108 57.8ZM150.548 55.72C151.082 55.72 151.548 55.6067 151.948 55.38C152.348 55.1533 152.655 54.84 152.868 54.44C153.095 54.0267 153.208 53.5467 153.208 53C153.208 52.4533 153.095 51.98 152.868 51.58C152.655 51.1667 152.348 50.8467 151.948 50.62C151.548 50.3933 151.082 50.28 150.548 50.28C150.015 50.28 149.542 50.3933 149.128 50.62C148.728 50.8467 148.415 51.1667 148.188 51.58C147.962 51.98 147.848 52.4533 147.848 53C147.848 53.5333 147.962 54.0067 148.188 54.42C148.415 54.8333 148.728 55.1533 149.128 55.38C149.542 55.6067 150.015 55.72 150.548 55.72ZM157.712 58V43.6H159.912V58H157.712ZM166.821 58.2C165.861 58.2 164.994 57.9867 164.221 57.56C163.461 57.12 162.854 56.52 162.401 55.76C161.961 55 161.741 54.1467 161.741 53.2C161.741 52.2533 161.961 51.4067 162.401 50.66C162.841 49.9 163.434 49.3 164.181 48.86C164.941 48.42 165.781 48.2 166.701 48.2C167.594 48.2 168.381 48.4067 169.061 48.82C169.754 49.2333 170.294 49.8 170.681 50.52C171.081 51.24 171.281 52.06 171.281 52.98C171.281 53.14 171.267 53.3067 171.241 53.48C171.227 53.64 171.201 53.82 171.161 54.02H163.281V52.22H170.021L169.201 52.94C169.174 52.3533 169.061 51.86 168.861 51.46C168.661 51.06 168.374 50.7533 168.001 50.54C167.641 50.3267 167.194 50.22 166.661 50.22C166.101 50.22 165.614 50.34 165.201 50.58C164.787 50.82 164.467 51.16 164.241 51.6C164.014 52.0267 163.901 52.54 163.901 53.14C163.901 53.74 164.021 54.2667 164.261 54.72C164.501 55.1733 164.841 55.5267 165.281 55.78C165.721 56.02 166.227 56.14 166.801 56.14C167.294 56.14 167.747 56.0533 168.161 55.88C168.587 55.7067 168.947 55.4533 169.241 55.12L170.641 56.54C170.174 57.0867 169.607 57.5 168.941 57.78C168.274 58.06 167.567 58.2 166.821 58.2ZM175.742 58L181.502 44H183.102L188.822 58H186.342L181.862 46.66H182.702L178.182 58H175.742ZM178.582 55.3V53.3H186.002V55.3H178.582ZM193.978 58.2C193.112 58.2 192.325 57.98 191.618 57.54C190.925 57.1 190.372 56.5067 189.958 55.76C189.558 55 189.358 54.1533 189.358 53.22C189.358 52.2733 189.558 51.4267 189.958 50.68C190.372 49.92 190.925 49.32 191.618 48.88C192.325 48.4267 193.112 48.2 193.978 48.2C194.712 48.2 195.358 48.36 195.918 48.68C196.492 48.9867 196.945 49.4133 197.278 49.96C197.612 50.5067 197.778 51.1267 197.778 51.82V54.58C197.778 55.2733 197.612 55.8933 197.278 56.44C196.958 56.9867 196.512 57.42 195.938 57.74C195.365 58.0467 194.712 58.2 193.978 58.2ZM194.338 56.12C194.885 56.12 195.358 56 195.758 55.76C196.172 55.5067 196.492 55.16 196.718 54.72C196.945 54.28 197.058 53.7733 197.058 53.2C197.058 52.6267 196.945 52.12 196.718 51.68C196.492 51.24 196.172 50.9 195.758 50.66C195.358 50.4067 194.885 50.28 194.338 50.28C193.805 50.28 193.332 50.4067 192.918 50.66C192.518 50.9 192.198 51.24 191.958 51.68C191.732 52.12 191.618 52.6267 191.618 53.2C191.618 53.7733 191.732 54.28 191.958 54.72C192.198 55.16 192.518 55.5067 192.918 55.76C193.332 56 193.805 56.12 194.338 56.12ZM199.118 58H196.918V55.42L197.298 53.08L196.918 50.76V43.6H199.118V58ZM205.76 58.2C204.653 58.2 203.713 58 202.94 57.6C202.167 57.2 201.473 56.6133 200.86 55.84L202.42 54.28C202.807 54.84 203.267 55.28 203.8 55.6C204.333 55.9067 205.013 56.06 205.84 56.06C206.613 56.06 207.227 55.9 207.68 55.58C208.147 55.26 208.38 54.82 208.38 54.26C208.38 53.7933 208.26 53.4133 208.02 53.12C207.78 52.8267 207.46 52.5867 207.06 52.4C206.673 52.2 206.24 52.0267 205.76 51.88C205.293 51.72 204.82 51.5467 204.34 51.36C203.873 51.16 203.44 50.9133 203.04 50.62C202.653 50.3267 202.34 49.9467 202.1 49.48C201.86 49.0133 201.74 48.42 201.74 47.7C201.74 46.8733 201.94 46.1733 202.34 45.6C202.753 45.0133 203.307 44.5667 204 44.26C204.693 43.9533 205.467 43.8 206.32 43.8C207.24 43.8 208.06 43.98 208.78 44.34C209.513 44.7 210.107 45.16 210.56 45.72L209 47.28C208.6 46.8267 208.18 46.4933 207.74 46.28C207.313 46.0533 206.82 45.94 206.26 45.94C205.567 45.94 205.02 46.08 204.62 46.36C204.233 46.64 204.04 47.0333 204.04 47.54C204.04 47.9667 204.16 48.3133 204.4 48.58C204.64 48.8333 204.953 49.0533 205.34 49.24C205.74 49.4133 206.173 49.58 206.64 49.74C207.12 49.9 207.593 50.08 208.06 50.28C208.54 50.48 208.973 50.74 209.36 51.06C209.76 51.3667 210.08 51.7667 210.32 52.26C210.56 52.7533 210.68 53.3733 210.68 54.12C210.68 55.3733 210.233 56.3667 209.34 57.1C208.46 57.8333 207.267 58.2 205.76 58.2ZM217.016 58.2C216.056 58.2 215.189 57.9867 214.416 57.56C213.656 57.12 213.049 56.52 212.596 55.76C212.156 55 211.936 54.1467 211.936 53.2C211.936 52.2533 212.156 51.4067 212.596 50.66C213.036 49.9 213.629 49.3 214.376 48.86C215.136 48.42 215.976 48.2 216.896 48.2C217.789 48.2 218.576 48.4067 219.256 48.82C219.949 49.2333 220.489 49.8 220.876 50.52C221.276 51.24 221.476 52.06 221.476 52.98C221.476 53.14 221.463 53.3067 221.436 53.48C221.423 53.64 221.396 53.82 221.356 54.02H213.476V52.22H220.216L219.396 52.94C219.369 52.3533 219.256 51.86 219.056 51.46C218.856 51.06 218.569 50.7533 218.196 50.54C217.836 50.3267 217.389 50.22 216.856 50.22C216.296 50.22 215.809 50.34 215.396 50.58C214.983 50.82 214.663 51.16 214.436 51.6C214.209 52.0267 214.096 52.54 214.096 53.14C214.096 53.74 214.216 54.2667 214.456 54.72C214.696 55.1733 215.036 55.5267 215.476 55.78C215.916 56.02 216.423 56.14 216.996 56.14C217.489 56.14 217.943 56.0533 218.356 55.88C218.783 55.7067 219.143 55.4533 219.436 55.12L220.836 56.54C220.369 57.0867 219.803 57.5 219.136 57.78C218.469 58.06 217.763 58.2 217.016 58.2ZM229.82 58V52.46C229.82 51.82 229.613 51.2933 229.2 50.88C228.8 50.4667 228.28 50.26 227.64 50.26C227.213 50.26 226.833 50.3533 226.5 50.54C226.166 50.7267 225.906 50.9867 225.72 51.32C225.533 51.6533 225.44 52.0333 225.44 52.46L224.58 51.98C224.58 51.2467 224.74 50.6 225.06 50.04C225.38 49.4667 225.82 49.02 226.38 48.7C226.953 48.3667 227.593 48.2 228.3 48.2C229.02 48.2 229.66 48.3867 230.22 48.76C230.78 49.12 231.22 49.5933 231.54 50.18C231.86 50.7533 232.02 51.3533 232.02 51.98V58H229.82ZM223.24 58V48.4H225.44V58H223.24ZM237.395 58.2C236.862 58.2 236.348 58.1333 235.855 58C235.362 57.8533 234.908 57.6533 234.495 57.4C234.082 57.1333 233.722 56.8133 233.415 56.44L234.815 55.04C235.148 55.4267 235.528 55.72 235.955 55.92C236.395 56.1067 236.888 56.2 237.435 56.2C237.928 56.2 238.302 56.1267 238.555 55.98C238.808 55.8333 238.935 55.62 238.935 55.34C238.935 55.0467 238.815 54.82 238.575 54.66C238.335 54.5 238.022 54.3667 237.635 54.26C237.262 54.14 236.862 54.02 236.435 53.9C236.022 53.78 235.622 53.62 235.235 53.42C234.862 53.2067 234.555 52.92 234.315 52.56C234.075 52.2 233.955 51.7333 233.955 51.16C233.955 50.5467 234.095 50.02 234.375 49.58C234.668 49.14 235.075 48.8 235.595 48.56C236.128 48.32 236.762 48.2 237.495 48.2C238.268 48.2 238.948 48.34 239.535 48.62C240.135 48.8867 240.635 49.2933 241.035 49.84L239.635 51.24C239.355 50.8933 239.035 50.6333 238.675 50.46C238.315 50.2867 237.902 50.2 237.435 50.2C236.995 50.2 236.655 50.2667 236.415 50.4C236.175 50.5333 236.055 50.7267 236.055 50.98C236.055 51.2467 236.175 51.4533 236.415 51.6C236.655 51.7467 236.962 51.8733 237.335 51.98C237.722 52.0867 238.122 52.2067 238.535 52.34C238.962 52.46 239.362 52.6333 239.735 52.86C240.122 53.0733 240.435 53.3667 240.675 53.74C240.915 54.1 241.035 54.5733 241.035 55.16C241.035 56.0933 240.708 56.8333 240.055 57.38C239.402 57.9267 238.515 58.2 237.395 58.2ZM247.309 58.2C246.349 58.2 245.482 57.9867 244.709 57.56C243.949 57.12 243.342 56.52 242.889 55.76C242.449 55 242.229 54.1467 242.229 53.2C242.229 52.2533 242.449 51.4067 242.889 50.66C243.329 49.9 243.922 49.3 244.669 48.86C245.429 48.42 246.269 48.2 247.189 48.2C248.082 48.2 248.869 48.4067 249.549 48.82C250.242 49.2333 250.782 49.8 251.169 50.52C251.569 51.24 251.769 52.06 251.769 52.98C251.769 53.14 251.756 53.3067 251.729 53.48C251.716 53.64 251.689 53.82 251.649 54.02H243.769V52.22H250.509L249.689 52.94C249.662 52.3533 249.549 51.86 249.349 51.46C249.149 51.06 248.862 50.7533 248.489 50.54C248.129 50.3267 247.682 50.22 247.149 50.22C246.589 50.22 246.102 50.34 245.689 50.58C245.276 50.82 244.956 51.16 244.729 51.6C244.502 52.0267 244.389 52.54 244.389 53.14C244.389 53.74 244.509 54.2667 244.749 54.72C244.989 55.1733 245.329 55.5267 245.769 55.78C246.209 56.02 246.716 56.14 247.289 56.14C247.782 56.14 248.236 56.0533 248.649 55.88C249.076 55.7067 249.436 55.4533 249.729 55.12L251.129 56.54C250.662 57.0867 250.096 57.5 249.429 57.78C248.762 58.06 248.056 58.2 247.309 58.2Z" fill="black" fill-opacity="0.7"/>
<path d="M66.5209 28.0615C65.0625 27.9574 63.5417 28.2907 62.1875 29.0824C61.3177 29.5804 60.5546 30.2453 59.9422 31.0389C59.3298 31.8325 58.8801 32.7391 58.6188 33.7068C58.3575 34.6746 58.2898 35.6844 58.4196 36.6783C58.5494 37.6723 58.874 38.6308 59.375 39.499L74.6667 65.9574C76.7709 69.624 81.4375 70.8324 85.1042 68.749C88.75 66.6657 89.9584 61.9782 87.875 58.3324L72.625 31.874C71.9952 30.7893 71.1098 29.875 70.0459 29.2105C68.9821 28.546 67.772 28.1516 66.5209 28.0615M55.2084 39.0824L44.125 58.3324C43.4497 59.4899 43.0905 60.8047 43.0834 62.1449C43.0834 63.1489 43.2811 64.1432 43.6654 65.0708C44.0496 65.9984 44.6128 66.8413 45.3228 67.5513C46.0328 68.2613 46.8756 68.8245 47.8033 69.2087C48.7309 69.5929 49.7251 69.7907 50.7292 69.7907C52.0694 69.7866 53.385 69.4303 54.5441 68.7575C55.7032 68.0847 56.6651 67.1191 57.3334 65.9574V65.9782L63.9167 54.5615C61.1042 49.7699 58.2292 44.999 55.6459 40.0615C55.4792 39.749 55.3334 39.4157 55.2292 39.0824H55.2084ZM55.2084 39.0824L75.1667 35.4157L55.2084 39.0824Z" fill="#194EA3"/>
</svg>
