<svg width="300" height="100" viewBox="0 0 300 100" fill="none" xmlns="http://www.w3.org/2000/svg">
<rect width="300" height="100" rx="16" fill="#F8E2B4"/>
<path d="M119.84 58.2C118.88 58.2 117.973 58.0133 117.12 57.64C116.267 57.2667 115.52 56.7533 114.88 56.1C114.24 55.4333 113.733 54.6667 113.36 53.8C113 52.92 112.82 51.98 112.82 50.98C112.82 49.98 113 49.0467 113.36 48.18C113.733 47.3133 114.24 46.5533 114.88 45.9C115.533 45.2333 116.293 44.72 117.16 44.36C118.04 43.9867 118.987 43.8 120 43.8C121.107 43.8 122.133 44.0133 123.08 44.44C124.027 44.8667 124.82 45.4733 125.46 46.26L123.9 47.82C123.487 47.2333 122.933 46.7867 122.24 46.48C121.547 46.16 120.8 46 120 46C119.04 46 118.193 46.2133 117.46 46.64C116.74 47.0533 116.18 47.6333 115.78 48.38C115.38 49.1267 115.18 49.9933 115.18 50.98C115.18 51.9667 115.38 52.84 115.78 53.6C116.193 54.3467 116.747 54.9333 117.44 55.36C118.133 55.7867 118.92 56 119.8 56C120.733 56 121.533 55.8333 122.2 55.5C122.88 55.1533 123.4 54.6467 123.76 53.98C124.12 53.3 124.3 52.4667 124.3 51.48L125.74 52.52H119.76V50.42H126.68V50.74C126.68 52.4067 126.38 53.7933 125.78 54.9C125.193 56.0067 124.387 56.8333 123.36 57.38C122.333 57.9267 121.16 58.2 119.84 58.2ZM133.069 58.2C132.136 58.2 131.289 57.98 130.529 57.54C129.769 57.0867 129.163 56.48 128.709 55.72C128.269 54.96 128.049 54.1133 128.049 53.18C128.049 52.2467 128.269 51.4067 128.709 50.66C129.163 49.9133 129.769 49.32 130.529 48.88C131.289 48.4267 132.136 48.2 133.069 48.2C134.016 48.2 134.869 48.42 135.629 48.86C136.389 49.3 136.989 49.9 137.429 50.66C137.883 51.4067 138.109 52.2467 138.109 53.18C138.109 54.1133 137.883 54.96 137.429 55.72C136.989 56.48 136.389 57.0867 135.629 57.54C134.869 57.98 134.016 58.2 133.069 58.2ZM133.069 56.08C133.616 56.08 134.096 55.96 134.509 55.72C134.936 55.4667 135.263 55.12 135.489 54.68C135.729 54.24 135.849 53.74 135.849 53.18C135.849 52.62 135.729 52.1267 135.489 51.7C135.249 51.2733 134.923 50.94 134.509 50.7C134.096 50.4467 133.616 50.32 133.069 50.32C132.536 50.32 132.056 50.4467 131.629 50.7C131.216 50.94 130.889 51.2733 130.649 51.7C130.423 52.1267 130.309 52.62 130.309 53.18C130.309 53.74 130.423 54.24 130.649 54.68C130.889 55.12 131.216 55.4667 131.629 55.72C132.056 55.96 132.536 56.08 133.069 56.08ZM144.339 58.2C143.405 58.2 142.559 57.98 141.799 57.54C141.039 57.0867 140.432 56.48 139.979 55.72C139.539 54.96 139.319 54.1133 139.319 53.18C139.319 52.2467 139.539 51.4067 139.979 50.66C140.432 49.9133 141.039 49.32 141.799 48.88C142.559 48.4267 143.405 48.2 144.339 48.2C145.285 48.2 146.139 48.42 146.899 48.86C147.659 49.3 148.259 49.9 148.699 50.66C149.152 51.4067 149.379 52.2467 149.379 53.18C149.379 54.1133 149.152 54.96 148.699 55.72C148.259 56.48 147.659 57.0867 146.899 57.54C146.139 57.98 145.285 58.2 144.339 58.2ZM144.339 56.08C144.885 56.08 145.365 55.96 145.779 55.72C146.205 55.4667 146.532 55.12 146.759 54.68C146.999 54.24 147.119 53.74 147.119 53.18C147.119 52.62 146.999 52.1267 146.759 51.7C146.519 51.2733 146.192 50.94 145.779 50.7C145.365 50.4467 144.885 50.32 144.339 50.32C143.805 50.32 143.325 50.4467 142.899 50.7C142.485 50.94 142.159 51.2733 141.919 51.7C141.692 52.1267 141.579 52.62 141.579 53.18C141.579 53.74 141.692 54.24 141.919 54.68C142.159 55.12 142.485 55.4667 142.899 55.72C143.325 55.96 143.805 56.08 144.339 56.08ZM155.208 62.2C154.195 62.2 153.308 62.0133 152.548 61.64C151.788 61.28 151.175 60.7667 150.708 60.1L152.148 58.66C152.535 59.14 152.975 59.5 153.468 59.74C153.962 59.98 154.555 60.1 155.248 60.1C156.115 60.1 156.802 59.8733 157.308 59.42C157.815 58.98 158.068 58.3733 158.068 57.6V55.24L158.448 53.12L158.068 50.98V48.4H160.268V57.6C160.268 58.52 160.055 59.32 159.628 60C159.202 60.6933 158.608 61.2333 157.848 61.62C157.088 62.0067 156.208 62.2 155.208 62.2ZM155.108 57.8C154.255 57.8 153.482 57.5933 152.788 57.18C152.108 56.7533 151.568 56.1733 151.168 55.44C150.782 54.7067 150.588 53.8867 150.588 52.98C150.588 52.0733 150.782 51.26 151.168 50.54C151.568 49.82 152.108 49.2533 152.788 48.84C153.482 48.4133 154.255 48.2 155.108 48.2C155.868 48.2 156.535 48.3533 157.108 48.66C157.682 48.9667 158.128 49.3933 158.448 49.94C158.768 50.4733 158.928 51.1 158.928 51.82V54.18C158.928 54.8867 158.762 55.5133 158.428 56.06C158.108 56.6067 157.662 57.0333 157.088 57.34C156.515 57.6467 155.855 57.8 155.108 57.8ZM155.548 55.72C156.082 55.72 156.548 55.6067 156.948 55.38C157.348 55.1533 157.655 54.84 157.868 54.44C158.095 54.0267 158.208 53.5467 158.208 53C158.208 52.4533 158.095 51.98 157.868 51.58C157.655 51.1667 157.348 50.8467 156.948 50.62C156.548 50.3933 156.082 50.28 155.548 50.28C155.015 50.28 154.542 50.3933 154.128 50.62C153.728 50.8467 153.415 51.1667 153.188 51.58C152.962 51.98 152.848 52.4533 152.848 53C152.848 53.5333 152.962 54.0067 153.188 54.42C153.415 54.8333 153.728 55.1533 154.128 55.38C154.542 55.6067 155.015 55.72 155.548 55.72ZM162.712 58V43.6H164.912V58H162.712ZM171.821 58.2C170.861 58.2 169.994 57.9867 169.221 57.56C168.461 57.12 167.854 56.52 167.401 55.76C166.961 55 166.741 54.1467 166.741 53.2C166.741 52.2533 166.961 51.4067 167.401 50.66C167.841 49.9 168.434 49.3 169.181 48.86C169.941 48.42 170.781 48.2 171.701 48.2C172.594 48.2 173.381 48.4067 174.061 48.82C174.754 49.2333 175.294 49.8 175.681 50.52C176.081 51.24 176.281 52.06 176.281 52.98C176.281 53.14 176.267 53.3067 176.241 53.48C176.227 53.64 176.201 53.82 176.161 54.02H168.281V52.22H175.021L174.201 52.94C174.174 52.3533 174.061 51.86 173.861 51.46C173.661 51.06 173.374 50.7533 173.001 50.54C172.641 50.3267 172.194 50.22 171.661 50.22C171.101 50.22 170.614 50.34 170.201 50.58C169.787 50.82 169.467 51.16 169.241 51.6C169.014 52.0267 168.901 52.54 168.901 53.14C168.901 53.74 169.021 54.2667 169.261 54.72C169.501 55.1733 169.841 55.5267 170.281 55.78C170.721 56.02 171.227 56.14 171.801 56.14C172.294 56.14 172.747 56.0533 173.161 55.88C173.587 55.7067 173.947 55.4533 174.241 55.12L175.641 56.54C175.174 57.0867 174.607 57.5 173.941 57.78C173.274 58.06 172.567 58.2 171.821 58.2ZM183.928 52.06V50.16H187.468C188.175 50.16 188.721 49.98 189.108 49.62C189.508 49.2467 189.708 48.7333 189.708 48.08C189.708 47.4933 189.515 47 189.128 46.6C188.741 46.2 188.195 46 187.488 46H183.928V44H187.588C188.468 44 189.241 44.18 189.908 44.54C190.575 44.8867 191.088 45.3667 191.448 45.98C191.821 46.58 192.008 47.2667 192.008 48.04C192.008 48.8533 191.821 49.56 191.448 50.16C191.088 50.76 190.575 51.2267 189.908 51.56C189.241 51.8933 188.468 52.06 187.588 52.06H183.928ZM182.348 58V44H184.648V58H182.348ZM190.028 58L185.128 51.92L187.268 51.14L192.928 58H190.028ZM198.5 58.2C197.54 58.2 196.674 57.9867 195.9 57.56C195.14 57.12 194.534 56.52 194.08 55.76C193.64 55 193.42 54.1467 193.42 53.2C193.42 52.2533 193.64 51.4067 194.08 50.66C194.52 49.9 195.114 49.3 195.86 48.86C196.62 48.42 197.46 48.2 198.38 48.2C199.274 48.2 200.06 48.4067 200.74 48.82C201.434 49.2333 201.974 49.8 202.36 50.52C202.76 51.24 202.96 52.06 202.96 52.98C202.96 53.14 202.947 53.3067 202.92 53.48C202.907 53.64 202.88 53.82 202.84 54.02H194.96V52.22H201.7L200.88 52.94C200.854 52.3533 200.74 51.86 200.54 51.46C200.34 51.06 200.054 50.7533 199.68 50.54C199.32 50.3267 198.874 50.22 198.34 50.22C197.78 50.22 197.294 50.34 196.88 50.58C196.467 50.82 196.147 51.16 195.92 51.6C195.694 52.0267 195.58 52.54 195.58 53.14C195.58 53.74 195.7 54.2667 195.94 54.72C196.18 55.1733 196.52 55.5267 196.96 55.78C197.4 56.02 197.907 56.14 198.48 56.14C198.974 56.14 199.427 56.0533 199.84 55.88C200.267 55.7067 200.627 55.4533 200.92 55.12L202.32 56.54C201.854 57.0867 201.287 57.5 200.62 57.78C199.954 58.06 199.247 58.2 198.5 58.2ZM207.808 58L203.428 48.4H205.868L209.208 56.22H207.768L211.128 48.4H213.468L209.088 58H207.808ZM214.783 58V48.4H216.983V58H214.783ZM215.883 46.64C215.51 46.64 215.196 46.5133 214.943 46.26C214.703 46.0067 214.583 45.6933 214.583 45.32C214.583 44.9467 214.703 44.6333 214.943 44.38C215.196 44.1267 215.51 44 215.883 44C216.27 44 216.583 44.1267 216.823 44.38C217.063 44.6333 217.183 44.9467 217.183 45.32C217.183 45.6933 217.063 46.0067 216.823 46.26C216.583 46.5133 216.27 46.64 215.883 46.64ZM223.91 58.2C222.95 58.2 222.084 57.9867 221.31 57.56C220.55 57.12 219.944 56.52 219.49 55.76C219.05 55 218.83 54.1467 218.83 53.2C218.83 52.2533 219.05 51.4067 219.49 50.66C219.93 49.9 220.524 49.3 221.27 48.86C222.03 48.42 222.87 48.2 223.79 48.2C224.684 48.2 225.47 48.4067 226.15 48.82C226.844 49.2333 227.384 49.8 227.77 50.52C228.17 51.24 228.37 52.06 228.37 52.98C228.37 53.14 228.357 53.3067 228.33 53.48C228.317 53.64 228.29 53.82 228.25 54.02H220.37V52.22H227.11L226.29 52.94C226.264 52.3533 226.15 51.86 225.95 51.46C225.75 51.06 225.464 50.7533 225.09 50.54C224.73 50.3267 224.284 50.22 223.75 50.22C223.19 50.22 222.704 50.34 222.29 50.58C221.877 50.82 221.557 51.16 221.33 51.6C221.104 52.0267 220.99 52.54 220.99 53.14C220.99 53.74 221.11 54.2667 221.35 54.72C221.59 55.1733 221.93 55.5267 222.37 55.78C222.81 56.02 223.317 56.14 223.89 56.14C224.384 56.14 224.837 56.0533 225.25 55.88C225.677 55.7067 226.037 55.4533 226.33 55.12L227.73 56.54C227.264 57.0867 226.697 57.5 226.03 57.78C225.364 58.06 224.657 58.2 223.91 58.2ZM232.817 58L228.957 48.4H231.237L233.837 55.38L233.157 55.4L235.697 48.4H236.977L239.517 55.4L238.837 55.38L241.437 48.4H243.717L239.857 58H238.577L235.977 51.36H236.697L234.097 58H232.817ZM248.001 58.2C247.467 58.2 246.954 58.1333 246.461 58C245.967 57.8533 245.514 57.6533 245.101 57.4C244.687 57.1333 244.327 56.8133 244.021 56.44L245.421 55.04C245.754 55.4267 246.134 55.72 246.561 55.92C247.001 56.1067 247.494 56.2 248.041 56.2C248.534 56.2 248.907 56.1267 249.161 55.98C249.414 55.8333 249.541 55.62 249.541 55.34C249.541 55.0467 249.421 54.82 249.181 54.66C248.941 54.5 248.627 54.3667 248.241 54.26C247.867 54.14 247.467 54.02 247.041 53.9C246.627 53.78 246.227 53.62 245.841 53.42C245.467 53.2067 245.161 52.92 244.921 52.56C244.681 52.2 244.561 51.7333 244.561 51.16C244.561 50.5467 244.701 50.02 244.981 49.58C245.274 49.14 245.681 48.8 246.201 48.56C246.734 48.32 247.367 48.2 248.101 48.2C248.874 48.2 249.554 48.34 250.141 48.62C250.741 48.8867 251.241 49.2933 251.641 49.84L250.241 51.24C249.961 50.8933 249.641 50.6333 249.281 50.46C248.921 50.2867 248.507 50.2 248.041 50.2C247.601 50.2 247.261 50.2667 247.021 50.4C246.781 50.5333 246.661 50.7267 246.661 50.98C246.661 51.2467 246.781 51.4533 247.021 51.6C247.261 51.7467 247.567 51.8733 247.941 51.98C248.327 52.0867 248.727 52.2067 249.141 52.34C249.567 52.46 249.967 52.6333 250.341 52.86C250.727 53.0733 251.041 53.3667 251.281 53.74C251.521 54.1 251.641 54.5733 251.641 55.16C251.641 56.0933 251.314 56.8333 250.661 57.38C250.007 57.9267 249.121 58.2 248.001 58.2Z" fill="black" fill-opacity="0.7"/>
<path d="M90.4792 48.1244H71.375V53.8119H84.9375C84.25 61.7494 77.6459 65.1452 71.3959 65.1452C63.4167 65.1452 56.4167 58.8535 56.4167 49.9994C56.4167 41.4577 63.0834 34.8535 71.4167 34.8535C77.8542 34.8535 81.625 38.9577 81.625 38.9577L85.5834 34.8327C85.5834 34.8327 80.5 29.166 71.2084 29.166C59.375 29.166 50.2292 39.166 50.2292 49.9994C50.2292 60.5202 58.8334 70.8327 71.5209 70.8327C82.6667 70.8327 90.7917 63.1869 90.7917 51.8952C90.7917 49.4994 90.4792 48.1244 90.4792 48.1244Z" fill="#E5A725"/>
</svg>
