<svg height="512" viewBox="0 0 64 64" width="512" xmlns="http://www.w3.org/2000/svg"><g id="information-call-info-help-support"><path d="m16 19a2.006 2.006 0 0 0 -2 2v1a2.006 2.006 0 0 0 2 2h2v-5z" fill="#ed1c24"/><path d="m32 17v7a7.081 7.081 0 0 1 -3.4 6h-7.2a6.977 6.977 0 0 1 -3.4-6v-7a2.006 2.006 0 0 1 2-2h10a2.006 2.006 0 0 1 2 2z" fill="#ffbcab"/><path d="m30 9h1a4 4 0 0 1 4 4v6.279a1.975 1.975 0 0 0 -1-.279h-2v-2a2 2 0 0 0 -2-2h-10a2 2 0 0 0 -2 2v2h-2a1.975 1.975 0 0 0 -1 .279v-6.279a6 6 0 0 1 6-6h3a4 4 0 0 1 4 4 2 2 0 0 1 2-2z" fill="#58595b"/><path d="m40 32v18h-30v-18a2.006 2.006 0 0 1 2-2h26a2.006 2.006 0 0 1 2 2z" fill="#d1d3d4"/><path d="m38 30v6a12 12 0 0 1 -12 12h-16v2h30v-18a2.006 2.006 0 0 0 -2-2z" fill="#bcbec0"/><path d="m59 50h-54a2 2 0 0 0 0 4h54a2 2 0 0 0 0-4z" fill="#004fac"/><path d="m40 35.08a7.969 7.969 0 0 1 4 6.92v3l-4-1z" fill="#ffcd00"/><path d="m10 35.08a7.969 7.969 0 0 0 -4 6.92v3l4-1z" fill="#ffcd00"/><path d="m10 44h-2a3 3 0 0 0 0 6h2z" fill="#ff9478"/><path d="m51 3a10 10 0 0 0 -8.6 15.1l-1.4 4.9 4.9-1.4a10 10 0 1 0 5.1-18.6z" fill="#ed1c24"/><path d="m5 54h54v7h-54z" fill="#57a4ff"/><path d="m5 54h54v2h-54z" fill="#2488ff"/><path d="m23 20a1 1 0 0 0 -2 0v1a1 1 0 0 0 2 0z" fill="#58595b"/><path d="m28 22a1 1 0 0 0 1-1v-1a1 1 0 0 0 -2 0v1a1 1 0 0 0 1 1z" fill="#58595b"/><path d="m25 44a4 4 0 0 0 3.746-5.406 1 1 0 0 0 -1.873.7 2 2 0 1 1 -1.873-1.294 1 1 0 0 0 0-2 4 4 0 0 0 0 8z" fill="#a7a9ac"/><path d="m51 10a1 1 0 0 0 1-1v-1a1 1 0 0 0 -2 0v1a1 1 0 0 0 1 1z" fill="#f1f2f2"/><path d="m49 18a1 1 0 0 0 1 1h2a1 1 0 0 0 0-2v-5a1 1 0 0 0 -1-1h-1a1 1 0 0 0 0 2v4a1 1 0 0 0 -1 1z" fill="#f1f2f2"/><path d="m35 23v3a2 2 0 0 1 -2 2h-8v-2h8v-3z" fill="#808285"/><circle cx="25" cy="27" fill="#6d6e71" r="2"/><path d="m34 24a2.006 2.006 0 0 0 2-2v-1a2.006 2.006 0 0 0 -2-2h-2v5z" fill="#ed1c24"/><path d="m42 50a3 3 0 0 0 0-6h-2v6z" fill="#ff9478"/></g></svg>