<svg id="Icons" height="512" viewBox="0 0 60 60" width="512" xmlns="http://www.w3.org/2000/svg"><path d="m37 13v11.16a3.128 3.128 0 0 0 3.17 2.84h15.83a3 3 0 0 0 3-3v-11z" fill="#2783ec"/><path d="m39 40v18a1 1 0 0 1 -1 1h-36a1 1 0 0 1 -1-1v-12.39c0-5.48 4.7-9.61 10.17-9.61h17.66a10.588 10.588 0 0 1 5.7 1.65z" fill="#346d92"/><path d="m28 36s0 16-8 19c-8-3-8-19-8-19z" fill="#f0f2f5"/><path d="m58.434 46.872a.814.814 0 0 0 .514-.675c.036-.4.052-.8.052-1.2s-.016-.8-.052-1.2a.814.814 0 0 0 -.514-.675l-2.256-.9a11.451 11.451 0 0 0 -1.314-3.164l.959-2.237a.814.814 0 0 0 -.114-.841c-.254-.3-.526-.6-.81-.883s-.578-.556-.883-.81a.814.814 0 0 0 -.841-.114l-2.237.959a11.451 11.451 0 0 0 -3.164-1.314l-.9-2.256a.814.814 0 0 0 -.675-.514c-.399-.032-.799-.048-1.199-.048s-.8.016-1.2.052a.814.814 0 0 0 -.675.514l-.9 2.256a11.451 11.451 0 0 0 -3.164 1.314l-2.237-.959a.814.814 0 0 0 -.841.114c-.3.254-.6.526-.883.81s-.556.578-.81.883a.814.814 0 0 0 -.114.841l.959 2.237a11.451 11.451 0 0 0 -1.314 3.164l-2.256.9a.814.814 0 0 0 -.514.675c-.036.4-.052.8-.052 1.2s.016.8.052 1.2a.814.814 0 0 0 .514.675l2.256.9a11.451 11.451 0 0 0 1.314 3.164l-.959 2.237a.814.814 0 0 0 .114.841c.254.3.526.6.81.883s.578.556.883.81a.814.814 0 0 0 .841.114l2.237-.959a11.451 11.451 0 0 0 3.164 1.314l.9 2.256a.814.814 0 0 0 .675.514c.4.036.8.052 1.2.052s.8-.016 1.2-.052a.814.814 0 0 0 .675-.514l.9-2.256a11.451 11.451 0 0 0 3.164-1.314l2.237.959a.814.814 0 0 0 .841-.114c.3-.254.6-.526.883-.81s.556-.578.81-.883a.814.814 0 0 0 .114-.841l-.959-2.237a11.451 11.451 0 0 0 1.314-3.164z" fill="#a5acb5"/><circle cx="45" cy="45" fill="#8991a0" r="7"/><circle cx="45" cy="45" fill="#a5acb5" r="3"/><path d="m7 16.59v-2.322a13.136 13.136 0 0 1 13-13.268 13.136 13.136 0 0 1 13 13.268v2.322z" fill="#7a4b2b"/><path d="m15 31h10v6.348h-10z" fill="#e2ac7f"/><path d="m20 37.35a7.185 7.185 0 0 0 -3.66 1.5 4.185 4.185 0 0 0 -1.34 2.15 6.2 6.2 0 0 1 -3-5 4.431 4.431 0 0 1 3-2s.87 2.52 5 3.35z" fill="#d6dbe3"/><path d="m28 36a6.2 6.2 0 0 1 -3 5 4.185 4.185 0 0 0 -1.34-2.15 7.185 7.185 0 0 0 -3.66-1.5c4.13-.83 5-3.35 5-3.35a4.431 4.431 0 0 1 3 2z" fill="#d6dbe3"/><path d="m23.66 38.85-1.66 4.15h-4l-1.66-4.15a7.185 7.185 0 0 1 3.66-1.5 7.185 7.185 0 0 1 3.66 1.5z" fill="#ec3a48"/><path d="m33 16.59a9.36 9.36 0 0 1 -.76 4.7 2.738 2.738 0 0 1 -1.77 1.48.787.787 0 0 0 -.55.72 9.929 9.929 0 0 1 -19.84 0 .787.787 0 0 0 -.55-.72 2.738 2.738 0 0 1 -1.77-1.48 9.36 9.36 0 0 1 -.76-4.7 1.646 1.646 0 0 1 2.01-1.68 1.5 1.5 0 0 1 .99 1.09v-2.01a1.552 1.552 0 0 1 1.46-1.57c2.76-.12 8.39-1.02 11.47-3.11a1.544 1.544 0 0 1 1.24-.19c1.64.41 5.83 2.21 5.83 6.48v.4a1.5 1.5 0 0 1 .99-1.09 1.646 1.646 0 0 1 2.01 1.68z" fill="#eebd91"/><path d="m43 8v12a1 1 0 0 1 -1 1h-2a3 3 0 0 0 -3 3v-14a3 3 0 0 1 3-3h2a1 1 0 0 1 1 1z" fill="#439af6"/><path d="m59 10v14a3 3 0 0 0 -3-3h-2a1 1 0 0 1 -1-1v-12a1 1 0 0 1 1-1h2a3 3 0 0 1 3 3z" fill="#439af6"/><path d="m23.07 52.87-.01.02a7.94 7.94 0 0 1 -3.06 2.11 7.94 7.94 0 0 1 -3.06-2.11l-.01-.02 1.07-9.87h4z" fill="#d92936"/><path d="m21 54.53v4.47h-2v-4.47a7.026 7.026 0 0 0 1 .47 7.026 7.026 0 0 0 1-.47z" fill="#295474"/></svg>