<svg width="88" height="88" viewBox="0 0 88 88" fill="none" xmlns="http://www.w3.org/2000/svg">
<circle cx="44" cy="44" r="44" fill="#D5E4F2" fill-opacity="0.8"/>
<path d="M28.875 23.5625H28.375V24.0625V63.9375V64.4375H28.875H48.3125V64.8125H28.875C28.6429 64.8125 28.4204 64.7203 28.2563 64.5562C28.0922 64.3921 28 64.1696 28 63.9375V24.0625C28 23.8304 28.0922 23.6079 28.2563 23.4438C28.4204 23.2797 28.6429 23.1875 28.875 23.1875H55C55.2321 23.1875 55.4546 23.2797 55.6187 23.4438C55.7828 23.6079 55.875 23.8304 55.875 24.0625V50.375H55.5V24.0625V23.5625H55H28.875Z" fill="#2C77BC" stroke="#2C77BC"/>
<path d="M55.0901 64.4117C56.0532 64.5198 57.0242 64.3622 57.8993 63.9604L58.0871 64.2855C57.1352 64.7283 56.0758 64.9003 55.0266 64.7771C53.8111 64.6344 52.6741 64.1031 51.7847 63.2624C50.8953 62.4216 50.3011 61.3162 50.0903 60.1106C49.8796 58.905 50.0636 57.6636 50.615 56.5709C51.1664 55.4783 52.0557 54.5928 53.1508 54.0462C54.2458 53.4996 55.488 53.321 56.6927 53.537C57.8974 53.753 59.0002 54.3521 59.837 55.2451C60.6739 56.1382 61.2002 57.2775 61.3376 58.4937L61.3877 58.9375H61.8344H63.2499C63.2499 58.9375 63.25 58.9375 63.25 58.9375C63.2832 58.9375 63.3157 58.9464 63.3443 58.9631C63.373 58.9798 63.3967 59.0038 63.4131 59.0327C63.4294 59.0616 63.4378 59.0943 63.4374 59.1275C63.4369 59.1607 63.4277 59.1931 63.4106 59.2216L63.4104 59.2218L61.3482 62.6589C61.3481 62.659 61.3481 62.6591 61.3481 62.6591C61.3314 62.6868 61.3079 62.7096 61.2798 62.7255C61.2516 62.7414 61.2198 62.7498 61.1875 62.7498C61.1551 62.7498 61.1233 62.7414 61.0952 62.7255C61.067 62.7096 61.0435 62.6867 61.0268 62.6589L58.9646 59.2218L58.9644 59.2216C58.9473 59.1931 58.9381 59.1607 58.9376 59.1275C58.9372 59.0943 58.9456 59.0616 58.9619 59.0327C58.9783 59.0038 59.002 58.9798 59.0307 58.9631C59.0593 58.9464 59.0918 58.9375 59.125 58.9375C59.125 58.9375 59.1251 58.9375 59.1251 58.9375H60.445H61.0232L60.9398 58.3653C60.7756 57.2405 60.255 56.1979 59.4544 55.3909C58.6537 54.5838 57.6154 54.0549 56.4918 53.8818C55.3683 53.7087 54.2189 53.9006 53.2125 54.4292C52.2061 54.9579 51.3958 55.7954 50.9007 56.8187C50.4056 57.842 50.2518 58.9972 50.462 60.1144C50.6721 61.2316 51.2351 62.2519 52.0681 63.0254C52.9012 63.7989 53.9604 64.2848 55.0901 64.4117ZM60.7587 61.4839L61.1875 62.1987L61.6163 61.4839L62.4646 60.0697L62.9189 59.3125H62.0359H60.3391H59.4561L59.9104 60.0697L60.7587 61.4839Z" fill="#2C77BC" stroke="#2C77BC"/>
<path d="M55.2235 59.8349L55.5 59.6967V59.3876V56.1875H55.875V59.8125V59.8127C55.875 59.8476 55.8653 59.8817 55.847 59.9114C55.8287 59.941 55.8025 59.965 55.7713 59.9805L55.7712 59.9806L54.1561 60.7881L53.9883 60.4522L55.2235 59.8349Z" fill="#2C77BC" stroke="#2C77BC"/>
<path d="M32.3125 51.75H31.8125V52.25V57.75V58.25H32.3125H37.8125H38.3125V57.75V52.25V51.75H37.8125H32.3125ZM31.4924 58.5701C31.4573 58.5349 31.4375 58.4872 31.4375 58.4375V51.5625C31.4375 51.5128 31.4573 51.4651 31.4924 51.4299C31.5276 51.3948 31.5753 51.375 31.625 51.375H38.5C38.5497 51.375 38.5974 51.3948 38.6326 51.4299C38.6677 51.4651 38.6875 51.5128 38.6875 51.5625V58.4375C38.6875 58.4872 38.6677 58.5349 38.6326 58.5701C38.5974 58.6052 38.5497 58.625 38.5 58.625H31.625C31.5753 58.625 31.5276 58.6052 31.4924 58.5701Z" fill="#2C77BC" stroke="#2C77BC"/>
<path d="M31.625 33.875L31.6248 33.875C31.5928 33.875 31.5614 33.8668 31.5334 33.8513C31.5055 33.8357 31.482 33.8133 31.4652 33.7861C31.4484 33.7589 31.4388 33.7279 31.4374 33.696C31.4359 33.6641 31.4427 33.6323 31.4569 33.6038C31.4569 33.6037 31.4569 33.6037 31.457 33.6037L34.8837 26.7501C34.9023 26.7229 34.9269 26.7002 34.9556 26.6839C34.9882 26.6654 35.025 26.6556 35.0625 26.6556C35.1 26.6556 35.1368 26.6654 35.1694 26.6839C35.1981 26.7002 35.2227 26.7229 35.2413 26.7501L38.668 33.6037C38.6681 33.6037 38.6681 33.6037 38.6681 33.6038C38.6823 33.6323 38.6891 33.6641 38.6876 33.696C38.6862 33.7279 38.6766 33.7589 38.6598 33.7861C38.643 33.8133 38.6195 33.8357 38.5916 33.8513C38.5636 33.8668 38.5322 33.875 38.5002 33.875H38.5H31.625ZM35.5097 28.1261L35.0625 27.2317L34.6153 28.1261L32.2902 32.7764L31.9284 33.5H32.7374H37.3876H38.1966L37.8348 32.7764L35.5097 28.1261Z" fill="#2C77BC" stroke="#2C77BC"/>
<path d="M33.0961 43.8527L33.1404 43.5938L32.9524 43.4104L31.8072 42.2938L31.8095 42.2908L31.4994 41.9842C31.4746 41.9597 31.4572 41.9288 31.449 41.895C31.4408 41.8612 31.4421 41.8258 31.4529 41.7927C31.4637 41.7596 31.4835 41.7302 31.51 41.7077C31.5363 41.6854 31.5683 41.6708 31.6024 41.6655L33.6185 41.3722L33.8785 41.3344L33.9948 41.0989L34.8872 39.2924C34.9056 39.265 34.93 39.2422 34.9588 39.2257C34.9912 39.2072 35.0279 39.1974 35.0652 38.6974C35.1026 39.1974 35.1393 39.2072 35.1717 39.2257C35.2003 39.2421 35.2247 39.2648 35.2431 39.2921L36.1331 41.1034L36.2493 41.3398L36.5099 41.3777L38.5252 41.6709C38.5255 41.671 38.5258 41.671 38.526 41.671C38.5601 41.6763 38.5921 41.6909 38.6184 41.7132C38.6449 41.7357 38.6647 41.7651 38.6755 41.7982C38.6863 41.8313 38.6876 41.8667 38.6794 41.9005C38.6713 41.934 38.6542 41.9645 38.6299 41.9888L37.1719 43.4104L36.9839 43.5938L37.0282 43.8527L37.3719 45.8622L37.3719 45.8624C37.3778 45.8969 37.374 45.9323 37.3608 45.9647C37.3476 45.9971 37.3256 46.0252 37.2973 46.0457C37.269 46.0663 37.2355 46.0785 37.2006 46.081C37.1657 46.0836 37.1308 46.0763 37.0999 46.06L37.0997 46.0599L35.295 45.1119L35.0625 44.9897L34.83 45.1118L33.0247 46.0599L33.0244 46.06C32.9935 46.0763 32.9586 46.0836 32.9237 46.081C32.8888 46.0785 32.8553 46.0663 32.827 46.0457C32.7987 46.0252 32.7767 45.9971 32.7635 45.9647C32.7503 45.9323 32.7465 45.8969 32.7524 45.8624L32.7524 45.8622L33.0961 43.8527ZM34.0281 41.693L34.0276 41.6931L33.0314 41.8388L32.0311 41.9852L32.7545 42.6913L33.4731 43.3928C33.4939 43.4139 33.5093 43.4397 33.5182 43.468C33.5273 43.4968 33.5293 43.5274 33.5239 43.5572L33.5233 43.5607L33.3528 44.5534L33.1816 45.5503L34.0776 45.081L34.9714 44.6128L34.9719 44.6125C34.9988 44.5984 35.0287 44.591 35.0591 44.591C35.0894 44.591 35.1193 44.5984 35.1462 44.6125L35.1467 44.6128L36.0405 45.081L36.9365 45.5503L36.7653 44.5534L36.5949 43.5614C36.5949 43.5613 36.5949 43.5613 36.5949 43.5612C36.5898 43.5313 36.5921 43.5007 36.6015 43.4719C36.6109 43.443 36.6272 43.4169 36.6489 43.3957L36.6491 43.3955L37.3717 42.6908L38.0965 41.9839L37.0946 41.8381L36.0977 41.693L36.0975 41.693C36.0674 41.6886 36.0389 41.677 36.0143 41.6591C35.9897 41.6413 35.9698 41.6177 35.9563 41.5904L35.9563 41.5903L35.5108 40.6883L35.0621 39.78L34.6141 40.6886L34.1693 41.5904C34.1693 41.5905 34.1693 41.5905 34.1693 41.5905C34.1693 41.5906 34.1693 41.5906 34.1692 41.5906C34.1558 41.6178 34.1359 41.6413 34.1114 41.6591C34.0868 41.677 34.0582 41.6886 34.0281 41.693Z" fill="#2C77BC" stroke="#2C77BC"/>
<path d="M42.4375 30.0625H52.4375V30.4375H42.4375V30.0625Z" fill="#2C77BC" stroke="#2C77BC"/>
<path d="M42.4375 42.4375H52.4375V42.8125H42.4375V42.4375Z" fill="#2C77BC" stroke="#2C77BC"/>
<path d="M42.4375 54.8125H48.3125V55.1875H42.4375V54.8125Z" fill="#2C77BC" stroke="#2C77BC"/>
</svg>
