<svg id="Layer_1" height="512" viewBox="0 0 512 512" width="512" xmlns="http://www.w3.org/2000/svg" xmlns:xlink="http://www.w3.org/1999/xlink" data-name="Layer 1"><linearGradient id="GradientFill_1" gradientUnits="userSpaceOnUse" x1="50.619" x2="458.461" y1="385.984" y2="133.558"><stop offset="0" stop-color="#ef3e3d"/><stop offset="1" stop-color="#ffcb27"/></linearGradient><path d="m456.574 82.949a16.022 16.022 0 0 0 -13.88-11l-61.594-5.173-23.954-56.976a16 16 0 0 0 -29.5 0l-23.96 56.979-61.586 5.169a16 16 0 0 0 -9.116 28.061l46.787 40.391-14.108 60.165a15.995 15.995 0 0 0 23.867 17.335l52.87-32.015 52.873 32.015a15.828 15.828 0 0 0 8.28 2.322 16 16 0 0 0 15.58-19.66l-14.109-60.162 46.785-40.391a16.023 16.023 0 0 0 4.765-17.06zm10.437 210.272-162.493 106.064h-102.057a15.952 15.952 0 0 0 -8.272 2.315l-6.259 3.779-55.571-96.242 41.948-28.918h153.514a13.684 13.684 0 0 1 0 27.368h-74.282a16 16 0 1 0 0 32h74.282a45.632 45.632 0 0 0 37.041-18.987c.421-.193.836-.4 1.25-.636l88.012-50.814a13.709 13.709 0 0 1 18.617 4.987c3.672 6.357 1.2 14.559-5.73 19.088zm5.73-56.315a45.332 45.332 0 0 0 -34.619 4.529l-66.788 38.565a45.78 45.78 0 0 0 -43.513-31.782h-158.479a16.053 16.053 0 0 0 -9.087 2.828l-43.948 30.29-5.394-9.344a16 16 0 0 0 -21.853-5.865l-75.51 43.589a16.009 16.009 0 0 0 -5.85 21.86l99.548 172.424a16 16 0 0 0 21.853 5.858l75.5-43.6a15.984 15.984 0 0 0 5.865-21.853l-6.533-11.305 2.986-1.807h102.364a15.959 15.959 0 0 0 8.737-2.6l166.48-108.676c21.052-13.737 28.061-40.92 15.959-61.879a45.333 45.333 0 0 0 -27.718-21.232z" fill="url(#GradientFill_1)" fill-rule="evenodd"/></svg>