<svg width="300" height="100" viewBox="0 0 300 100" fill="none" xmlns="http://www.w3.org/2000/svg">
<rect width="300" height="100" rx="16" fill="#D7F5F0"/>
<path d="M99.42 45.2C98.3133 45.2 97.3733 45 96.6 44.6C95.8267 44.2 95.1333 43.6133 94.52 42.84L96.08 41.28C96.4667 41.84 96.9267 42.28 97.46 42.6C97.9933 42.9067 98.6733 43.06 99.5 43.06C100.273 43.06 100.887 42.9 101.34 42.58C101.807 42.26 102.04 41.82 102.04 41.26C102.04 40.7933 101.92 40.4133 101.68 40.12C101.44 39.8267 101.12 39.5867 100.72 39.4C100.333 39.2 99.9 39.0267 99.42 38.88C98.9533 38.72 98.48 38.5467 98 38.36C97.5333 38.16 97.1 37.9133 96.7 37.62C96.3133 37.3267 96 36.9467 95.76 36.48C95.52 36.0133 95.4 35.42 95.4 34.7C95.4 33.8733 95.6 33.1733 96 32.6C96.4133 32.0133 96.9667 31.5667 97.66 31.26C98.3533 30.9533 99.1267 30.8 99.98 30.8C100.9 30.8 101.72 30.98 102.44 31.34C103.173 31.7 103.767 32.16 104.22 32.72L102.66 34.28C102.26 33.8267 101.84 33.4933 101.4 33.28C100.973 33.0533 100.48 32.94 99.92 32.94C99.2267 32.94 98.68 33.08 98.28 33.36C97.8933 33.64 97.7 34.0333 97.7 34.54C97.7 34.9667 97.82 35.3133 98.06 35.58C98.3 35.8333 98.6133 36.0533 99 36.24C99.4 36.4133 99.8333 36.58 100.3 36.74C100.78 36.9 101.253 37.08 101.72 37.28C102.2 37.48 102.633 37.74 103.02 38.06C103.42 38.3667 103.74 38.7667 103.98 39.26C104.22 39.7533 104.34 40.3733 104.34 41.12C104.34 42.3733 103.893 43.3667 103 44.1C102.12 44.8333 100.927 45.2 99.42 45.2ZM110.676 45.2C109.716 45.2 108.849 44.9867 108.076 44.56C107.316 44.12 106.709 43.52 106.256 42.76C105.816 42 105.596 41.1467 105.596 40.2C105.596 39.2533 105.816 38.4067 106.256 37.66C106.696 36.9 107.289 36.3 108.036 35.86C108.796 35.42 109.636 35.2 110.556 35.2C111.449 35.2 112.236 35.4067 112.916 35.82C113.609 36.2333 114.149 36.8 114.536 37.52C114.936 38.24 115.136 39.06 115.136 39.98C115.136 40.14 115.123 40.3067 115.096 40.48C115.083 40.64 115.056 40.82 115.016 41.02H107.136V39.22H113.876L113.056 39.94C113.029 39.3533 112.916 38.86 112.716 38.46C112.516 38.06 112.229 37.7533 111.856 37.54C111.496 37.3267 111.049 37.22 110.516 37.22C109.956 37.22 109.469 37.34 109.056 37.58C108.643 37.82 108.323 38.16 108.096 38.6C107.869 39.0267 107.756 39.54 107.756 40.14C107.756 40.74 107.876 41.2667 108.116 41.72C108.356 42.1733 108.696 42.5267 109.136 42.78C109.576 43.02 110.083 43.14 110.656 43.14C111.149 43.14 111.603 43.0533 112.016 42.88C112.443 42.7067 112.803 42.4533 113.096 42.12L114.496 43.54C114.029 44.0867 113.463 44.5 112.796 44.78C112.129 45.06 111.423 45.2 110.676 45.2ZM120.92 45.2C120.053 45.2 119.266 44.98 118.56 44.54C117.866 44.1 117.313 43.5067 116.9 42.76C116.5 42 116.3 41.1533 116.3 40.22C116.3 39.2733 116.5 38.4267 116.9 37.68C117.313 36.92 117.866 36.32 118.56 35.88C119.266 35.4267 120.053 35.2 120.92 35.2C121.653 35.2 122.3 35.36 122.86 35.68C123.433 35.9867 123.886 36.4133 124.22 36.96C124.553 37.5067 124.72 38.1267 124.72 38.82V41.58C124.72 42.2733 124.553 42.8933 124.22 43.44C123.9 43.9867 123.453 44.42 122.88 44.74C122.306 45.0467 121.653 45.2 120.92 45.2ZM121.28 43.12C122.093 43.12 122.746 42.8467 123.24 42.3C123.746 41.7533 124 41.0533 124 40.2C124 39.6267 123.886 39.12 123.66 38.68C123.433 38.24 123.113 37.9 122.7 37.66C122.3 37.4067 121.826 37.28 121.28 37.28C120.746 37.28 120.273 37.4067 119.86 37.66C119.46 37.9 119.14 38.24 118.9 38.68C118.673 39.12 118.56 39.6267 118.56 40.2C118.56 40.7733 118.673 41.28 118.9 41.72C119.14 42.16 119.46 42.5067 119.86 42.76C120.273 43 120.746 43.12 121.28 43.12ZM123.86 45V42.42L124.24 40.08L123.86 37.76V35.4H126.06V45H123.86ZM128.501 45V35.4H130.701V45H128.501ZM130.701 39.66L129.941 39.28C129.941 38.0667 130.208 37.0867 130.741 36.34C131.288 35.58 132.108 35.2 133.201 35.2C133.681 35.2 134.115 35.2867 134.501 35.46C134.888 35.6333 135.248 35.9133 135.581 36.3L134.141 37.78C133.968 37.5933 133.775 37.46 133.561 37.38C133.348 37.3 133.101 37.26 132.821 37.26C132.208 37.26 131.701 37.4533 131.301 37.84C130.901 38.2267 130.701 38.8333 130.701 39.66ZM140.773 45.2C139.826 45.2 138.966 44.98 138.193 44.54C137.433 44.1 136.833 43.5 136.393 42.74C135.953 41.98 135.733 41.1333 135.733 40.2C135.733 39.2533 135.953 38.4067 136.393 37.66C136.833 36.9 137.433 36.3 138.193 35.86C138.966 35.42 139.826 35.2 140.773 35.2C141.519 35.2 142.213 35.3467 142.853 35.64C143.506 35.92 144.059 36.3267 144.513 36.86L143.073 38.32C142.793 37.9867 142.453 37.74 142.053 37.58C141.666 37.4067 141.239 37.32 140.773 37.32C140.226 37.32 139.739 37.4467 139.313 37.7C138.899 37.94 138.573 38.2733 138.333 38.7C138.106 39.1267 137.993 39.6267 137.993 40.2C137.993 40.76 138.106 41.26 138.333 41.7C138.573 42.1267 138.899 42.4667 139.313 42.72C139.739 42.96 140.226 43.08 140.773 43.08C141.239 43.08 141.666 43 142.053 42.84C142.453 42.6667 142.793 42.4133 143.073 42.08L144.513 43.54C144.059 44.0733 143.506 44.4867 142.853 44.78C142.213 45.06 141.519 45.2 140.773 45.2ZM152.679 45V39.46C152.679 38.82 152.472 38.2933 152.059 37.88C151.659 37.4667 151.139 37.26 150.499 37.26C150.072 37.26 149.692 37.3533 149.359 37.54C149.026 37.7267 148.766 37.9867 148.579 38.32C148.392 38.6533 148.299 39.0333 148.299 39.46L147.439 38.98C147.439 38.2467 147.599 37.6 147.919 37.04C148.239 36.4667 148.679 36.02 149.239 35.7C149.812 35.3667 150.452 35.2 151.159 35.2C151.879 35.2 152.519 35.36 153.079 35.68C153.639 36 154.079 36.4467 154.399 37.02C154.719 37.58 154.879 38.2333 154.879 38.98V45H152.679ZM146.099 45V30.6H148.299V45H146.099ZM161.418 45V31H163.718V45H161.418ZM162.998 45V42.9H170.838V45H162.998ZM162.998 38.86V36.84H170.158V38.86H162.998ZM162.998 33.1V31H170.738V33.1H162.998ZM179.495 45V39.46C179.495 38.82 179.289 38.2933 178.875 37.88C178.475 37.4667 177.955 37.26 177.315 37.26C176.889 37.26 176.509 37.3533 176.175 37.54C175.842 37.7267 175.582 37.9867 175.395 38.32C175.209 38.6533 175.115 39.0333 175.115 39.46L174.255 38.98C174.255 38.2467 174.415 37.6 174.735 37.04C175.055 36.4667 175.495 36.02 176.055 35.7C176.629 35.3667 177.269 35.2 177.975 35.2C178.695 35.2 179.335 35.3867 179.895 35.76C180.455 36.12 180.895 36.5933 181.215 37.18C181.535 37.7533 181.695 38.3533 181.695 38.98V45H179.495ZM172.915 45V35.4H175.115V45H172.915ZM187.931 49.2C186.918 49.2 186.031 49.0133 185.271 48.64C184.511 48.28 183.898 47.7667 183.431 47.1L184.871 45.66C185.258 46.14 185.698 46.5 186.191 46.74C186.684 46.98 187.278 47.1 187.971 47.1C188.838 47.1 189.524 46.8733 190.031 46.42C190.538 45.98 190.791 45.3733 190.791 44.6V42.24L191.171 40.12L190.791 37.98V35.4H192.991V44.6C192.991 45.52 192.778 46.32 192.351 47C191.924 47.6933 191.331 48.2333 190.571 48.62C189.811 49.0067 188.931 49.2 187.931 49.2ZM187.831 44.8C186.978 44.8 186.204 44.5933 185.511 44.18C184.831 43.7533 184.291 43.1733 183.891 42.44C183.504 41.7067 183.311 40.8867 183.311 39.98C183.311 39.0733 183.504 38.26 183.891 37.54C184.291 36.82 184.831 36.2533 185.511 35.84C186.204 35.4133 186.978 35.2 187.831 35.2C188.591 35.2 189.258 35.3533 189.831 35.66C190.404 35.9667 190.851 36.3933 191.171 36.94C191.491 37.4733 191.651 38.1 191.651 38.82V41.18C191.651 41.8867 191.484 42.5133 191.151 43.06C190.831 43.6067 190.384 44.0333 189.811 44.34C189.238 44.6467 188.578 44.8 187.831 44.8ZM188.271 42.72C188.804 42.72 189.271 42.6067 189.671 42.38C190.071 42.1533 190.378 41.84 190.591 41.44C190.818 41.0267 190.931 40.5467 190.931 40C190.931 39.4533 190.818 38.98 190.591 38.58C190.378 38.1667 190.071 37.8467 189.671 37.62C189.271 37.3933 188.804 37.28 188.271 37.28C187.738 37.28 187.264 37.3933 186.851 37.62C186.451 37.8467 186.138 38.1667 185.911 38.58C185.684 38.98 185.571 39.4533 185.571 40C185.571 40.5333 185.684 41.0067 185.911 41.42C186.138 41.8333 186.451 42.1533 186.851 42.38C187.264 42.6067 187.738 42.72 188.271 42.72ZM195.455 45V35.4H197.655V45H195.455ZM196.555 33.64C196.182 33.64 195.868 33.5133 195.615 33.26C195.375 33.0067 195.255 32.6933 195.255 32.32C195.255 31.9467 195.375 31.6333 195.615 31.38C195.868 31.1267 196.182 31 196.555 31C196.942 31 197.255 31.1267 197.495 31.38C197.735 31.6333 197.855 31.9467 197.855 32.32C197.855 32.6933 197.735 33.0067 197.495 33.26C197.255 33.5133 196.942 33.64 196.555 33.64ZM206.702 45V39.46C206.702 38.82 206.496 38.2933 206.082 37.88C205.682 37.4667 205.162 37.26 204.522 37.26C204.096 37.26 203.716 37.3533 203.382 37.54C203.049 37.7267 202.789 37.9867 202.602 38.32C202.416 38.6533 202.322 39.0333 202.322 39.46L201.462 38.98C201.462 38.2467 201.622 37.6 201.942 37.04C202.262 36.4667 202.702 36.02 203.262 35.7C203.836 35.3667 204.476 35.2 205.182 35.2C205.902 35.2 206.542 35.3867 207.102 35.76C207.662 36.12 208.102 36.5933 208.422 37.18C208.742 37.7533 208.902 38.3533 208.902 38.98V45H206.702ZM200.122 45V35.4H202.322V45H200.122ZM215.598 45.2C214.638 45.2 213.771 44.9867 212.998 44.56C212.238 44.12 211.631 43.52 211.178 42.76C210.738 42 210.518 41.1467 210.518 40.2C210.518 39.2533 210.738 38.4067 211.178 37.66C211.618 36.9 212.211 36.3 212.958 35.86C213.718 35.42 214.558 35.2 215.478 35.2C216.371 35.2 217.158 35.4067 217.838 35.82C218.531 36.2333 219.071 36.8 219.458 37.52C219.858 38.24 220.058 39.06 220.058 39.98C220.058 40.14 220.045 40.3067 220.018 40.48C220.005 40.64 219.978 40.82 219.938 41.02H212.058V39.22H218.798L217.978 39.94C217.951 39.3533 217.838 38.86 217.638 38.46C217.438 38.06 217.151 37.7533 216.778 37.54C216.418 37.3267 215.971 37.22 215.438 37.22C214.878 37.22 214.391 37.34 213.978 37.58C213.565 37.82 213.245 38.16 213.018 38.6C212.791 39.0267 212.678 39.54 212.678 40.14C212.678 40.74 212.798 41.2667 213.038 41.72C213.278 42.1733 213.618 42.5267 214.058 42.78C214.498 43.02 215.005 43.14 215.578 43.14C216.071 43.14 216.525 43.0533 216.938 42.88C217.365 42.7067 217.725 42.4533 218.018 42.12L219.418 43.54C218.951 44.0867 218.385 44.5 217.718 44.78C217.051 45.06 216.345 45.2 215.598 45.2ZM101.96 70.2C100.96 70.2 100.027 70.0133 99.16 69.64C98.2933 69.2667 97.5333 68.7533 96.88 68.1C96.2267 67.4333 95.7133 66.6667 95.34 65.8C94.98 64.92 94.8 63.98 94.8 62.98C94.8 61.98 94.98 61.0467 95.34 60.18C95.7133 59.3133 96.22 58.5533 96.86 57.9C97.5133 57.2333 98.2667 56.72 99.12 56.36C99.9867 55.9867 100.92 55.8 101.92 55.8C102.92 55.8 103.847 55.9867 104.7 56.36C105.567 56.72 106.327 57.2333 106.98 57.9C107.633 58.5533 108.14 59.32 108.5 60.2C108.873 61.0667 109.06 62 109.06 63C109.06 64 108.873 64.94 108.5 65.82C108.14 66.6867 107.633 67.4467 106.98 68.1C106.34 68.7533 105.587 69.2667 104.72 69.64C103.867 70.0133 102.947 70.2 101.96 70.2ZM101.92 68C102.867 68 103.693 67.7867 104.4 67.36C105.12 66.9333 105.68 66.3467 106.08 65.6C106.493 64.84 106.7 63.9667 106.7 62.98C106.7 62.2467 106.58 61.58 106.34 60.98C106.113 60.3667 105.787 59.84 105.36 59.4C104.933 58.9467 104.427 58.6 103.84 58.36C103.267 58.12 102.627 58 101.92 58C100.987 58 100.16 58.2133 99.44 58.64C98.7333 59.0533 98.1733 59.6333 97.76 60.38C97.36 61.1267 97.16 61.9933 97.16 62.98C97.16 63.7133 97.2733 64.3933 97.5 65.02C97.74 65.6333 98.0667 66.16 98.48 66.6C98.9067 67.04 99.4133 67.3867 100 67.64C100.587 67.88 101.227 68 101.92 68ZM116.239 70.2C115.506 70.2 114.852 70.0467 114.279 69.74C113.706 69.42 113.252 68.9867 112.919 68.44C112.599 67.8933 112.439 67.2733 112.439 66.58V63.82C112.439 63.1267 112.606 62.5067 112.939 61.96C113.272 61.4133 113.726 60.9867 114.299 60.68C114.872 60.36 115.519 60.2 116.239 60.2C117.106 60.2 117.886 60.4267 118.579 60.88C119.286 61.32 119.839 61.92 120.239 62.68C120.652 63.4267 120.859 64.2733 120.859 65.22C120.859 66.1533 120.652 67 120.239 67.76C119.839 68.5067 119.286 69.1 118.579 69.54C117.886 69.98 117.106 70.2 116.239 70.2ZM115.879 68.12C116.412 68.12 116.879 68 117.279 67.76C117.692 67.5067 118.012 67.16 118.239 66.72C118.479 66.28 118.599 65.7733 118.599 65.2C118.599 64.6267 118.479 64.12 118.239 63.68C118.012 63.24 117.692 62.9 117.279 62.66C116.879 62.4067 116.412 62.28 115.879 62.28C115.346 62.28 114.872 62.4067 114.459 62.66C114.046 62.9 113.726 63.24 113.499 63.68C113.272 64.12 113.159 64.6267 113.159 65.2C113.159 65.7733 113.272 66.28 113.499 66.72C113.726 67.16 114.046 67.5067 114.459 67.76C114.872 68 115.346 68.12 115.879 68.12ZM111.099 74V60.4H113.299V62.98L112.919 65.32L113.299 67.64V74H111.099ZM123.887 70V56.4H126.087V70H123.887ZM121.587 62.4V60.4H128.387V62.4H121.587ZM130.006 70V60.4H132.206V70H130.006ZM131.106 58.64C130.732 58.64 130.419 58.5133 130.166 58.26C129.926 58.0067 129.806 57.6933 129.806 57.32C129.806 56.9467 129.926 56.6333 130.166 56.38C130.419 56.1267 130.732 56 131.106 56C131.492 56 131.806 56.1267 132.046 56.38C132.286 56.6333 132.406 56.9467 132.406 57.32C132.406 57.6933 132.286 58.0067 132.046 58.26C131.806 58.5133 131.492 58.64 131.106 58.64ZM134.673 70V60.4H136.873V70H134.673ZM141.053 70V64.28C141.053 63.64 140.853 63.1467 140.453 62.8C140.053 62.44 139.56 62.26 138.973 62.26C138.573 62.26 138.213 62.34 137.893 62.5C137.586 62.66 137.34 62.8933 137.153 63.2C136.966 63.4933 136.873 63.8533 136.873 64.28L136.013 63.8C136.013 63.0667 136.173 62.4333 136.493 61.9C136.813 61.3667 137.246 60.9533 137.793 60.66C138.34 60.3533 138.953 60.2 139.633 60.2C140.313 60.2 140.926 60.3467 141.473 60.64C142.02 60.9333 142.453 61.3467 142.773 61.88C143.093 62.4133 143.253 63.0533 143.253 63.8V70H141.053ZM147.433 70V64.28C147.433 63.64 147.233 63.1467 146.833 62.8C146.433 62.44 145.94 62.26 145.353 62.26C144.966 62.26 144.613 62.34 144.293 62.5C143.973 62.66 143.72 62.8933 143.533 63.2C143.346 63.4933 143.253 63.8533 143.253 64.28L142.013 63.8C142.08 63.0667 142.293 62.4333 142.653 61.9C143.013 61.3667 143.473 60.9533 144.033 60.66C144.606 60.3533 145.233 60.2 145.913 60.2C146.606 60.2 147.233 60.3467 147.793 60.64C148.353 60.9333 148.8 61.3467 149.133 61.88C149.466 62.4133 149.633 63.0533 149.633 63.8V70H147.433ZM151.92 70V60.4H154.12V70H151.92ZM153.02 58.64C152.646 58.64 152.333 58.5133 152.08 58.26C151.84 58.0067 151.72 57.6933 151.72 57.32C151.72 56.9467 151.84 56.6333 152.08 56.38C152.333 56.1267 152.646 56 153.02 56C153.406 56 153.72 56.1267 153.96 56.38C154.2 56.6333 154.32 56.9467 154.32 57.32C154.32 57.6933 154.2 58.0067 153.96 58.26C153.72 58.5133 153.406 58.64 153.02 58.64ZM155.867 68.8L161.227 61.6H163.807L158.447 68.8H155.867ZM155.867 70V68.8L157.867 68H163.687V70H155.867ZM156.227 62.4V60.4H163.807V61.6L161.807 62.4H156.227ZM169.474 70.2C168.608 70.2 167.821 69.98 167.114 69.54C166.421 69.1 165.868 68.5067 165.454 67.76C165.054 67 164.854 66.1533 164.854 65.22C164.854 64.2733 165.054 63.4267 165.454 62.68C165.868 61.92 166.421 61.32 167.114 60.88C167.821 60.4267 168.608 60.2 169.474 60.2C170.208 60.2 170.854 60.36 171.414 60.68C171.988 60.9867 172.441 61.4133 172.774 61.96C173.108 62.5067 173.274 63.1267 173.274 63.82V66.58C173.274 67.2733 173.108 67.8933 172.774 68.44C172.454 68.9867 172.008 69.42 171.434 69.74C170.861 70.0467 170.208 70.2 169.474 70.2ZM169.834 68.12C170.648 68.12 171.301 67.8467 171.794 67.3C172.301 66.7533 172.554 66.0533 172.554 65.2C172.554 64.6267 172.441 64.12 172.214 63.68C171.988 63.24 171.668 62.9 171.254 62.66C170.854 62.4067 170.381 62.28 169.834 62.28C169.301 62.28 168.828 62.4067 168.414 62.66C168.014 62.9 167.694 63.24 167.454 63.68C167.228 64.12 167.114 64.6267 167.114 65.2C167.114 65.7733 167.228 66.28 167.454 66.72C167.694 67.16 168.014 67.5067 168.414 67.76C168.828 68 169.301 68.12 169.834 68.12ZM172.414 70V67.42L172.794 65.08L172.414 62.76V60.4H174.614V70H172.414ZM178.516 70V56.4H180.716V70H178.516ZM176.216 62.4V60.4H183.016V62.4H176.216ZM184.635 70V60.4H186.835V70H184.635ZM185.735 58.64C185.361 58.64 185.048 58.5133 184.795 58.26C184.555 58.0067 184.435 57.6933 184.435 57.32C184.435 56.9467 184.555 56.6333 184.795 56.38C185.048 56.1267 185.361 56 185.735 56C186.121 56 186.435 56.1267 186.675 56.38C186.915 56.6333 187.035 56.9467 187.035 57.32C187.035 57.6933 186.915 58.0067 186.675 58.26C186.435 58.5133 186.121 58.64 185.735 58.64ZM193.702 70.2C192.769 70.2 191.922 69.98 191.162 69.54C190.402 69.0867 189.795 68.48 189.342 67.72C188.902 66.96 188.682 66.1133 188.682 65.18C188.682 64.2467 188.902 63.4067 189.342 62.66C189.795 61.9133 190.402 61.32 191.162 60.88C191.922 60.4267 192.769 60.2 193.702 60.2C194.649 60.2 195.502 60.42 196.262 60.86C197.022 61.3 197.622 61.9 198.062 62.66C198.515 63.4067 198.742 64.2467 198.742 65.18C198.742 66.1133 198.515 66.96 198.062 67.72C197.622 68.48 197.022 69.0867 196.262 69.54C195.502 69.98 194.649 70.2 193.702 70.2ZM193.702 68.08C194.249 68.08 194.729 67.96 195.142 67.72C195.569 67.4667 195.895 67.12 196.122 66.68C196.362 66.24 196.482 65.74 196.482 65.18C196.482 64.62 196.362 64.1267 196.122 63.7C195.882 63.2733 195.555 62.94 195.142 62.7C194.729 62.4467 194.249 62.32 193.702 62.32C193.169 62.32 192.689 62.4467 192.262 62.7C191.849 62.94 191.522 63.2733 191.282 63.7C191.055 64.1267 190.942 64.62 190.942 65.18C190.942 65.74 191.055 66.24 191.282 66.68C191.522 67.12 191.849 67.4667 192.262 67.72C192.689 67.96 193.169 68.08 193.702 68.08ZM207.152 70V64.46C207.152 63.82 206.945 63.2933 206.532 62.88C206.132 62.4667 205.612 62.26 204.972 62.26C204.545 62.26 204.165 62.3533 203.832 62.54C203.498 62.7267 203.238 62.9867 203.052 63.32C202.865 63.6533 202.772 64.0333 202.772 64.46L201.912 63.98C201.912 63.2467 202.072 62.6 202.392 62.04C202.712 61.4667 203.152 61.02 203.712 60.7C204.285 60.3667 204.925 60.2 205.632 60.2C206.352 60.2 206.992 60.3867 207.552 60.76C208.112 61.12 208.552 61.5933 208.872 62.18C209.192 62.7533 209.352 63.3533 209.352 63.98V70H207.152ZM200.572 70V60.4H202.772V70H200.572ZM218.611 72.38C217.904 71.7533 217.291 70.9867 216.771 70.08C216.264 69.1733 215.871 68.18 215.591 67.1C215.311 66.02 215.171 64.9 215.171 63.74C215.171 62.58 215.311 61.46 215.591 60.38C215.871 59.3 216.264 58.3067 216.771 57.4C217.291 56.4933 217.904 55.7267 218.611 55.1L219.871 56.22C218.991 57.0333 218.304 58.0867 217.811 59.38C217.331 60.66 217.091 62.1133 217.091 63.74C217.091 65.3533 217.331 66.8067 217.811 68.1C218.304 69.3933 218.991 70.4467 219.871 71.26L218.611 72.38ZM225.768 70.2C224.661 70.2 223.721 70 222.948 69.6C222.174 69.2 221.481 68.6133 220.868 67.84L222.428 66.28C222.814 66.84 223.274 67.28 223.808 67.6C224.341 67.9067 225.021 68.06 225.848 68.06C226.621 68.06 227.234 67.9 227.688 67.58C228.154 67.26 228.388 66.82 228.388 66.26C228.388 65.7933 228.268 65.4133 228.028 65.12C227.788 64.8267 227.468 64.5867 227.068 64.4C226.681 64.2 226.248 64.0267 225.768 63.88C225.301 63.72 224.828 63.5467 224.348 63.36C223.881 63.16 223.448 62.9133 223.048 62.62C222.661 62.3267 222.348 61.9467 222.108 61.48C221.868 61.0133 221.748 60.42 221.748 59.7C221.748 58.8733 221.948 58.1733 222.348 57.6C222.761 57.0133 223.314 56.5667 224.008 56.26C224.701 55.9533 225.474 55.8 226.328 55.8C227.248 55.8 228.068 55.98 228.788 56.34C229.521 56.7 230.114 57.16 230.568 57.72L229.008 59.28C228.608 58.8267 228.188 58.4933 227.748 58.28C227.321 58.0533 226.828 57.94 226.268 57.94C225.574 57.94 225.028 58.08 224.628 58.36C224.241 58.64 224.048 59.0333 224.048 59.54C224.048 59.9667 224.168 60.3133 224.408 60.58C224.648 60.8333 224.961 61.0533 225.348 61.24C225.748 61.4133 226.181 61.58 226.648 61.74C227.128 61.9 227.601 62.08 228.068 62.28C228.548 62.48 228.981 62.74 229.368 63.06C229.768 63.3667 230.088 63.7667 230.328 64.26C230.568 64.7533 230.688 65.3733 230.688 66.12C230.688 67.3733 230.241 68.3667 229.348 69.1C228.468 69.8333 227.274 70.2 225.768 70.2ZM232.981 70V56H235.281V70H232.981ZM234.561 70V67.9H242.401V70H234.561ZM234.561 63.86V61.84H241.721V63.86H234.561ZM234.561 58.1V56H242.301V58.1H234.561ZM250.944 70.2C249.944 70.2 249.011 70.0133 248.144 69.64C247.278 69.2667 246.518 68.7533 245.864 68.1C245.211 67.4333 244.698 66.6667 244.324 65.8C243.964 64.92 243.784 63.98 243.784 62.98C243.784 61.98 243.964 61.0467 244.324 60.18C244.698 59.3133 245.204 58.5533 245.844 57.9C246.498 57.2333 247.251 56.72 248.104 56.36C248.971 55.9867 249.904 55.8 250.904 55.8C251.904 55.8 252.831 55.9867 253.684 56.36C254.551 56.72 255.311 57.2333 255.964 57.9C256.618 58.5533 257.124 59.32 257.484 60.2C257.858 61.0667 258.044 62 258.044 63C258.044 64 257.858 64.94 257.484 65.82C257.124 66.6867 256.618 67.4467 255.964 68.1C255.324 68.7533 254.571 69.2667 253.704 69.64C252.851 70.0133 251.931 70.2 250.944 70.2ZM250.904 68C251.851 68 252.678 67.7867 253.384 67.36C254.104 66.9333 254.664 66.3467 255.064 65.6C255.478 64.84 255.684 63.9667 255.684 62.98C255.684 62.2467 255.564 61.58 255.324 60.98C255.098 60.3667 254.771 59.84 254.344 59.4C253.918 58.9467 253.411 58.6 252.824 58.36C252.251 58.12 251.611 58 250.904 58C249.971 58 249.144 58.2133 248.424 58.64C247.718 59.0533 247.158 59.6333 246.744 60.38C246.344 61.1267 246.144 61.9933 246.144 62.98C246.144 63.7133 246.258 64.3933 246.484 65.02C246.724 65.6333 247.051 66.16 247.464 66.6C247.891 67.04 248.398 67.3867 248.984 67.64C249.571 67.88 250.211 68 250.904 68ZM260.369 72.38L259.109 71.26C259.989 70.4467 260.669 69.3933 261.149 68.1C261.642 66.8067 261.889 65.3533 261.889 63.74C261.889 62.1133 261.642 60.66 261.149 59.38C260.669 58.0867 259.989 57.0333 259.109 56.22L260.369 55.1C261.076 55.7267 261.682 56.4933 262.189 57.4C262.709 58.3067 263.109 59.3 263.389 60.38C263.669 61.46 263.809 62.58 263.809 63.74C263.809 64.9 263.669 66.02 263.389 67.1C263.109 68.18 262.709 69.1733 262.189 70.08C261.682 70.9867 261.076 71.7533 260.369 72.38Z" fill="black" fill-opacity="0.7"/>
<path d="M35.1688 45.7392C33.3634 47.5422 32.2945 49.9531 32.1705 52.5016C32.0464 55.0501 32.8762 57.5534 34.4979 59.5232C36.1196 61.4931 38.417 62.7882 40.9418 63.1559C43.4667 63.5236 46.038 62.9376 48.1542 61.5121L57.0209 70.3809C57.3072 70.6737 57.6943 70.8464 58.1035 70.8639C58.5126 70.8814 58.9131 70.7424 59.2233 70.4751C59.5336 70.2078 59.7304 69.8324 59.7737 69.4251C59.817 69.0179 59.7035 68.6095 59.4563 68.2829L59.3 68.1017L50.5146 59.3142C52.1213 57.2541 52.8821 54.6588 52.6417 52.0573C52.4014 49.4558 51.1781 47.0438 49.2211 45.3129C47.2642 43.582 44.7209 42.6625 42.1095 42.7417C39.4981 42.8209 37.0151 43.8929 35.1667 45.7392H35.1688ZM53.0542 29.1621C43.1459 29.1621 34.8542 36.0767 32.7396 45.3434C33.975 43.7756 35.573 42.5315 37.3959 41.7184C39.3756 37.9828 42.623 35.0759 46.5542 33.5204L46.3313 33.8829C45.2104 35.7434 44.3084 38.0725 43.675 40.7163C44.7146 40.8204 45.7396 41.0579 46.7271 41.4246C48.0438 35.9496 50.525 32.2892 53.0542 32.2892L53.2938 32.2996C55.9313 32.5413 58.4771 36.7121 59.6604 42.7079H49.25C50.5078 43.5434 51.6022 44.6018 52.4792 45.8309L60.1334 45.8329C60.4997 49.3024 60.4051 52.805 59.8521 56.2496H54.3396C54.1767 56.8493 53.9685 57.4357 53.7167 58.0038L53.4479 58.5704L53.1938 59.0475L53.5229 59.3746H59.1792C58.7563 60.935 58.2417 62.3288 57.6542 63.51L59.9584 65.8163C60.9834 64.0288 61.8146 61.8413 62.4125 59.3788L68.0854 59.3746C66.2212 62.358 63.514 64.7216 60.3063 66.1663L60.775 66.6309L61.0354 66.9225C61.4938 67.5392 61.7542 68.2246 61.8229 68.9079C65.428 67.2351 68.4795 64.5662 70.6176 61.2159C72.7556 57.8657 73.8909 53.9739 73.8896 49.9996C73.8896 38.4913 64.5604 29.1621 53.0542 29.1621V29.1621ZM47.4042 48.0163C48.0626 48.6692 48.5855 49.4456 48.943 50.3011C49.3005 51.1567 49.4856 52.0743 49.4875 53.0015C49.4895 53.9287 49.3083 54.8472 48.9543 55.7042C48.6004 56.5612 48.0807 57.3399 47.4251 57.9955C46.7694 58.6511 45.9908 59.1708 45.1338 59.5247C44.2768 59.8787 43.3583 60.0599 42.4311 60.0579C41.5039 60.056 40.5862 59.871 39.7307 59.5134C38.8752 59.1559 38.0987 58.633 37.4459 57.9746C36.1344 56.6522 35.4003 54.864 35.4042 53.0015C35.4081 51.1391 36.1497 49.354 37.4667 48.0371C38.7836 46.7201 40.5687 45.9785 42.4311 45.9746C44.2936 45.9707 46.0817 46.7048 47.4042 48.0163V48.0163ZM63.275 45.8329L70.2709 45.8309L70.2875 45.8934C70.6 47.2121 70.7667 48.585 70.7667 49.9975C70.7688 52.1323 70.3841 54.2499 69.6313 56.2475L63.0188 56.2517C63.3167 54.2725 63.4729 52.1725 63.4729 49.9996C63.4729 48.5746 63.4063 47.1809 63.275 45.8329V45.8329ZM59.5521 33.5184L59.6 33.535C63.8649 35.2376 67.3053 38.5249 69.2 42.7079H62.8479C62.1959 39.0559 61.0563 35.8788 59.5521 33.5204V33.5184Z" fill="#70B9AC"/>
</svg>
