<svg width="300" height="100" viewBox="0 0 300 100" fill="none" xmlns="http://www.w3.org/2000/svg">
<rect width="300" height="100" rx="16" fill="#EDF1F1"/>
<path d="M131.42 45.2C130.313 45.2 129.373 45 128.6 44.6C127.827 44.2 127.133 43.6133 126.52 42.84L128.08 41.28C128.467 41.84 128.927 42.28 129.46 42.6C129.993 42.9067 130.673 43.06 131.5 43.06C132.273 43.06 132.887 42.9 133.34 42.58C133.807 42.26 134.04 41.82 134.04 41.26C134.04 40.7933 133.92 40.4133 133.68 40.12C133.44 39.8267 133.12 39.5867 132.72 39.4C132.333 39.2 131.9 39.0267 131.42 38.88C130.953 38.72 130.48 38.5467 130 38.36C129.533 38.16 129.1 37.9133 128.7 37.62C128.313 37.3267 128 36.9467 127.76 36.48C127.52 36.0133 127.4 35.42 127.4 34.7C127.4 33.8733 127.6 33.1733 128 32.6C128.413 32.0133 128.967 31.5667 129.66 31.26C130.353 30.9533 131.127 30.8 131.98 30.8C132.9 30.8 133.72 30.98 134.44 31.34C135.173 31.7 135.767 32.16 136.22 32.72L134.66 34.28C134.26 33.8267 133.84 33.4933 133.4 33.28C132.973 33.0533 132.48 32.94 131.92 32.94C131.227 32.94 130.68 33.08 130.28 33.36C129.893 33.64 129.7 34.0333 129.7 34.54C129.7 34.9667 129.82 35.3133 130.06 35.58C130.3 35.8333 130.613 36.0533 131 36.24C131.4 36.4133 131.833 36.58 132.3 36.74C132.78 36.9 133.253 37.08 133.72 37.28C134.2 37.48 134.633 37.74 135.02 38.06C135.42 38.3667 135.74 38.7667 135.98 39.26C136.22 39.7533 136.34 40.3733 136.34 41.12C136.34 42.3733 135.893 43.3667 135 44.1C134.12 44.8333 132.927 45.2 131.42 45.2ZM142.616 45.2C141.683 45.2 140.836 44.98 140.076 44.54C139.316 44.0867 138.709 43.48 138.256 42.72C137.816 41.96 137.596 41.1133 137.596 40.18C137.596 39.2467 137.816 38.4067 138.256 37.66C138.709 36.9133 139.316 36.32 140.076 35.88C140.836 35.4267 141.683 35.2 142.616 35.2C143.563 35.2 144.416 35.42 145.176 35.86C145.936 36.3 146.536 36.9 146.976 37.66C147.429 38.4067 147.656 39.2467 147.656 40.18C147.656 41.1133 147.429 41.96 146.976 42.72C146.536 43.48 145.936 44.0867 145.176 44.54C144.416 44.98 143.563 45.2 142.616 45.2ZM142.616 43.08C143.163 43.08 143.643 42.96 144.056 42.72C144.483 42.4667 144.809 42.12 145.036 41.68C145.276 41.24 145.396 40.74 145.396 40.18C145.396 39.62 145.276 39.1267 145.036 38.7C144.796 38.2733 144.469 37.94 144.056 37.7C143.643 37.4467 143.163 37.32 142.616 37.32C142.083 37.32 141.603 37.4467 141.176 37.7C140.763 37.94 140.436 38.2733 140.196 38.7C139.969 39.1267 139.856 39.62 139.856 40.18C139.856 40.74 139.969 41.24 140.196 41.68C140.436 42.12 140.763 42.4667 141.176 42.72C141.603 42.96 142.083 43.08 142.616 43.08ZM153.906 45.2C152.959 45.2 152.099 44.98 151.326 44.54C150.566 44.1 149.966 43.5 149.526 42.74C149.086 41.98 148.866 41.1333 148.866 40.2C148.866 39.2533 149.086 38.4067 149.526 37.66C149.966 36.9 150.566 36.3 151.326 35.86C152.099 35.42 152.959 35.2 153.906 35.2C154.652 35.2 155.346 35.3467 155.986 35.64C156.639 35.92 157.192 36.3267 157.646 36.86L156.206 38.32C155.926 37.9867 155.586 37.74 155.186 37.58C154.799 37.4067 154.372 37.32 153.906 37.32C153.359 37.32 152.872 37.4467 152.446 37.7C152.032 37.94 151.706 38.2733 151.466 38.7C151.239 39.1267 151.126 39.6267 151.126 40.2C151.126 40.76 151.239 41.26 151.466 41.7C151.706 42.1267 152.032 42.4667 152.446 42.72C152.872 42.96 153.359 43.08 153.906 43.08C154.372 43.08 154.799 43 155.186 42.84C155.586 42.6667 155.926 42.4133 156.206 42.08L157.646 43.54C157.192 44.0733 156.639 44.4867 155.986 44.78C155.346 45.06 154.652 45.2 153.906 45.2ZM159.252 45V35.4H161.452V45H159.252ZM160.352 33.64C159.978 33.64 159.665 33.5133 159.412 33.26C159.172 33.0067 159.052 32.6933 159.052 32.32C159.052 31.9467 159.172 31.6333 159.412 31.38C159.665 31.1267 159.978 31 160.352 31C160.738 31 161.052 31.1267 161.292 31.38C161.532 31.6333 161.652 31.9467 161.652 32.32C161.652 32.6933 161.532 33.0067 161.292 33.26C161.052 33.5133 160.738 33.64 160.352 33.64ZM167.939 45.2C167.073 45.2 166.286 44.98 165.579 44.54C164.886 44.1 164.333 43.5067 163.919 42.76C163.519 42 163.319 41.1533 163.319 40.22C163.319 39.2733 163.519 38.4267 163.919 37.68C164.333 36.92 164.886 36.32 165.579 35.88C166.286 35.4267 167.073 35.2 167.939 35.2C168.673 35.2 169.319 35.36 169.879 35.68C170.453 35.9867 170.906 36.4133 171.239 36.96C171.573 37.5067 171.739 38.1267 171.739 38.82V41.58C171.739 42.2733 171.573 42.8933 171.239 43.44C170.919 43.9867 170.473 44.42 169.899 44.74C169.326 45.0467 168.673 45.2 167.939 45.2ZM168.299 43.12C169.113 43.12 169.766 42.8467 170.259 42.3C170.766 41.7533 171.019 41.0533 171.019 40.2C171.019 39.6267 170.906 39.12 170.679 38.68C170.453 38.24 170.133 37.9 169.719 37.66C169.319 37.4067 168.846 37.28 168.299 37.28C167.766 37.28 167.293 37.4067 166.879 37.66C166.479 37.9 166.159 38.24 165.919 38.68C165.693 39.12 165.579 39.6267 165.579 40.2C165.579 40.7733 165.693 41.28 165.919 41.72C166.159 42.16 166.479 42.5067 166.879 42.76C167.293 43 167.766 43.12 168.299 43.12ZM170.879 45V42.42L171.259 40.08L170.879 37.76V35.4H173.079V45H170.879ZM175.521 45V30.6H177.721V45H175.521ZM184.473 45V31H186.073L191.893 40.58H190.853L196.673 31H198.273V45H195.973V35.04L196.493 35.18L192.173 42.28H190.573L186.253 35.18L186.773 35.04V45H184.473ZM205.469 45.2C204.509 45.2 203.642 44.9867 202.869 44.56C202.109 44.12 201.502 43.52 201.049 42.76C200.609 42 200.389 41.1467 200.389 40.2C200.389 39.2533 200.609 38.4067 201.049 37.66C201.489 36.9 202.082 36.3 202.829 35.86C203.589 35.42 204.429 35.2 205.349 35.2C206.242 35.2 207.029 35.4067 207.709 35.82C208.402 36.2333 208.942 36.8 209.329 37.52C209.729 38.24 209.929 39.06 209.929 39.98C209.929 40.14 209.916 40.3067 209.889 40.48C209.876 40.64 209.849 40.82 209.809 41.02H201.929V39.22H208.669L207.849 39.94C207.822 39.3533 207.709 38.86 207.509 38.46C207.309 38.06 207.022 37.7533 206.649 37.54C206.289 37.3267 205.842 37.22 205.309 37.22C204.749 37.22 204.262 37.34 203.849 37.58C203.436 37.82 203.116 38.16 202.889 38.6C202.662 39.0267 202.549 39.54 202.549 40.14C202.549 40.74 202.669 41.2667 202.909 41.72C203.149 42.1733 203.489 42.5267 203.929 42.78C204.369 43.02 204.876 43.14 205.449 43.14C205.942 43.14 206.396 43.0533 206.809 42.88C207.236 42.7067 207.596 42.4533 207.889 42.12L209.289 43.54C208.822 44.0867 208.256 44.5 207.589 44.78C206.922 45.06 206.216 45.2 205.469 45.2ZM215.713 45.2C214.846 45.2 214.059 44.98 213.353 44.54C212.659 44.1 212.106 43.5067 211.693 42.76C211.293 42 211.093 41.1533 211.093 40.22C211.093 39.2733 211.293 38.4267 211.693 37.68C212.106 36.92 212.659 36.32 213.353 35.88C214.059 35.4267 214.846 35.2 215.713 35.2C216.446 35.2 217.093 35.36 217.653 35.68C218.226 35.9867 218.679 36.4133 219.013 36.96C219.346 37.5067 219.513 38.1267 219.513 38.82V41.58C219.513 42.2733 219.346 42.8933 219.013 43.44C218.693 43.9867 218.246 44.42 217.673 44.74C217.099 45.0467 216.446 45.2 215.713 45.2ZM216.073 43.12C216.619 43.12 217.093 43 217.493 42.76C217.906 42.5067 218.226 42.16 218.453 41.72C218.679 41.28 218.793 40.7733 218.793 40.2C218.793 39.6267 218.679 39.12 218.453 38.68C218.226 38.24 217.906 37.9 217.493 37.66C217.093 37.4067 216.619 37.28 216.073 37.28C215.539 37.28 215.066 37.4067 214.653 37.66C214.253 37.9 213.933 38.24 213.693 38.68C213.466 39.12 213.353 39.6267 213.353 40.2C213.353 40.7733 213.466 41.28 213.693 41.72C213.933 42.16 214.253 42.5067 214.653 42.76C215.066 43 215.539 43.12 216.073 43.12ZM220.853 45H218.653V42.42L219.033 40.08L218.653 37.76V30.6H220.853V45ZM223.314 45V35.4H225.514V45H223.314ZM224.414 33.64C224.041 33.64 223.728 33.5133 223.474 33.26C223.234 33.0067 223.114 32.6933 223.114 32.32C223.114 31.9467 223.234 31.6333 223.474 31.38C223.728 31.1267 224.041 31 224.414 31C224.801 31 225.114 31.1267 225.354 31.38C225.594 31.6333 225.714 31.9467 225.714 32.32C225.714 32.6933 225.594 33.0067 225.354 33.26C225.114 33.5133 224.801 33.64 224.414 33.64ZM232.002 45.2C231.135 45.2 230.348 44.98 229.642 44.54C228.948 44.1 228.395 43.5067 227.982 42.76C227.582 42 227.382 41.1533 227.382 40.22C227.382 39.2733 227.582 38.4267 227.982 37.68C228.395 36.92 228.948 36.32 229.642 35.88C230.348 35.4267 231.135 35.2 232.002 35.2C232.735 35.2 233.382 35.36 233.942 35.68C234.515 35.9867 234.968 36.4133 235.302 36.96C235.635 37.5067 235.802 38.1267 235.802 38.82V41.58C235.802 42.2733 235.635 42.8933 235.302 43.44C234.982 43.9867 234.535 44.42 233.962 44.74C233.388 45.0467 232.735 45.2 232.002 45.2ZM232.362 43.12C233.175 43.12 233.828 42.8467 234.322 42.3C234.828 41.7533 235.082 41.0533 235.082 40.2C235.082 39.6267 234.968 39.12 234.742 38.68C234.515 38.24 234.195 37.9 233.782 37.66C233.382 37.4067 232.908 37.28 232.362 37.28C231.828 37.28 231.355 37.4067 230.942 37.66C230.542 37.9 230.222 38.24 229.982 38.68C229.755 39.12 229.642 39.6267 229.642 40.2C229.642 40.7733 229.755 41.28 229.982 41.72C230.222 42.16 230.542 42.5067 230.942 42.76C231.355 43 231.828 43.12 232.362 43.12ZM234.942 45V42.42L235.322 40.08L234.942 37.76V35.4H237.142V45H234.942ZM129.1 64.72V62.72H132.6C133.08 62.72 133.5 62.6267 133.86 62.44C134.233 62.24 134.527 61.9667 134.74 61.62C134.953 61.26 135.06 60.84 135.06 60.36C135.06 59.88 134.953 59.4667 134.74 59.12C134.527 58.76 134.233 58.4867 133.86 58.3C133.5 58.1 133.08 58 132.6 58H129.1V56H132.72C133.6 56 134.387 56.18 135.08 56.54C135.787 56.9 136.34 57.4067 136.74 58.06C137.153 58.7133 137.36 59.48 137.36 60.36C137.36 61.24 137.153 62.0067 136.74 62.66C136.34 63.3133 135.787 63.82 135.08 64.18C134.387 64.54 133.6 64.72 132.72 64.72H129.1ZM127.52 70V56H129.82V70H127.52ZM139.29 70V60.4H141.49V70H139.29ZM141.49 64.66L140.73 64.28C140.73 63.0667 140.997 62.0867 141.53 61.34C142.077 60.58 142.897 60.2 143.99 60.2C144.47 60.2 144.904 60.2867 145.29 60.46C145.677 60.6333 146.037 60.9133 146.37 61.3L144.93 62.78C144.757 62.5933 144.564 62.46 144.35 62.38C144.137 62.3 143.89 62.26 143.61 62.26C142.997 62.26 142.49 62.4533 142.09 62.84C141.69 63.2267 141.49 63.8333 141.49 64.66ZM151.542 70.2C150.609 70.2 149.762 69.98 149.002 69.54C148.242 69.0867 147.635 68.48 147.182 67.72C146.742 66.96 146.522 66.1133 146.522 65.18C146.522 64.2467 146.742 63.4067 147.182 62.66C147.635 61.9133 148.242 61.32 149.002 60.88C149.762 60.4267 150.609 60.2 151.542 60.2C152.489 60.2 153.342 60.42 154.102 60.86C154.862 61.3 155.462 61.9 155.902 62.66C156.355 63.4067 156.582 64.2467 156.582 65.18C156.582 66.1133 156.355 66.96 155.902 67.72C155.462 68.48 154.862 69.0867 154.102 69.54C153.342 69.98 152.489 70.2 151.542 70.2ZM151.542 68.08C152.089 68.08 152.569 67.96 152.982 67.72C153.409 67.4667 153.735 67.12 153.962 66.68C154.202 66.24 154.322 65.74 154.322 65.18C154.322 64.62 154.202 64.1267 153.962 63.7C153.722 63.2733 153.395 62.94 152.982 62.7C152.569 62.4467 152.089 62.32 151.542 62.32C151.009 62.32 150.529 62.4467 150.102 62.7C149.689 62.94 149.362 63.2733 149.122 63.7C148.895 64.1267 148.782 64.62 148.782 65.18C148.782 65.74 148.895 66.24 149.122 66.68C149.362 67.12 149.689 67.4667 150.102 67.72C150.529 67.96 151.009 68.08 151.542 68.08ZM158.411 70V60.4H160.611V70H158.411ZM164.791 70V64.28C164.791 63.64 164.591 63.1467 164.191 62.8C163.791 62.44 163.298 62.26 162.711 62.26C162.311 62.26 161.951 62.34 161.631 62.5C161.325 62.66 161.078 62.8933 160.891 63.2C160.705 63.4933 160.611 63.8533 160.611 64.28L159.751 63.8C159.751 63.0667 159.911 62.4333 160.231 61.9C160.551 61.3667 160.985 60.9533 161.531 60.66C162.078 60.3533 162.691 60.2 163.371 60.2C164.051 60.2 164.665 60.3467 165.211 60.64C165.758 60.9333 166.191 61.3467 166.511 61.88C166.831 62.4133 166.991 63.0533 166.991 63.8V70H164.791ZM171.171 70V64.28C171.171 63.64 170.971 63.1467 170.571 62.8C170.171 62.44 169.678 62.26 169.091 62.26C168.705 62.26 168.351 62.34 168.031 62.5C167.711 62.66 167.458 62.8933 167.271 63.2C167.085 63.4933 166.991 63.8533 166.991 64.28L165.751 63.8C165.818 63.0667 166.031 62.4333 166.391 61.9C166.751 61.3667 167.211 60.9533 167.771 60.66C168.345 60.3533 168.971 60.2 169.651 60.2C170.345 60.2 170.971 60.3467 171.531 60.64C172.091 60.9333 172.538 61.3467 172.871 61.88C173.205 62.4133 173.371 63.0533 173.371 63.8V70H171.171ZM180.038 70.2C179.105 70.2 178.258 69.98 177.498 69.54C176.738 69.0867 176.131 68.48 175.678 67.72C175.238 66.96 175.018 66.1133 175.018 65.18C175.018 64.2467 175.238 63.4067 175.678 62.66C176.131 61.9133 176.738 61.32 177.498 60.88C178.258 60.4267 179.105 60.2 180.038 60.2C180.985 60.2 181.838 60.42 182.598 60.86C183.358 61.3 183.958 61.9 184.398 62.66C184.851 63.4067 185.078 64.2467 185.078 65.18C185.078 66.1133 184.851 66.96 184.398 67.72C183.958 68.48 183.358 69.0867 182.598 69.54C181.838 69.98 180.985 70.2 180.038 70.2ZM180.038 68.08C180.585 68.08 181.065 67.96 181.478 67.72C181.905 67.4667 182.231 67.12 182.458 66.68C182.698 66.24 182.818 65.74 182.818 65.18C182.818 64.62 182.698 64.1267 182.458 63.7C182.218 63.2733 181.891 62.94 181.478 62.7C181.065 62.4467 180.585 62.32 180.038 62.32C179.505 62.32 179.025 62.4467 178.598 62.7C178.185 62.94 177.858 63.2733 177.618 63.7C177.391 64.1267 177.278 64.62 177.278 65.18C177.278 65.74 177.391 66.24 177.618 66.68C177.858 67.12 178.185 67.4667 178.598 67.72C179.025 67.96 179.505 68.08 180.038 68.08ZM188.094 70V56.4H190.294V70H188.094ZM185.794 62.4V60.4H192.594V62.4H185.794ZM194.213 70V60.4H196.413V70H194.213ZM195.313 58.64C194.939 58.64 194.626 58.5133 194.373 58.26C194.133 58.0067 194.013 57.6933 194.013 57.32C194.013 56.9467 194.133 56.6333 194.373 56.38C194.626 56.1267 194.939 56 195.313 56C195.699 56 196.013 56.1267 196.253 56.38C196.493 56.6333 196.613 56.9467 196.613 57.32C196.613 57.6933 196.493 58.0067 196.253 58.26C196.013 58.5133 195.699 58.64 195.313 58.64ZM203.28 70.2C202.347 70.2 201.5 69.98 200.74 69.54C199.98 69.0867 199.373 68.48 198.92 67.72C198.48 66.96 198.26 66.1133 198.26 65.18C198.26 64.2467 198.48 63.4067 198.92 62.66C199.373 61.9133 199.98 61.32 200.74 60.88C201.5 60.4267 202.347 60.2 203.28 60.2C204.227 60.2 205.08 60.42 205.84 60.86C206.6 61.3 207.2 61.9 207.64 62.66C208.093 63.4067 208.32 64.2467 208.32 65.18C208.32 66.1133 208.093 66.96 207.64 67.72C207.2 68.48 206.6 69.0867 205.84 69.54C205.08 69.98 204.227 70.2 203.28 70.2ZM203.28 68.08C203.827 68.08 204.307 67.96 204.72 67.72C205.147 67.4667 205.473 67.12 205.7 66.68C205.94 66.24 206.06 65.74 206.06 65.18C206.06 64.62 205.94 64.1267 205.7 63.7C205.46 63.2733 205.133 62.94 204.72 62.7C204.307 62.4467 203.827 62.32 203.28 62.32C202.747 62.32 202.267 62.4467 201.84 62.7C201.427 62.94 201.1 63.2733 200.86 63.7C200.633 64.1267 200.52 64.62 200.52 65.18C200.52 65.74 200.633 66.24 200.86 66.68C201.1 67.12 201.427 67.4667 201.84 67.72C202.267 67.96 202.747 68.08 203.28 68.08ZM216.73 70V64.46C216.73 63.82 216.523 63.2933 216.11 62.88C215.71 62.4667 215.19 62.26 214.55 62.26C214.123 62.26 213.743 62.3533 213.41 62.54C213.076 62.7267 212.816 62.9867 212.63 63.32C212.443 63.6533 212.35 64.0333 212.35 64.46L211.49 63.98C211.49 63.2467 211.65 62.6 211.97 62.04C212.29 61.4667 212.73 61.02 213.29 60.7C213.863 60.3667 214.503 60.2 215.21 60.2C215.93 60.2 216.57 60.3867 217.13 60.76C217.69 61.12 218.13 61.5933 218.45 62.18C218.77 62.7533 218.93 63.3533 218.93 63.98V70H216.73ZM210.15 70V60.4H212.35V70H210.15ZM224.305 70.2C223.772 70.2 223.259 70.1333 222.765 70C222.272 69.8533 221.819 69.6533 221.405 69.4C220.992 69.1333 220.632 68.8133 220.325 68.44L221.725 67.04C222.059 67.4267 222.439 67.72 222.865 67.92C223.305 68.1067 223.799 68.2 224.345 68.2C224.839 68.2 225.212 68.1267 225.465 67.98C225.719 67.8333 225.845 67.62 225.845 67.34C225.845 67.0467 225.725 66.82 225.485 66.66C225.245 66.5 224.932 66.3667 224.545 66.26C224.172 66.14 223.772 66.02 223.345 65.9C222.932 65.78 222.532 65.62 222.145 65.42C221.772 65.2067 221.465 64.92 221.225 64.56C220.985 64.2 220.865 63.7333 220.865 63.16C220.865 62.5467 221.005 62.02 221.285 61.58C221.579 61.14 221.985 60.8 222.505 60.56C223.039 60.32 223.672 60.2 224.405 60.2C225.179 60.2 225.859 60.34 226.445 60.62C227.045 60.8867 227.545 61.2933 227.945 61.84L226.545 63.24C226.265 62.8933 225.945 62.6333 225.585 62.46C225.225 62.2867 224.812 62.2 224.345 62.2C223.905 62.2 223.565 62.2667 223.325 62.4C223.085 62.5333 222.965 62.7267 222.965 62.98C222.965 63.2467 223.085 63.4533 223.325 63.6C223.565 63.7467 223.872 63.8733 224.245 63.98C224.632 64.0867 225.032 64.2067 225.445 64.34C225.872 64.46 226.272 64.6333 226.645 64.86C227.032 65.0733 227.345 65.3667 227.585 65.74C227.825 66.1 227.945 66.5733 227.945 67.16C227.945 68.0933 227.619 68.8333 226.965 69.38C226.312 69.9267 225.425 70.2 224.305 70.2Z" fill="black" fill-opacity="0.7"/>
<path d="M77.7083 60.4173H72.3208L72.9312 59.8069C73.3107 59.414 73.5207 58.8877 73.516 58.3415C73.5112 57.7952 73.2921 57.2727 72.9059 56.8864C72.5196 56.5002 71.9971 56.2811 71.4508 56.2763C70.9046 56.2716 70.3783 56.4816 69.9854 56.8611L65.8187 61.0277C65.4302 61.4195 65.2122 61.9489 65.2122 62.5006C65.2122 63.0524 65.4302 63.5818 65.8187 63.9736L69.9854 68.1402C70.3783 68.5197 70.9046 68.7297 71.4508 68.725C71.9971 68.7202 72.5196 68.5011 72.9059 68.1149C73.2921 67.7286 73.5112 67.2061 73.516 66.6598C73.5207 66.1136 73.3107 65.5873 72.9312 65.1944L72.3208 64.584H77.7083C78.2608 64.584 78.7908 64.3645 79.1815 63.9738C79.5722 63.5831 79.7916 63.0532 79.7916 62.5006C79.7916 61.9481 79.5722 61.4182 79.1815 61.0275C78.7908 60.6368 78.2608 60.4173 77.7083 60.4173ZM104.181 61.0277L100.015 56.8611C99.6216 56.4816 99.0954 56.2716 98.5491 56.2763C98.0029 56.2811 97.4804 56.5002 97.0941 56.8864C96.7078 57.2727 96.4887 57.7952 96.484 58.3415C96.4792 58.8877 96.6892 59.414 97.0687 59.8069L97.6791 60.4173H92.2916C91.7391 60.4173 91.2092 60.6368 90.8185 61.0275C90.4278 61.4182 90.2083 61.9481 90.2083 62.5006C90.2083 63.0532 90.4278 63.5831 90.8185 63.9738C91.2092 64.3645 91.7391 64.584 92.2916 64.584H97.6791L97.0687 65.1944C96.8697 65.3866 96.711 65.6165 96.6019 65.8706C96.4927 66.1248 96.4352 66.3982 96.4328 66.6748C96.4304 66.9514 96.4831 67.2258 96.5878 67.4818C96.6926 67.7378 96.8473 67.9704 97.0429 68.1661C97.2385 68.3617 97.4711 68.5164 97.7272 68.6211C97.9832 68.7259 98.2575 68.7786 98.5341 68.7762C98.8108 68.7738 99.0841 68.7163 99.3383 68.6071C99.5925 68.4979 99.8224 68.3392 100.015 68.1402L104.181 63.9736C104.57 63.5818 104.788 63.0524 104.788 62.5006C104.788 61.9489 104.57 61.4195 104.181 61.0277V61.0277ZM103 45.359C104.148 44.0488 104.785 42.3678 104.792 40.6257C104.792 38.6918 104.023 36.8371 102.656 35.4697C101.289 34.1022 99.4338 33.334 97.5 33.334C95.5661 33.334 93.7114 34.1022 92.344 35.4697C90.9765 36.8371 90.2083 38.6918 90.2083 40.6257C90.2153 42.3678 90.8516 44.0488 92 45.359C90.4999 46.2888 89.2614 47.5855 88.4011 49.1265C87.5409 50.6676 87.0874 52.4024 87.0833 54.1673C87.0833 54.7199 87.3028 55.2498 87.6935 55.6405C88.0842 56.0312 88.6141 56.2507 89.1666 56.2507C89.7192 56.2507 90.2491 56.0312 90.6398 55.6405C91.0305 55.2498 91.25 54.7199 91.25 54.1673C91.25 52.5097 91.9085 50.92 93.0806 49.7479C94.2527 48.5758 95.8424 47.9173 97.5 47.9173C99.1576 47.9173 100.747 48.5758 101.919 49.7479C103.091 50.92 103.75 52.5097 103.75 54.1673C103.75 54.7199 103.969 55.2498 104.36 55.6405C104.751 56.0312 105.281 56.2507 105.833 56.2507C106.386 56.2507 106.916 56.0312 107.306 55.6405C107.697 55.2498 107.917 54.7199 107.917 54.1673C107.913 52.4024 107.459 50.6676 106.599 49.1265C105.739 47.5855 104.5 46.2888 103 45.359V45.359ZM97.5 43.7507C96.8819 43.7507 96.2777 43.5674 95.7638 43.224C95.2499 42.8806 94.8494 42.3926 94.6129 41.8215C94.3763 41.2505 94.3144 40.6222 94.435 40.016C94.5556 39.4098 94.8532 38.853 95.2903 38.4159C95.7273 37.9789 96.2841 37.6813 96.8903 37.5607C97.4965 37.4401 98.1248 37.502 98.6959 37.7385C99.2669 37.9751 99.7549 38.3756 100.098 38.8895C100.442 39.4034 100.625 40.0076 100.625 40.6257C100.624 41.4541 100.294 42.2483 99.7085 42.8341C99.1227 43.42 98.3284 43.7495 97.5 43.7507V43.7507ZM78 45.359C79.1484 44.0488 79.7846 42.3678 79.7916 40.6257C79.7916 38.6918 79.0234 36.8371 77.656 35.4697C76.2885 34.1022 74.4338 33.334 72.5 33.334C70.5661 33.334 68.7114 34.1022 67.344 35.4697C65.9765 36.8371 65.2083 38.6918 65.2083 40.6257C65.2153 42.3678 65.8516 44.0488 67 45.359C65.4999 46.2888 64.2614 47.5855 63.4011 49.1265C62.5409 50.6676 62.0874 52.4024 62.0833 54.1673C62.0833 54.7199 62.3028 55.2498 62.6935 55.6405C63.0842 56.0312 63.6141 56.2507 64.1666 56.2507C64.7192 56.2507 65.2491 56.0312 65.6398 55.6405C66.0305 55.2498 66.25 54.7199 66.25 54.1673C66.25 52.5097 66.9085 50.92 68.0806 49.7479C69.2527 48.5758 70.8424 47.9173 72.5 47.9173C74.1576 47.9173 75.7473 48.5758 76.9194 49.7479C78.0915 50.92 78.75 52.5097 78.75 54.1673C78.75 54.7199 78.9695 55.2498 79.3602 55.6405C79.7509 56.0312 80.2808 56.2507 80.8333 56.2507C81.3858 56.2507 81.9158 56.0312 82.3065 55.6405C82.6972 55.2498 82.9166 54.7199 82.9166 54.1673C82.9126 52.4024 82.459 50.6676 81.5988 49.1265C80.7386 47.5855 79.5001 46.2888 78 45.359V45.359ZM72.5 43.7507C71.8819 43.7507 71.2777 43.5674 70.7638 43.224C70.2499 42.8806 69.8494 42.3926 69.6129 41.8215C69.3763 41.2505 69.3144 40.6222 69.435 40.016C69.5556 39.4098 69.8532 38.853 70.2903 38.4159C70.7273 37.9789 71.2841 37.6813 71.8903 37.5607C72.4965 37.4401 73.1248 37.502 73.6959 37.7385C74.2669 37.9751 74.7549 38.3756 75.0983 38.8895C75.4417 39.4034 75.625 40.0076 75.625 40.6257C75.6239 41.4541 75.2943 42.2483 74.7085 42.8341C74.1227 43.42 73.3284 43.7495 72.5 43.7507V43.7507Z" fill="#A7AAAA"/>
</svg>
