<svg width="88" height="88" viewBox="0 0 88 88" fill="none" xmlns="http://www.w3.org/2000/svg">
<circle cx="44" cy="44" r="44" fill="#FFEEE8"/>
<g clip-path="url(#clip0_1_143)">
<path d="M57.7078 60.3226L56.0649 55.3932C55.4907 53.6722 54.026 52.4019 52.2404 52.0769L47.4976 51.2139V50.8463C48.323 50.3673 49.0412 49.7264 49.6132 48.9678H51.046C52.2198 48.9678 53.1751 48.0125 53.1751 46.8387V38.3226C53.1751 33.2356 49.0362 29.0968 43.9493 29.0968C38.8623 29.0968 34.7235 33.2356 34.7235 38.3226V43.2903C34.7235 44.6586 35.6964 45.8033 36.9866 46.0702C37.3847 48.1098 38.6593 49.8357 40.4009 50.8463V51.2139L35.6574 52.0769C33.8725 52.4019 32.4071 53.6722 31.8336 55.3932L31.5498 56.2455L29.1326 53.8283C28.8558 53.5516 28.8558 53.1009 29.1326 52.8242L31.9358 50.0216L26.6743 44.7601L23.5063 47.9281C22.5681 48.8663 22.0515 50.1139 22.0515 51.441C22.0515 52.7681 22.5681 54.015 23.5063 54.9532L33.0976 64.5445C34.0358 65.4827 35.2834 66 36.6105 66C37.9376 66 39.1845 65.4827 40.1007 64.5658L43.5575 61.3985L42.4795 60.3226H57.7078ZM51.7557 46.8387C51.7557 47.2305 51.4371 47.5484 51.046 47.5484H50.4492C50.655 47.0793 50.8111 46.5847 50.9119 46.0702C51.2156 46.007 51.4953 45.8863 51.7557 45.7345V46.8387ZM51.046 44.5124V42.0683C51.4683 42.3145 51.7557 42.7673 51.7557 43.2903C51.7557 43.8134 51.4683 44.2662 51.046 44.5124ZM36.8525 44.5124C36.4302 44.2662 36.1428 43.8134 36.1428 43.2903C36.1428 42.7673 36.4302 42.3145 36.8525 42.0683V44.5124ZM36.8525 39.742V40.5524C36.5998 40.6184 36.3628 40.7178 36.1428 40.8462V38.3226C36.1428 34.0184 39.6451 30.5162 43.9493 30.5162C48.2535 30.5162 51.7557 34.0184 51.7557 38.3226V40.8462C51.5357 40.7178 51.2987 40.6177 51.046 40.5524V39.742H50.3364C48.2378 39.742 46.2649 38.9244 44.7803 37.4405L43.9493 36.6094L43.1182 37.4405C41.6336 38.9244 39.6607 39.742 37.5622 39.742H36.8525ZM38.2718 44.7097V41.1343C40.403 40.974 42.3901 40.0947 43.9493 38.6122C45.5084 40.0947 47.4955 40.9747 49.6267 41.1343V44.7097C49.6267 45.7444 49.3442 46.7124 48.8588 47.5484H43.9493V48.9678H47.6921C46.6915 49.8485 45.3835 50.3871 43.9493 50.3871C40.8189 50.3871 38.2718 47.8401 38.2718 44.7097ZM46.0783 51.4793V51.5127L43.9493 53.6417L41.8202 51.5127V51.4793C42.493 51.6908 43.2076 51.8065 43.9493 51.8065C44.6909 51.8065 45.4055 51.6908 46.0783 51.4793ZM33.1792 55.8417C33.5887 54.6125 34.6355 53.7049 35.9107 53.4721L40.8714 52.5708L43.9493 55.6487L47.0264 52.5715L51.9864 53.4728C53.2616 53.7056 54.3084 54.6125 54.7179 55.8424L55.7391 58.9033H41.0602L38.296 56.1391L35.2245 58.9174C34.9569 59.1864 34.4893 59.1864 34.221 58.9174L32.6711 57.3675L33.1792 55.8417ZM26.6736 46.7671L29.9282 50.0216L29.1575 50.7923L25.9029 47.5378L26.6736 46.7671ZM39.1178 63.5424C38.4478 64.2109 37.5565 64.5807 36.6091 64.5807C35.6616 64.5807 34.7703 64.2109 34.0996 63.541L24.5084 53.9504C23.8384 53.2805 23.4694 52.3891 23.4694 51.4417C23.4694 50.4936 23.8384 49.6022 24.5084 48.9323L24.8987 48.542L28.1533 51.7965L28.1277 51.8221C27.2981 52.6524 27.2981 54.0029 28.1277 54.8333L33.2168 59.9223C33.6192 60.324 34.1536 60.5462 34.7227 60.5462C35.2919 60.5462 35.8263 60.3247 36.2024 59.9472L36.2556 59.8996L39.5251 63.1691L39.1178 63.5424ZM40.5726 62.2082L37.3102 58.9458L38.2477 58.0985L41.5044 61.3552L40.5726 62.2082Z" fill="#FF5414"/>
<path d="M63.8202 22H53.8847C52.7109 22 51.7557 22.9552 51.7557 24.129V29.8065C51.7557 30.9803 52.7109 31.9355 53.8847 31.9355H55.7803L55.0465 36.2155L61.8949 31.9355H63.8202C64.994 31.9355 65.9493 30.9803 65.9493 29.8065V24.129C65.9493 22.9552 64.994 22 63.8202 22ZM64.5299 29.8065C64.5299 30.1975 64.2113 30.5161 63.8202 30.5161H61.4875L56.9804 33.3328L57.4636 30.5161H53.8847C53.4937 30.5161 53.1751 30.1975 53.1751 29.8065V24.129C53.1751 23.738 53.4937 23.4194 53.8847 23.4194H63.8202C64.2113 23.4194 64.5299 23.738 64.5299 24.129V29.8065Z" fill="#FF5414"/>
<path d="M63.1106 24.8387H54.5944V26.2581H63.1106V24.8387Z" fill="#FF5414"/>
<path d="M60.2718 27.6774H54.5944V29.0967H60.2718V27.6774Z" fill="#FF5414"/>
<path d="M63.1105 27.6774H61.6912V29.0967H63.1105V27.6774Z" fill="#FF5414"/>
<path d="M43.9492 24.129C34.6766 24.129 26.6892 30.5431 24.6127 39.49L23.2678 37.2481L22.0507 37.9784L24.5453 42.135L28.7018 39.6404L27.9716 38.4234L26.0483 39.5773C28.0596 31.3926 35.4196 25.5484 43.9492 25.5484C45.8136 25.5484 47.6531 25.8252 49.4166 26.3716L49.8367 25.0161C47.9369 24.4271 45.9562 24.129 43.9492 24.129Z" fill="#FF5414"/>
<path d="M65.6044 37.7136L61.4478 35.2191L58.954 39.3764L60.1711 40.1067L61.413 38.0365C62.0666 39.9491 62.4009 41.9497 62.4009 44C62.4009 48.2204 60.9389 52.3465 58.2855 55.6174L59.3876 56.5116C62.2462 52.9887 63.8202 48.5447 63.8202 44C63.8202 41.8291 63.4704 39.7092 62.7884 37.6796L64.8741 38.9307L65.6044 37.7136Z" fill="#FF5414"/>
</g>
<defs>
<clipPath id="clip0_1_143">
<rect width="44" height="44" fill="white" transform="translate(22 22)"/>
</clipPath>
</defs>
</svg>
