<svg width="88" height="88" viewBox="0 0 88 88" fill="none" xmlns="http://www.w3.org/2000/svg">
<circle cx="44" cy="44" r="44" fill="#FFFCE6"/>
<path d="M60.8197 42.3895C59.3225 41.641 56.5153 41.6323 56.3966 41.6323C56.0406 41.6323 55.752 41.9209 55.752 42.2769C55.752 42.6328 56.0406 42.9214 56.3966 42.9214C57.1209 42.9215 59.2241 43.033 60.2432 43.5425C60.3358 43.5889 60.4341 43.6107 60.5309 43.6107C60.7674 43.6107 60.995 43.4801 61.1079 43.2543C61.2672 42.9359 61.1381 42.5488 60.8197 42.3895Z" fill="#FCDC02"/>
<mask id="path-3-inside-1_1_134" fill="white">
<path d="M64.0331 51.566L61.3711 50.8054C61.2562 50.7726 61.176 50.6662 61.176 50.5467V49.6582C61.3925 49.5081 61.5991 49.3402 61.7922 49.1528C62.7281 48.2446 63.2435 47.0264 63.2435 45.7226V44.4965L63.5009 43.9818C63.7833 43.4168 63.9326 42.7842 63.9326 42.1525V38.8311C63.9326 38.4751 63.644 38.1865 63.2881 38.1865H57.0857C54.8304 38.1865 52.9954 40.0215 52.9954 42.2768V42.3152C52.9954 42.8405 53.1196 43.3665 53.3545 43.8362L53.6846 44.4964V45.5491C53.6846 47.2175 54.5067 48.7145 55.752 49.6153L55.7522 50.5465C55.7522 50.6901 55.7522 50.7496 55.22 50.9017L53.9211 51.2727L50.1639 49.9065C50.1774 49.7292 50.1175 49.5489 49.9882 49.4131L48.7876 48.1517V46.0342C48.9145 45.9296 49.0396 45.8222 49.1609 45.7086C50.6755 44.2889 51.5442 42.2845 51.5442 40.2093V38.5182C52.0016 37.523 52.2333 36.4698 52.2333 35.3852V28.4939C52.2333 28.1379 51.9447 27.8494 51.5888 27.8494H41.9407C38.5453 27.8494 35.783 30.6117 35.783 34.007V35.3854C35.783 36.47 36.0148 37.5232 36.4721 38.5184V39.9734C36.4721 42.3828 37.5434 44.5534 39.2287 45.9844V48.1518L38.0281 49.4131C37.8988 49.549 37.839 49.7293 37.8525 49.9066L33.8869 51.3485C33.5995 51.453 33.3325 51.5946 33.0901 51.766L32.4674 51.4547C34.321 50.6478 34.9082 49.513 34.9364 49.4566C35.0272 49.2752 35.0272 49.0616 34.9364 48.8802C34.4718 47.9508 34.4155 46.2475 34.3703 44.8788C34.3552 44.4232 34.341 43.9927 34.3137 43.6094C34.094 40.5179 31.7438 38.1865 28.8468 38.1865C25.9499 38.1865 23.5996 40.5178 23.3799 43.6094C23.3527 43.9928 23.3384 44.4233 23.3234 44.879C23.2781 46.2476 23.2218 47.9507 22.7572 48.8801C22.6664 49.0615 22.6664 49.2751 22.7572 49.4565C22.7854 49.5129 23.3714 50.6454 25.2288 51.4532L23.4991 52.318C22.5744 52.7807 22 53.7101 22 54.7438V59.5056C22 59.8615 22.2886 60.1501 22.6445 60.1501C23.0005 60.1501 23.2891 59.8615 23.2891 59.5056V54.7438C23.2891 54.2014 23.5904 53.7137 24.0756 53.4711L26.2294 52.3942L26.9786 53.1062C27.5025 53.6041 28.1745 53.8528 28.8468 53.8528C29.5189 53.8528 30.1913 53.6039 30.715 53.1062L31.4641 52.3943L32.1664 52.7455C31.8357 53.2746 31.648 53.895 31.648 54.545V59.5057C31.648 59.8617 31.9366 60.1503 32.2926 60.1503C32.6485 60.1503 32.9371 59.8617 32.9371 59.5057V54.545C32.9371 53.6602 33.4958 52.8625 34.3274 52.5601L38.5084 51.0398L40.2489 53.6506C40.4714 53.9844 40.828 54.1985 41.2271 54.238C41.2717 54.2424 41.3159 54.2446 41.3601 54.2446C41.7123 54.2446 42.0496 54.1059 42.3017 53.8539L43.3635 52.792V59.5058C43.3635 59.8618 43.6521 60.1503 44.0081 60.1503C44.364 60.1503 44.6526 59.8618 44.6526 59.5058V52.792L45.7145 53.8539C45.9665 54.106 46.3038 54.2446 46.6561 54.2446C46.7002 54.2446 46.7445 54.2425 46.7889 54.2381C47.1882 54.1986 47.5448 53.9845 47.7672 53.6507L49.5078 51.0399L53.6888 52.5603C54.5203 52.8627 55.0791 53.6603 55.0791 54.5452V59.5059C55.0791 59.8619 55.3676 60.1504 55.7236 60.1504C56.0795 60.1504 56.3681 59.8619 56.3681 59.5059V54.5452C56.3681 53.649 56.0121 52.8085 55.4148 52.187L55.5741 52.1415C55.7347 52.0956 55.9538 52.0328 56.1738 51.9249L57.8194 53.5705V59.5059C57.8194 59.8619 58.108 60.1504 58.464 60.1504C58.8199 60.1504 59.1085 59.8619 59.1085 59.5059V53.5705L60.7427 51.9364C60.8296 51.9805 60.9208 52.0178 61.0169 52.0452L63.6789 52.8058C64.2865 52.9794 64.7109 53.542 64.7109 54.174V59.5059C64.7109 59.8619 64.9995 60.1504 65.3555 60.1504C65.7114 60.1504 66 59.8619 66 59.5059V54.174C66 52.9693 65.1912 51.8969 64.0331 51.566ZM26.1349 50.4276C24.9293 49.9937 24.3245 49.4154 24.0664 49.0996C24.2424 48.6395 24.3565 48.1125 24.4337 47.5562C24.7892 48.4084 25.3845 49.136 26.1349 49.6551V50.4276ZM29.8272 52.1719C29.2774 52.6942 28.4163 52.6942 27.8667 52.1718L27.2673 51.6022C27.3684 51.4127 27.424 51.1979 27.424 50.9728V50.2858C27.8737 50.4263 28.3516 50.5021 28.847 50.5021C29.3417 50.5021 29.8195 50.426 30.2699 50.2863L30.2698 50.9727C30.2698 51.1979 30.3253 51.4128 30.4265 51.6024L29.8272 52.1719ZM28.8472 49.2131C26.9225 49.2131 25.3568 47.6473 25.3568 45.7227C25.3568 45.3668 25.0682 45.0782 24.7123 45.0782C24.6762 45.0782 24.6409 45.0819 24.6065 45.0877C24.6084 45.0322 24.6102 44.9767 24.6121 44.9218C24.6264 44.4786 24.6403 44.06 24.6658 43.701C24.7481 42.5429 25.2109 41.4757 25.9689 40.6959C26.7336 39.9091 27.7558 39.4758 28.847 39.4758C29.9382 39.4758 30.9603 39.9091 31.7251 40.6959C32.4831 41.4757 32.9459 42.5429 33.0282 43.701C33.0536 44.0599 33.0675 44.4784 33.0822 44.9215C33.0834 44.9596 33.0847 44.9982 33.086 45.0365C32.3848 43.9561 31.3018 43.1599 29.9025 42.7103C28.6097 42.2949 27.4979 42.3206 27.4509 42.3218C27.2821 42.3266 27.122 42.3972 27.0048 42.5187L25.8419 43.7248C25.5949 43.981 25.6022 44.3891 25.8585 44.6361C26.1148 44.8832 26.5228 44.8757 26.7699 44.6196L27.7375 43.6161C28.5709 43.6568 31.2519 43.9686 32.2945 46.2646C32.0322 47.9565 30.5779 49.2131 28.8472 49.2131ZM31.5587 50.4297L31.5588 49.661C32.3086 49.1448 32.9048 48.4186 33.2605 47.5599C33.3377 48.1149 33.4518 48.6407 33.6274 49.0997C33.3707 49.4125 32.7632 49.9961 31.5587 50.4297ZM37.7612 39.9733V38.3742C37.7612 38.2772 37.7393 38.1814 37.6971 38.094C37.2824 37.2351 37.0721 36.3238 37.0721 35.3854V34.0071C37.0721 31.3225 39.2562 29.1385 41.9407 29.1385H50.9443V35.3855C50.9443 36.3239 50.734 37.2352 50.3192 38.0941C50.277 38.1815 50.2551 38.2773 50.2551 38.3743V40.2095C50.2551 41.955 49.5535 43.574 48.2793 44.7682C48.1203 44.9172 47.9552 45.057 47.7845 45.1872C47.7807 45.1897 47.7771 45.1926 47.7734 45.1952C46.5798 46.1015 45.1179 46.5419 43.5911 46.443C40.322 46.2313 37.7612 43.3895 37.7612 39.9733ZM41.3903 52.9423C41.3858 52.9467 41.3754 52.9573 41.3543 52.9551C41.3334 52.953 41.3251 52.9407 41.3216 52.9354L39.3171 49.9286L39.9621 49.2508L43.003 51.3294L41.3903 52.9423ZM44.0082 50.455L40.5178 48.0692V46.866C41.4209 47.3543 42.4322 47.6596 43.5077 47.7292C43.6776 47.7402 43.8464 47.7456 44.0148 47.7456C45.2472 47.7456 46.4333 47.451 47.4985 46.8918V48.0692L44.0082 50.455ZM46.6947 52.9356C46.6912 52.9409 46.683 52.9532 46.662 52.9552C46.6409 52.9579 46.6306 52.9468 46.6261 52.9424L45.0133 51.3296L48.0542 49.251L48.6993 49.9288L46.6947 52.9356ZM58.464 52.3917L57.0013 50.9292C57.0268 50.8132 57.0413 50.6863 57.0412 50.5463L57.0411 50.2743C57.447 50.4075 57.8748 50.4866 58.3174 50.4998C58.3671 50.5014 58.4164 50.5021 58.4659 50.5021C58.955 50.5021 59.4325 50.4282 59.8869 50.2871V50.5467C59.8869 50.6752 59.9031 50.8012 59.9335 50.9223L58.464 52.3917ZM60.8945 48.2277C60.2114 48.8906 59.309 49.2408 58.3562 49.2114C56.491 49.1554 54.9736 47.5126 54.9736 45.5493V44.3444C54.9736 44.2443 54.9503 44.1456 54.9056 44.0561L54.5074 43.2598C54.3616 42.9681 54.2845 42.6415 54.2845 42.3153V42.2769C54.2845 40.7323 55.5411 39.4757 57.0857 39.4757H62.6435V42.1526C62.6435 42.5852 62.5413 43.0185 62.3478 43.4054L62.0225 44.0561C61.9777 44.1457 61.9544 44.2443 61.9544 44.3444V45.7226C61.9544 46.6748 61.578 47.5645 60.8945 48.2277Z"/>
</mask>
<path d="M64.0331 51.566L61.3711 50.8054C61.2562 50.7726 61.176 50.6662 61.176 50.5467V49.6582C61.3925 49.5081 61.5991 49.3402 61.7922 49.1528C62.7281 48.2446 63.2435 47.0264 63.2435 45.7226V44.4965L63.5009 43.9818C63.7833 43.4168 63.9326 42.7842 63.9326 42.1525V38.8311C63.9326 38.4751 63.644 38.1865 63.2881 38.1865H57.0857C54.8304 38.1865 52.9954 40.0215 52.9954 42.2768V42.3152C52.9954 42.8405 53.1196 43.3665 53.3545 43.8362L53.6846 44.4964V45.5491C53.6846 47.2175 54.5067 48.7145 55.752 49.6153L55.7522 50.5465C55.7522 50.6901 55.7522 50.7496 55.22 50.9017L53.9211 51.2727L50.1639 49.9065C50.1774 49.7292 50.1175 49.5489 49.9882 49.4131L48.7876 48.1517V46.0342C48.9145 45.9296 49.0396 45.8222 49.1609 45.7086C50.6755 44.2889 51.5442 42.2845 51.5442 40.2093V38.5182C52.0016 37.523 52.2333 36.4698 52.2333 35.3852V28.4939C52.2333 28.1379 51.9447 27.8494 51.5888 27.8494H41.9407C38.5453 27.8494 35.783 30.6117 35.783 34.007V35.3854C35.783 36.47 36.0148 37.5232 36.4721 38.5184V39.9734C36.4721 42.3828 37.5434 44.5534 39.2287 45.9844V48.1518L38.0281 49.4131C37.8988 49.549 37.839 49.7293 37.8525 49.9066L33.8869 51.3485C33.5995 51.453 33.3325 51.5946 33.0901 51.766L32.4674 51.4547C34.321 50.6478 34.9082 49.513 34.9364 49.4566C35.0272 49.2752 35.0272 49.0616 34.9364 48.8802C34.4718 47.9508 34.4155 46.2475 34.3703 44.8788C34.3552 44.4232 34.341 43.9927 34.3137 43.6094C34.094 40.5179 31.7438 38.1865 28.8468 38.1865C25.9499 38.1865 23.5996 40.5178 23.3799 43.6094C23.3527 43.9928 23.3384 44.4233 23.3234 44.879C23.2781 46.2476 23.2218 47.9507 22.7572 48.8801C22.6664 49.0615 22.6664 49.2751 22.7572 49.4565C22.7854 49.5129 23.3714 50.6454 25.2288 51.4532L23.4991 52.318C22.5744 52.7807 22 53.7101 22 54.7438V59.5056C22 59.8615 22.2886 60.1501 22.6445 60.1501C23.0005 60.1501 23.2891 59.8615 23.2891 59.5056V54.7438C23.2891 54.2014 23.5904 53.7137 24.0756 53.4711L26.2294 52.3942L26.9786 53.1062C27.5025 53.6041 28.1745 53.8528 28.8468 53.8528C29.5189 53.8528 30.1913 53.6039 30.715 53.1062L31.4641 52.3943L32.1664 52.7455C31.8357 53.2746 31.648 53.895 31.648 54.545V59.5057C31.648 59.8617 31.9366 60.1503 32.2926 60.1503C32.6485 60.1503 32.9371 59.8617 32.9371 59.5057V54.545C32.9371 53.6602 33.4958 52.8625 34.3274 52.5601L38.5084 51.0398L40.2489 53.6506C40.4714 53.9844 40.828 54.1985 41.2271 54.238C41.2717 54.2424 41.3159 54.2446 41.3601 54.2446C41.7123 54.2446 42.0496 54.1059 42.3017 53.8539L43.3635 52.792V59.5058C43.3635 59.8618 43.6521 60.1503 44.0081 60.1503C44.364 60.1503 44.6526 59.8618 44.6526 59.5058V52.792L45.7145 53.8539C45.9665 54.106 46.3038 54.2446 46.6561 54.2446C46.7002 54.2446 46.7445 54.2425 46.7889 54.2381C47.1882 54.1986 47.5448 53.9845 47.7672 53.6507L49.5078 51.0399L53.6888 52.5603C54.5203 52.8627 55.0791 53.6603 55.0791 54.5452V59.5059C55.0791 59.8619 55.3676 60.1504 55.7236 60.1504C56.0795 60.1504 56.3681 59.8619 56.3681 59.5059V54.5452C56.3681 53.649 56.0121 52.8085 55.4148 52.187L55.5741 52.1415C55.7347 52.0956 55.9538 52.0328 56.1738 51.9249L57.8194 53.5705V59.5059C57.8194 59.8619 58.108 60.1504 58.464 60.1504C58.8199 60.1504 59.1085 59.8619 59.1085 59.5059V53.5705L60.7427 51.9364C60.8296 51.9805 60.9208 52.0178 61.0169 52.0452L63.6789 52.8058C64.2865 52.9794 64.7109 53.542 64.7109 54.174V59.5059C64.7109 59.8619 64.9995 60.1504 65.3555 60.1504C65.7114 60.1504 66 59.8619 66 59.5059V54.174C66 52.9693 65.1912 51.8969 64.0331 51.566ZM26.1349 50.4276C24.9293 49.9937 24.3245 49.4154 24.0664 49.0996C24.2424 48.6395 24.3565 48.1125 24.4337 47.5562C24.7892 48.4084 25.3845 49.136 26.1349 49.6551V50.4276ZM29.8272 52.1719C29.2774 52.6942 28.4163 52.6942 27.8667 52.1718L27.2673 51.6022C27.3684 51.4127 27.424 51.1979 27.424 50.9728V50.2858C27.8737 50.4263 28.3516 50.5021 28.847 50.5021C29.3417 50.5021 29.8195 50.426 30.2699 50.2863L30.2698 50.9727C30.2698 51.1979 30.3253 51.4128 30.4265 51.6024L29.8272 52.1719ZM28.8472 49.2131C26.9225 49.2131 25.3568 47.6473 25.3568 45.7227C25.3568 45.3668 25.0682 45.0782 24.7123 45.0782C24.6762 45.0782 24.6409 45.0819 24.6065 45.0877C24.6084 45.0322 24.6102 44.9767 24.6121 44.9218C24.6264 44.4786 24.6403 44.06 24.6658 43.701C24.7481 42.5429 25.2109 41.4757 25.9689 40.6959C26.7336 39.9091 27.7558 39.4758 28.847 39.4758C29.9382 39.4758 30.9603 39.9091 31.7251 40.6959C32.4831 41.4757 32.9459 42.5429 33.0282 43.701C33.0536 44.0599 33.0675 44.4784 33.0822 44.9215C33.0834 44.9596 33.0847 44.9982 33.086 45.0365C32.3848 43.9561 31.3018 43.1599 29.9025 42.7103C28.6097 42.2949 27.4979 42.3206 27.4509 42.3218C27.2821 42.3266 27.122 42.3972 27.0048 42.5187L25.8419 43.7248C25.5949 43.981 25.6022 44.3891 25.8585 44.6361C26.1148 44.8832 26.5228 44.8757 26.7699 44.6196L27.7375 43.6161C28.5709 43.6568 31.2519 43.9686 32.2945 46.2646C32.0322 47.9565 30.5779 49.2131 28.8472 49.2131ZM31.5587 50.4297L31.5588 49.661C32.3086 49.1448 32.9048 48.4186 33.2605 47.5599C33.3377 48.1149 33.4518 48.6407 33.6274 49.0997C33.3707 49.4125 32.7632 49.9961 31.5587 50.4297ZM37.7612 39.9733V38.3742C37.7612 38.2772 37.7393 38.1814 37.6971 38.094C37.2824 37.2351 37.0721 36.3238 37.0721 35.3854V34.0071C37.0721 31.3225 39.2562 29.1385 41.9407 29.1385H50.9443V35.3855C50.9443 36.3239 50.734 37.2352 50.3192 38.0941C50.277 38.1815 50.2551 38.2773 50.2551 38.3743V40.2095C50.2551 41.955 49.5535 43.574 48.2793 44.7682C48.1203 44.9172 47.9552 45.057 47.7845 45.1872C47.7807 45.1897 47.7771 45.1926 47.7734 45.1952C46.5798 46.1015 45.1179 46.5419 43.5911 46.443C40.322 46.2313 37.7612 43.3895 37.7612 39.9733ZM41.3903 52.9423C41.3858 52.9467 41.3754 52.9573 41.3543 52.9551C41.3334 52.953 41.3251 52.9407 41.3216 52.9354L39.3171 49.9286L39.9621 49.2508L43.003 51.3294L41.3903 52.9423ZM44.0082 50.455L40.5178 48.0692V46.866C41.4209 47.3543 42.4322 47.6596 43.5077 47.7292C43.6776 47.7402 43.8464 47.7456 44.0148 47.7456C45.2472 47.7456 46.4333 47.451 47.4985 46.8918V48.0692L44.0082 50.455ZM46.6947 52.9356C46.6912 52.9409 46.683 52.9532 46.662 52.9552C46.6409 52.9579 46.6306 52.9468 46.6261 52.9424L45.0133 51.3296L48.0542 49.251L48.6993 49.9288L46.6947 52.9356ZM58.464 52.3917L57.0013 50.9292C57.0268 50.8132 57.0413 50.6863 57.0412 50.5463L57.0411 50.2743C57.447 50.4075 57.8748 50.4866 58.3174 50.4998C58.3671 50.5014 58.4164 50.5021 58.4659 50.5021C58.955 50.5021 59.4325 50.4282 59.8869 50.2871V50.5467C59.8869 50.6752 59.9031 50.8012 59.9335 50.9223L58.464 52.3917ZM60.8945 48.2277C60.2114 48.8906 59.309 49.2408 58.3562 49.2114C56.491 49.1554 54.9736 47.5126 54.9736 45.5493V44.3444C54.9736 44.2443 54.9503 44.1456 54.9056 44.0561L54.5074 43.2598C54.3616 42.9681 54.2845 42.6415 54.2845 42.3153V42.2769C54.2845 40.7323 55.5411 39.4757 57.0857 39.4757H62.6435V42.1526C62.6435 42.5852 62.5413 43.0185 62.3478 43.4054L62.0225 44.0561C61.9777 44.1457 61.9544 44.2443 61.9544 44.3444V45.7226C61.9544 46.6748 61.578 47.5645 60.8945 48.2277Z" fill="#FCDC02" stroke="#FCDC02" stroke-width="10" mask="url(#path-3-inside-1_1_134)"/>
<path d="M62.5988 54.7262C62.2429 54.7262 61.9543 55.0148 61.9543 55.3707V59.5056C61.9543 59.8616 62.2429 60.1501 62.5988 60.1501C62.9548 60.1501 63.2434 59.8616 63.2434 59.5056V55.3707C63.2434 55.0149 62.9548 54.7262 62.5988 54.7262Z" fill="#FCDC02"/>
<path d="M25.4012 55.5781C25.0452 55.5781 24.7566 55.8667 24.7566 56.2227V59.5056C24.7566 59.8615 25.0452 60.1501 25.4012 60.1501C25.7571 60.1501 26.0457 59.8615 26.0457 59.5056V56.2227C26.0457 55.8668 25.7571 55.5781 25.4012 55.5781Z" fill="#FCDC02"/>
<path d="M49.2879 35.619C46.8502 33.1813 41.7499 33.6473 39.67 33.9608C39.0149 34.0596 38.5395 34.614 38.5395 35.279V36.7639C38.5395 37.1198 38.8281 37.4084 39.1841 37.4084C39.54 37.4084 39.8286 37.1198 39.8286 36.7639V35.2789C39.8286 35.257 39.843 35.2383 39.8623 35.2354C40.693 35.1102 42.3416 34.917 44.0496 35.0308C46.0595 35.1646 47.5153 35.6692 48.3765 36.5304C48.6282 36.7822 49.0363 36.7822 49.2879 36.5304C49.5396 36.2787 49.5396 35.8706 49.2879 35.619Z" fill="#FCDC02"/>
<path d="M36.4275 56.1045C36.0716 56.1045 35.783 56.3931 35.783 56.749V59.5056C35.783 59.8616 36.0716 60.1502 36.4275 60.1502C36.7835 60.1502 37.0721 59.8616 37.0721 59.5056V56.749C37.0721 56.3932 36.7835 56.1045 36.4275 56.1045Z" fill="#FCDC02"/>
<path d="M51.5888 56.1045C51.2328 56.1045 50.9443 56.3931 50.9443 56.749V59.5056C50.9443 59.8616 51.2328 60.1502 51.5888 60.1502C51.9447 60.1502 52.2333 59.8616 52.2333 59.5056V56.749C52.2333 56.3932 51.9447 56.1045 51.5888 56.1045Z" fill="#FCDC02"/>
</svg>
