<svg width="300" height="100" viewBox="0 0 300 100" fill="none" xmlns="http://www.w3.org/2000/svg">
<rect width="300" height="100" rx="16" fill="#F9E4E4"/>
<path d="M102.9 51.4L97.44 43H100.1L104.36 49.7H103.12L107.38 43H110L104.5 51.4H102.9ZM102.58 57V49.96H104.88V57H102.58ZM113.128 57.2C112.194 57.2 111.348 56.98 110.588 56.54C109.828 56.0867 109.221 55.48 108.768 54.72C108.328 53.96 108.108 53.1133 108.108 52.18C108.108 51.2467 108.328 50.4067 108.768 49.66C109.221 48.9133 109.828 48.32 110.588 47.88C111.348 47.4267 112.194 47.2 113.128 47.2C114.074 47.2 114.928 47.42 115.688 47.86C116.448 48.3 117.048 48.9 117.488 49.66C117.941 50.4067 118.168 51.2467 118.168 52.18C118.168 53.1133 117.941 53.96 117.488 54.72C117.048 55.48 116.448 56.0867 115.688 56.54C114.928 56.98 114.074 57.2 113.128 57.2ZM113.128 55.08C113.674 55.08 114.154 54.96 114.568 54.72C114.994 54.4667 115.321 54.12 115.548 53.68C115.788 53.24 115.908 52.74 115.908 52.18C115.908 51.62 115.788 51.1267 115.548 50.7C115.308 50.2733 114.981 49.94 114.568 49.7C114.154 49.4467 113.674 49.32 113.128 49.32C112.594 49.32 112.114 49.4467 111.688 49.7C111.274 49.94 110.948 50.2733 110.708 50.7C110.481 51.1267 110.368 51.62 110.368 52.18C110.368 52.74 110.481 53.24 110.708 53.68C110.948 54.12 111.274 54.4667 111.688 54.72C112.114 54.96 112.594 55.08 113.128 55.08ZM123.937 57.2C123.124 57.2 122.397 57.02 121.757 56.66C121.131 56.3 120.637 55.8067 120.277 55.18C119.931 54.54 119.757 53.8067 119.757 52.98V47.4H121.957V52.88C121.957 53.3467 122.031 53.7467 122.177 54.08C122.337 54.4 122.564 54.6467 122.857 54.82C123.164 54.9933 123.524 55.08 123.937 55.08C124.577 55.08 125.064 54.8933 125.397 54.52C125.744 54.1333 125.917 53.5867 125.917 52.88V47.4H128.117V52.98C128.117 53.82 127.937 54.56 127.577 55.2C127.231 55.8267 126.744 56.32 126.117 56.68C125.491 57.0267 124.764 57.2 123.937 57.2ZM134.149 57V43.4H136.449V57H134.149ZM129.589 45.1V43H141.009V45.1H129.589ZM144.699 57.2C143.886 57.2 143.159 57.02 142.519 56.66C141.892 56.3 141.399 55.8067 141.039 55.18C140.692 54.54 140.519 53.8067 140.519 52.98V47.4H142.719V52.88C142.719 53.3467 142.792 53.7467 142.939 54.08C143.099 54.4 143.326 54.6467 143.619 54.82C143.926 54.9933 144.286 55.08 144.699 55.08C145.339 55.08 145.826 54.8933 146.159 54.52C146.506 54.1333 146.679 53.5867 146.679 52.88V47.4H148.879V52.98C148.879 53.82 148.699 54.56 148.339 55.2C147.992 55.8267 147.506 56.32 146.879 56.68C146.252 57.0267 145.526 57.2 144.699 57.2ZM156.231 57.2C155.498 57.2 154.844 57.0467 154.271 56.74C153.698 56.42 153.244 55.9867 152.911 55.44C152.591 54.8933 152.431 54.2733 152.431 53.58V50.82C152.431 50.1267 152.598 49.5067 152.931 48.96C153.264 48.4133 153.718 47.9867 154.291 47.68C154.864 47.36 155.511 47.2 156.231 47.2C157.098 47.2 157.878 47.4267 158.571 47.88C159.278 48.32 159.831 48.92 160.231 49.68C160.644 50.4267 160.851 51.2733 160.851 52.22C160.851 53.1533 160.644 54 160.231 54.76C159.831 55.5067 159.278 56.1 158.571 56.54C157.878 56.98 157.098 57.2 156.231 57.2ZM155.871 55.12C156.404 55.12 156.871 55 157.271 54.76C157.684 54.5067 158.004 54.16 158.231 53.72C158.471 53.28 158.591 52.7733 158.591 52.2C158.591 51.6267 158.471 51.12 158.231 50.68C158.004 50.24 157.684 49.9 157.271 49.66C156.871 49.4067 156.404 49.28 155.871 49.28C155.338 49.28 154.864 49.4067 154.451 49.66C154.038 49.9 153.718 50.24 153.491 50.68C153.264 51.12 153.151 51.6267 153.151 52.2C153.151 52.7733 153.264 53.28 153.491 53.72C153.718 54.16 154.038 54.5067 154.451 54.76C154.864 55 155.338 55.12 155.871 55.12ZM151.091 57V42.6H153.291V49.76L152.911 52.08L153.291 54.42V57H151.091ZM167.153 57.2C166.193 57.2 165.326 56.9867 164.553 56.56C163.793 56.12 163.186 55.52 162.733 54.76C162.293 54 162.073 53.1467 162.073 52.2C162.073 51.2533 162.293 50.4067 162.733 49.66C163.173 48.9 163.766 48.3 164.513 47.86C165.273 47.42 166.113 47.2 167.033 47.2C167.926 47.2 168.713 47.4067 169.393 47.82C170.086 48.2333 170.626 48.8 171.013 49.52C171.413 50.24 171.613 51.06 171.613 51.98C171.613 52.14 171.599 52.3067 171.573 52.48C171.559 52.64 171.533 52.82 171.493 53.02H163.613V51.22H170.353L169.533 51.94C169.506 51.3533 169.393 50.86 169.193 50.46C168.993 50.06 168.706 49.7533 168.333 49.54C167.973 49.3267 167.526 49.22 166.993 49.22C166.433 49.22 165.946 49.34 165.533 49.58C165.119 49.82 164.799 50.16 164.573 50.6C164.346 51.0267 164.233 51.54 164.233 52.14C164.233 52.74 164.353 53.2667 164.593 53.72C164.833 54.1733 165.173 54.5267 165.613 54.78C166.053 55.02 166.559 55.14 167.133 55.14C167.626 55.14 168.079 55.0533 168.493 54.88C168.919 54.7067 169.279 54.4533 169.573 54.12L170.973 55.54C170.506 56.0867 169.939 56.5 169.273 56.78C168.606 57.06 167.899 57.2 167.153 57.2ZM177.68 57V43H179.28L185.1 52.58H184.06L189.88 43H191.48V57H189.18V47.04L189.7 47.18L185.38 54.28H183.78L179.46 47.18L179.98 47.04V57H177.68ZM198.236 57.2C197.369 57.2 196.583 56.98 195.876 56.54C195.183 56.1 194.629 55.5067 194.216 54.76C193.816 54 193.616 53.1533 193.616 52.22C193.616 51.2733 193.816 50.4267 194.216 49.68C194.629 48.92 195.183 48.32 195.876 47.88C196.583 47.4267 197.369 47.2 198.236 47.2C198.969 47.2 199.616 47.36 200.176 47.68C200.749 47.9867 201.203 48.4133 201.536 48.96C201.869 49.5067 202.036 50.1267 202.036 50.82V53.58C202.036 54.2733 201.869 54.8933 201.536 55.44C201.216 55.9867 200.769 56.42 200.196 56.74C199.623 57.0467 198.969 57.2 198.236 57.2ZM198.596 55.12C199.409 55.12 200.063 54.8467 200.556 54.3C201.063 53.7533 201.316 53.0533 201.316 52.2C201.316 51.6267 201.203 51.12 200.976 50.68C200.749 50.24 200.429 49.9 200.016 49.66C199.616 49.4067 199.143 49.28 198.596 49.28C198.063 49.28 197.589 49.4067 197.176 49.66C196.776 49.9 196.456 50.24 196.216 50.68C195.989 51.12 195.876 51.6267 195.876 52.2C195.876 52.7733 195.989 53.28 196.216 53.72C196.456 54.16 196.776 54.5067 197.176 54.76C197.589 55 198.063 55.12 198.596 55.12ZM201.176 57V54.42L201.556 52.08L201.176 49.76V47.4H203.376V57H201.176ZM205.818 57V47.4H208.018V57H205.818ZM208.018 51.66L207.258 51.28C207.258 50.0667 207.524 49.0867 208.058 48.34C208.604 47.58 209.424 47.2 210.518 47.2C210.998 47.2 211.431 47.2867 211.818 47.46C212.204 47.6333 212.564 47.9133 212.898 48.3L211.458 49.78C211.284 49.5933 211.091 49.46 210.878 49.38C210.664 49.3 210.418 49.26 210.138 49.26C209.524 49.26 209.018 49.4533 208.618 49.84C208.218 50.2267 208.018 50.8333 208.018 51.66ZM220.062 57L216.002 52.1L220.042 47.4H222.662L218.022 52.68L218.122 51.42L222.862 57H220.062ZM213.962 57V42.6H216.162V57H213.962ZM228.149 57.2C227.189 57.2 226.322 56.9867 225.549 56.56C224.789 56.12 224.182 55.52 223.729 54.76C223.289 54 223.069 53.1467 223.069 52.2C223.069 51.2533 223.289 50.4067 223.729 49.66C224.169 48.9 224.762 48.3 225.509 47.86C226.269 47.42 227.109 47.2 228.029 47.2C228.922 47.2 229.709 47.4067 230.389 47.82C231.082 48.2333 231.622 48.8 232.009 49.52C232.409 50.24 232.609 51.06 232.609 51.98C232.609 52.14 232.595 52.3067 232.569 52.48C232.555 52.64 232.529 52.82 232.489 53.02H224.609V51.22H231.349L230.529 51.94C230.502 51.3533 230.389 50.86 230.189 50.46C229.989 50.06 229.702 49.7533 229.329 49.54C228.969 49.3267 228.522 49.22 227.989 49.22C227.429 49.22 226.942 49.34 226.529 49.58C226.115 49.82 225.795 50.16 225.569 50.6C225.342 51.0267 225.229 51.54 225.229 52.14C225.229 52.74 225.349 53.2667 225.589 53.72C225.829 54.1733 226.169 54.5267 226.609 54.78C227.049 55.02 227.555 55.14 228.129 55.14C228.622 55.14 229.075 55.0533 229.489 54.88C229.915 54.7067 230.275 54.4533 230.569 54.12L231.969 55.54C231.502 56.0867 230.935 56.5 230.269 56.78C229.602 57.06 228.895 57.2 228.149 57.2ZM235.578 57V43.4H237.778V57H235.578ZM233.278 49.4V47.4H240.078V49.4H233.278ZM241.697 57V47.4H243.897V57H241.697ZM242.797 45.64C242.424 45.64 242.11 45.5133 241.857 45.26C241.617 45.0067 241.497 44.6933 241.497 44.32C241.497 43.9467 241.617 43.6333 241.857 43.38C242.11 43.1267 242.424 43 242.797 43C243.184 43 243.497 43.1267 243.737 43.38C243.977 43.6333 244.097 43.9467 244.097 44.32C244.097 44.6933 243.977 45.0067 243.737 45.26C243.497 45.5133 243.184 45.64 242.797 45.64ZM252.945 57V51.46C252.945 50.82 252.738 50.2933 252.325 49.88C251.925 49.4667 251.405 49.26 250.765 49.26C250.338 49.26 249.958 49.3533 249.625 49.54C249.291 49.7267 249.031 49.9867 248.845 50.32C248.658 50.6533 248.565 51.0333 248.565 51.46L247.705 50.98C247.705 50.2467 247.865 49.6 248.185 49.04C248.505 48.4667 248.945 48.02 249.505 47.7C250.078 47.3667 250.718 47.2 251.425 47.2C252.145 47.2 252.785 47.3867 253.345 47.76C253.905 48.12 254.345 48.5933 254.665 49.18C254.985 49.7533 255.145 50.3533 255.145 50.98V57H252.945ZM246.365 57V47.4H248.565V57H246.365ZM261.38 61.2C260.367 61.2 259.48 61.0133 258.72 60.64C257.96 60.28 257.347 59.7667 256.88 59.1L258.32 57.66C258.707 58.14 259.147 58.5 259.64 58.74C260.133 58.98 260.727 59.1 261.42 59.1C262.287 59.1 262.973 58.8733 263.48 58.42C263.987 57.98 264.24 57.3733 264.24 56.6V54.24L264.62 52.12L264.24 49.98V47.4H266.44V56.6C266.44 57.52 266.227 58.32 265.8 59C265.373 59.6933 264.78 60.2333 264.02 60.62C263.26 61.0067 262.38 61.2 261.38 61.2ZM261.28 56.8C260.427 56.8 259.653 56.5933 258.96 56.18C258.28 55.7533 257.74 55.1733 257.34 54.44C256.953 53.7067 256.76 52.8867 256.76 51.98C256.76 51.0733 256.953 50.26 257.34 49.54C257.74 48.82 258.28 48.2533 258.96 47.84C259.653 47.4133 260.427 47.2 261.28 47.2C262.04 47.2 262.707 47.3533 263.28 47.66C263.853 47.9667 264.3 48.3933 264.62 48.94C264.94 49.4733 265.1 50.1 265.1 50.82V53.18C265.1 53.8867 264.933 54.5133 264.6 55.06C264.28 55.6067 263.833 56.0333 263.26 56.34C262.687 56.6467 262.027 56.8 261.28 56.8ZM261.72 54.72C262.253 54.72 262.72 54.6067 263.12 54.38C263.52 54.1533 263.827 53.84 264.04 53.44C264.267 53.0267 264.38 52.5467 264.38 52C264.38 51.4533 264.267 50.98 264.04 50.58C263.827 50.1667 263.52 49.8467 263.12 49.62C262.72 49.3933 262.253 49.28 261.72 49.28C261.187 49.28 260.713 49.3933 260.3 49.62C259.9 49.8467 259.587 50.1667 259.36 50.58C259.133 50.98 259.02 51.4533 259.02 52C259.02 52.5333 259.133 53.0067 259.36 53.42C259.587 53.8333 259.9 54.1533 260.3 54.38C260.713 54.6067 261.187 54.72 261.72 54.72Z" fill="black" fill-opacity="0.7"/>
<g clip-path="url(#clip0_39_53)">
<path d="M56.1594 31.2461H56.4375C59.0063 31.2555 72.0219 31.3492 75.5312 32.293C76.5922 32.581 77.5589 33.1424 78.3349 33.9211C79.1108 34.6998 79.6688 35.6685 79.9531 36.7305C80.2687 37.918 80.4906 39.4898 80.6406 41.1117L80.6719 41.4367L80.7406 42.2492L80.7656 42.5742C80.9688 45.4305 80.9937 48.1055 80.9969 48.6898V48.9242C80.9937 49.5305 80.9656 52.3867 80.7406 55.3617L80.7156 55.6898L80.6875 56.0148C80.5312 57.8023 80.3 59.5773 79.9531 60.8836C79.6697 61.9459 79.112 62.9151 78.3359 63.694C77.5598 64.4728 76.5926 65.0339 75.5312 65.3211C71.9063 66.2961 58.1281 66.3648 56.2187 66.368H55.775C54.8094 66.368 50.8156 66.3492 46.6281 66.2055L46.0969 66.1867L45.825 66.1742L45.2906 66.1523L44.7562 66.1305C41.2875 65.9773 37.9844 65.7305 36.4625 65.318C35.4015 65.0311 34.4346 64.4704 33.6585 63.6922C32.8824 62.9139 32.3245 61.9454 32.0406 60.8836C31.6938 59.5805 31.4625 57.8023 31.3062 56.0148L31.2813 55.6867L31.2563 55.3617C31.102 53.2442 31.0166 51.1223 31 48.9992L31 48.6148C31.0063 47.943 31.0313 45.6211 31.2 43.0586L31.2219 42.7367L31.2313 42.5742L31.2563 42.2492L31.325 41.4367L31.3563 41.1117C31.5063 39.4898 31.7281 37.9148 32.0437 36.7305C32.3272 35.6681 32.8849 34.6989 33.661 33.9201C34.4371 33.1413 35.4043 32.5801 36.4656 32.293C37.9875 31.8867 41.2906 31.6367 44.7594 31.4805L45.2906 31.4586L45.8281 31.4398L46.0969 31.4305L46.6312 31.4086C49.6053 31.3129 52.5806 31.2598 55.5562 31.2492H56.1594V31.2461ZM51 41.2773V56.3336L63.9906 48.8086L51 41.2773Z" fill="#F41D29"/>
</g>
<defs>
<clipPath id="clip0_39_53">
<rect width="50" height="50" fill="white" transform="translate(31 25)"/>
</clipPath>
</defs>
</svg>
