<?xml version="1.0" encoding="UTF-8" standalone="no"?>
<!-- Created with Inkscape (http://www.inkscape.org/) -->

<svg
   version="1.1"
   id="svg5061"
   xml:space="preserve"
   width="682.66669"
   height="682.66669"
   viewBox="0 0 682.66669 682.66669"
   xmlns="http://www.w3.org/2000/svg"
   xmlns:svg="http://www.w3.org/2000/svg"><defs
     id="defs5065"><clipPath
       clipPathUnits="userSpaceOnUse"
       id="clipPath5079"><path
         d="M 0,512 H 512 V 0 H 0 Z"
         id="path5077" /></clipPath></defs><g
     id="g5067"
     transform="matrix(1.3333333,0,0,-1.3333333,0,682.66667)"><g
       id="g5069"
       transform="translate(250.9482,250.5889)"><path
         d="M 0,0 V -39.2 L 43.88,-72.24 87.761,-39.2 V 0"
         style="fill:none;stroke:#000000;stroke-width:15;stroke-linecap:round;stroke-linejoin:round;stroke-miterlimit:10;stroke-dasharray:none;stroke-opacity:1"
         id="path5071" /></g><g
       id="g5073"><g
         id="g5075"
         clip-path="url(#clipPath5079)"><g
           id="g5081"
           transform="translate(219.5781,380.248)"><path
             d="m 0,0 h -15.061 c -11.541,0 -20.897,-9.355 -20.897,-20.897 v -15.659 c 0,-11.541 9.356,-20.897 20.897,-20.897 l 15.061,0 z"
             style="fill:none;stroke:#000000;stroke-width:15;stroke-linecap:round;stroke-linejoin:round;stroke-miterlimit:10;stroke-dasharray:none;stroke-opacity:1"
             id="path5083" /></g><g
           id="g5085"
           transform="translate(370.0762,380.248)"><path
             d="m 0,0 h 15.062 c 11.541,0 20.897,-9.355 20.897,-20.897 v -15.659 c 0,-11.541 -9.356,-20.897 -20.897,-20.897 l -15.062,0 z"
             style="fill:none;stroke:#000000;stroke-width:15;stroke-linecap:round;stroke-linejoin:round;stroke-miterlimit:10;stroke-dasharray:none;stroke-opacity:1"
             id="path5087" /></g><g
           id="g5089"
           transform="translate(327.2109,352.9023)"><path
             d="M 0,0 V -9.844"
             style="fill:none;stroke:#000000;stroke-width:15;stroke-linecap:round;stroke-linejoin:round;stroke-miterlimit:10;stroke-dasharray:none;stroke-opacity:1"
             id="path5091" /></g><g
           id="g5093"
           transform="translate(262.5937,352.9023)"><path
             d="M 0,0 V -9.844"
             style="fill:none;stroke:#000000;stroke-width:15;stroke-linecap:round;stroke-linejoin:round;stroke-miterlimit:10;stroke-dasharray:none;stroke-opacity:1"
             id="path5095" /></g><g
           id="g5097"
           transform="translate(313.6377,302.2764)"><path
             d="m 0,0 c 0,-10.388 -8.421,-18.81 -18.81,-18.81 -10.387,0 -18.808,8.422 -18.808,18.81"
             style="fill:none;stroke:#000000;stroke-width:15;stroke-linecap:round;stroke-linejoin:round;stroke-miterlimit:10;stroke-dasharray:none;stroke-opacity:1"
             id="path5099" /></g><g
           id="g5101"
           transform="translate(398.4893,400.1504)"><path
             d="m 0,0 v -19.9 h -112.49 c -16.57,0 -30,13.429 -30,30 v 64.25 c 0,16.57 13.43,30 30,30 h 50.91 C -27.569,104.35 0,76.779 0,42.77 V 32.689"
             style="fill:none;stroke:#000000;stroke-width:15;stroke-linecap:round;stroke-linejoin:round;stroke-miterlimit:10;stroke-dasharray:none;stroke-opacity:1"
             id="path5103" /></g><g
           id="g5105"
           transform="translate(191.4883,380.248)"><path
             d="m 0,0 h 34.512 c 16.568,0 30,13.432 30,30 V 93.19 H 45 c -24.853,0 -45,-20.147 -45,-45 z"
             style="fill:none;stroke:#000000;stroke-width:15;stroke-linecap:round;stroke-linejoin:round;stroke-miterlimit:10;stroke-dasharray:none;stroke-opacity:1"
             id="path5107" /></g><g
           id="g5109"
           transform="translate(465.6699,84.6396)"><path
             d="M 0,0 V -77.1 H -295.091 V 0.521 l -53.22,-64.3 c -5.559,-8.341 -14.929,-13.361 -24.96,-13.361 h -0.54 c -16.57,0 -30,13.43 -30,30 v 32.13 h 31.601 c 8.279,0 15,6.71 15,15 v 16.061 l 56.89,73.849 c 3.42,4.441 8.009,7.83 13.259,9.8 l 72.371,27.05 43.849,-33.04 43.851,33.04 98.019,-30.88 C -11.7,90.24 0,74.141 0,55.95 V 32.69"
             style="fill:none;stroke:#000000;stroke-width:15;stroke-linecap:round;stroke-linejoin:round;stroke-miterlimit:10;stroke-dasharray:none;stroke-opacity:1"
             id="path5111" /></g><g
           id="g5113"
           transform="translate(403.5469,114.5518)"><path
             d="M 0,0 V -107.05"
             style="fill:none;stroke:#000000;stroke-width:15;stroke-linecap:round;stroke-linejoin:round;stroke-miterlimit:10;stroke-dasharray:none;stroke-opacity:1"
             id="path5115" /></g><g
           id="g5117"
           transform="translate(61.3301,69.626)"><path
             d="m 0,0 h 32.125 c 8.284,0 15,6.716 15,15 v 63.188 c 0,8.284 -6.716,15 -15,15 H 0 c -8.284,0 -15,-6.716 -15,-15 V 15 C -15,6.716 -8.284,0 0,0 Z"
             style="fill:none;stroke:#000000;stroke-width:15;stroke-linecap:round;stroke-linejoin:round;stroke-miterlimit:10;stroke-dasharray:none;stroke-opacity:1"
             id="path5119" /></g><g
           id="g5121"
           transform="translate(108.4551,131.751)"><path
             d="M 0,0 H -31.062"
             style="fill:none;stroke:#000000;stroke-width:15;stroke-linecap:round;stroke-linejoin:round;stroke-miterlimit:10;stroke-dasharray:none;stroke-opacity:1"
             id="path5123" /></g><g
           id="g5125"
           transform="translate(108.4551,100.6885)"><path
             d="M 0,0 H -31.062"
             style="fill:none;stroke:#000000;stroke-width:15;stroke-linecap:round;stroke-linejoin:round;stroke-miterlimit:10;stroke-dasharray:none;stroke-opacity:1"
             id="path5127" /></g><g
           id="g5129"
           transform="translate(100.6885,71.4844)"><path
             d="M 0,0 V -17.39"
             style="fill:none;stroke:#000000;stroke-width:15;stroke-linecap:round;stroke-linejoin:round;stroke-miterlimit:10;stroke-dasharray:none;stroke-opacity:1"
             id="path5131" /></g><g
           id="g5133"
           transform="translate(170.5791,85.1582)"><path
             d="M 0,0 V 31.062"
             style="fill:none;stroke:#000000;stroke-width:15;stroke-linecap:round;stroke-linejoin:round;stroke-miterlimit:10;stroke-dasharray:none;stroke-opacity:1"
             id="path5135" /></g><g
           id="g5137"
           transform="translate(69.626,162.8135)"><path
             d="m 0,0 h 31.062 v 33.044 c 0,8.577 -6.954,15.531 -15.531,15.531 C 6.953,48.575 0,41.621 0,33.044 Z"
             style="fill:none;stroke:#000000;stroke-width:15;stroke-linecap:round;stroke-linejoin:round;stroke-miterlimit:10;stroke-dasharray:none;stroke-opacity:1"
             id="path5139" /></g><g
           id="g5141"
           transform="translate(267.2891,38.5596)"><path
             d="M 0,0 H 136.261 V 62.421 H -96.71 V 0 h 64.03"
             style="fill:none;stroke:#000000;stroke-width:15;stroke-linecap:round;stroke-linejoin:round;stroke-miterlimit:10;stroke-dasharray:none;stroke-opacity:1"
             id="path5143" /></g><g
           id="g5145"
           transform="translate(69.627,318.4795)"><path
             d="M 0,0 15.531,-15.531 46.594,15.531"
             style="fill:none;stroke:#000000;stroke-width:15;stroke-linecap:round;stroke-linejoin:round;stroke-miterlimit:10;stroke-dasharray:none;stroke-opacity:1"
             id="path5147" /></g><g
           id="g5149"
           transform="translate(124.5176,256)"><path
             d="m 0,0 h -63.188 c -8.284,0 -15,6.716 -15,15 v 94.958 c 0,8.285 6.716,15 15,15 H 0 c 8.284,0 15,-6.715 15,-15 V 62.479 L 46.062,31.062 H 15 V 15 C 15,6.716 8.284,0 0,0 Z"
             style="fill:none;stroke:#000000;stroke-width:15;stroke-linecap:round;stroke-linejoin:round;stroke-miterlimit:10;stroke-dasharray:none;stroke-opacity:1"
             id="path5151" /></g><g
           id="g5153"
           transform="translate(219.5781,380.248)"><path
             d="m 0,0 v -71.55 c 0,-38.389 31.12,-69.51 69.511,-69.51 H 80.99 c 38.391,0 69.51,31.121 69.51,69.51 V 0"
             style="fill:none;stroke:#000000;stroke-width:15;stroke-linecap:round;stroke-linejoin:round;stroke-miterlimit:10;stroke-dasharray:none;stroke-opacity:1"
             id="path5155" /></g></g></g></g></svg>
