<svg id="Layer_1" height="512" viewBox="0 0 64 64" width="512" xmlns="http://www.w3.org/2000/svg" data-name="Layer 1"><path d="m10 3h38v39h2v-39a2 2 0 0 0 -2-2h-38a2 2 0 0 0 -2 2v58a2 2 0 0 0 2 2h29v-2h-29z"/><path d="m60 53h-2.059a8.995 8.995 0 1 0 -4.441 8.8l-1-1.731a7 7 0 1 1 3.42-7.069h-1.92a1 1 0 0 0 -.857 1.515l3 5a1 1 0 0 0 1.714 0l3-5a1 1 0 0 0 -.857-1.515zm-3 4.057-1.234-2.057h2.468z"/><path d="m48 54.382-2.447 1.223.894 1.79 3-1.5a1 1 0 0 0 .553-.895v-6h-2z"/><path d="m13 53a1 1 0 0 0 1 1h10a1 1 0 0 0 1-1v-10a1 1 0 0 0 -1-1h-10a1 1 0 0 0 -1 1zm2-9h8v8h-8z"/><path d="m14 18h10a1 1 0 0 0 .895-1.447l-5-10a1.042 1.042 0 0 0 -1.79 0l-5 10a1 1 0 0 0 .895 1.447zm5-8.764 3.382 6.764h-6.764z"/><path d="m13.3 29.593 2.123 2.07-.5 2.923a1 1 0 0 0 1.451 1.054l2.626-1.379 2.625 1.379a1 1 0 0 0 1.451-1.054l-.5-2.923 2.123-2.07a1 1 0 0 0 -.554-1.7l-2.935-.427-1.31-2.666a1.039 1.039 0 0 0 -1.792 0l-1.313 2.658-2.935.427a1 1 0 0 0 -.554 1.7zm4.3-.229a1 1 0 0 0 .753-.547l.647-1.312.648 1.312a1 1 0 0 0 .753.547l1.45.211-1.051 1.025a1 1 0 0 0 -.288.884l.248 1.444-1.3-.681a1 1 0 0 0 -.93 0l-1.3.681.248-1.444a1 1 0 0 0 -.278-.884l-1.049-1.024z"/><path d="m29 11h16v2h-16z"/><path d="m29 29h16v2h-16z"/><path d="m29 47h10v2h-10z"/></svg>